<mxfile host="65bd71144e">
    <diagram id="HX3q6Wj29Js0pQgWZ11D" name="Page-1">
        <mxGraphModel dx="3478" dy="2019" grid="1" gridSize="10" guides="1" tooltips="1" connect="1" arrows="1" fold="1" page="1" pageScale="1" pageWidth="850" pageHeight="1100" math="0" shadow="0">
            <root>
                <mxCell id="0"/>
                <mxCell id="1" parent="0"/>
                <mxCell id="21" style="edgeStyle=none;html=1;exitX=0;exitY=0.75;exitDx=0;exitDy=0;exitPerimeter=0;entryX=1.012;entryY=0.589;entryDx=0;entryDy=0;entryPerimeter=0;" parent="1" source="3" target="7" edge="1">
                    <mxGeometry relative="1" as="geometry"/>
                </mxCell>
                <mxCell id="22" value="Upload confirmation &amp;amp; reading of output" style="edgeLabel;html=1;align=center;verticalAlign=middle;resizable=0;points=[];" parent="21" vertex="1" connectable="0">
                    <mxGeometry x="0.4061" y="3" relative="1" as="geometry">
                        <mxPoint x="62" as="offset"/>
                    </mxGeometry>
                </mxCell>
                <mxCell id="3" value="" style="sketch=0;points=[[0,0,0],[0.25,0,0],[0.5,0,0],[0.75,0,0],[1,0,0],[0,1,0],[0.25,1,0],[0.5,1,0],[0.75,1,0],[1,1,0],[0,0.25,0],[0,0.5,0],[0,0.75,0],[1,0.25,0],[1,0.5,0],[1,0.75,0]];outlineConnect=0;fontColor=#232F3E;gradientColor=#4AB29A;gradientDirection=north;fillColor=#116D5B;strokeColor=#ffffff;dashed=0;verticalLabelPosition=bottom;verticalAlign=top;align=center;html=1;fontSize=12;fontStyle=0;aspect=fixed;shape=mxgraph.aws4.resourceIcon;resIcon=mxgraph.aws4.transfer_for_sftp;" parent="1" vertex="1">
                    <mxGeometry x="700" y="71" width="78" height="78" as="geometry"/>
                </mxCell>
                <mxCell id="16" value="Read File meta Data" style="edgeStyle=none;html=1;entryX=0.596;entryY=0.995;entryDx=0;entryDy=0;entryPerimeter=0;" parent="1" source="110" target="7" edge="1">
                    <mxGeometry x="0.6519" y="-29" relative="1" as="geometry">
                        <mxPoint as="offset"/>
                    </mxGeometry>
                </mxCell>
                <mxCell id="4" value="" style="sketch=0;html=1;dashed=0;whitespace=wrap;fillColor=#2875E2;strokeColor=#ffffff;points=[[0.005,0.63,0],[0.1,0.2,0],[0.9,0.2,0],[0.5,0,0],[0.995,0.63,0],[0.72,0.99,0],[0.5,1,0],[0.28,0.99,0]];verticalLabelPosition=bottom;align=center;verticalAlign=top;shape=mxgraph.kubernetes.icon;prIcon=api" parent="1" vertex="1">
                    <mxGeometry x="50" y="30" width="86" height="80" as="geometry"/>
                </mxCell>
                <mxCell id="15" value="Store File Metadata" style="edgeStyle=none;html=1;exitX=0.439;exitY=1.005;exitDx=0;exitDy=0;exitPerimeter=0;entryX=0;entryY=0.04;entryDx=0;entryDy=0;entryPerimeter=0;" parent="1" source="7" target="110" edge="1">
                    <mxGeometry relative="1" as="geometry">
                        <mxPoint x="200" y="340" as="targetPoint"/>
                    </mxGeometry>
                </mxCell>
                <mxCell id="18" style="edgeStyle=none;html=1;exitX=0.999;exitY=0.409;exitDx=0;exitDy=0;movable=1;resizable=1;rotatable=1;deletable=1;editable=1;connectable=1;entryX=0;entryY=0.25;entryDx=0;entryDy=0;entryPerimeter=0;exitPerimeter=0;" parent="1" source="7" target="3" edge="1">
                    <mxGeometry relative="1" as="geometry"/>
                </mxCell>
                <mxCell id="20" value="Upload of Portfolio Data" style="edgeLabel;html=1;align=center;verticalAlign=middle;resizable=0;points=[];" parent="18" vertex="1" connectable="0">
                    <mxGeometry x="0.0043" y="-2" relative="1" as="geometry">
                        <mxPoint as="offset"/>
                    </mxGeometry>
                </mxCell>
                <mxCell id="7" value="" style="rounded=0;whiteSpace=wrap;html=1;fillColor=none;movable=1;resizable=1;rotatable=1;deletable=1;editable=1;connectable=1;" parent="1" vertex="1">
                    <mxGeometry x="30" y="-20" width="410" height="260" as="geometry"/>
                </mxCell>
                <mxCell id="6" value="" style="sketch=0;aspect=fixed;html=1;points=[];align=center;image;fontSize=12;image=img/lib/mscae/Docker.svg;" parent="1" vertex="1">
                    <mxGeometry x="360" y="190" width="50" height="41" as="geometry"/>
                </mxCell>
                <mxCell id="13" style="edgeStyle=none;html=1;entryX=0.995;entryY=0.63;entryDx=0;entryDy=0;entryPerimeter=0;" parent="1" source="9" target="4" edge="1">
                    <mxGeometry relative="1" as="geometry"/>
                </mxCell>
                <mxCell id="14" value="Read uploaded files" style="edgeLabel;html=1;align=center;verticalAlign=middle;resizable=0;points=[];" parent="13" vertex="1" connectable="0">
                    <mxGeometry x="0.3302" y="-1" relative="1" as="geometry">
                        <mxPoint as="offset"/>
                    </mxGeometry>
                </mxCell>
                <mxCell id="9" value="" style="outlineConnect=0;dashed=0;verticalLabelPosition=bottom;verticalAlign=top;align=center;html=1;shape=mxgraph.aws3.volume;fillColor=#E05243;gradientColor=none;" parent="1" vertex="1">
                    <mxGeometry x="310" y="45" width="62.5" height="75" as="geometry"/>
                </mxCell>
                <mxCell id="10" value="" style="endArrow=classic;html=1;exitX=0.9;exitY=0.2;exitDx=0;exitDy=0;exitPerimeter=0;entryX=0.01;entryY=0.1;entryDx=0;entryDy=0;entryPerimeter=0;" parent="1" source="4" target="9" edge="1">
                    <mxGeometry width="50" height="50" relative="1" as="geometry">
                        <mxPoint x="400" y="180" as="sourcePoint"/>
                        <mxPoint x="450" y="130" as="targetPoint"/>
                    </mxGeometry>
                </mxCell>
                <mxCell id="12" value="Store Uploaded files" style="edgeLabel;html=1;align=center;verticalAlign=middle;resizable=0;points=[];" parent="10" vertex="1" connectable="0">
                    <mxGeometry x="-0.4419" y="-1" relative="1" as="geometry">
                        <mxPoint x="21" as="offset"/>
                    </mxGeometry>
                </mxCell>
                <mxCell id="19" value="KVG SFTP server" style="text;html=1;strokeColor=none;fillColor=none;align=center;verticalAlign=middle;whiteSpace=wrap;rounded=0;" parent="1" vertex="1">
                    <mxGeometry x="600" y="160" width="80" height="40" as="geometry"/>
                </mxCell>
                <mxCell id="67" value="" style="image;aspect=fixed;html=1;points=[];align=center;fontSize=12;image=img/lib/azure2/databases/Elastic_Job_Agents.svg;" parent="1" vertex="1">
                    <mxGeometry x="376.2" y="830" width="64" height="64" as="geometry"/>
                </mxCell>
                <mxCell id="68" value="" style="image;aspect=fixed;html=1;points=[];align=center;fontSize=12;image=img/lib/azure2/identity/Users.svg;" parent="1" vertex="1">
                    <mxGeometry x="-235" y="102.25" width="39" height="42.66" as="geometry"/>
                </mxCell>
                <mxCell id="69" value="" style="aspect=fixed;sketch=0;html=1;dashed=0;whitespace=wrap;verticalLabelPosition=bottom;verticalAlign=top;fillColor=#2875E2;strokeColor=#ffffff;points=[[0.005,0.63,0],[0.1,0.2,0],[0.9,0.2,0],[0.5,0,0],[0.995,0.63,0],[0.72,0.99,0],[0.5,1,0],[0.28,0.99,0]];shape=mxgraph.kubernetes.icon2;kubernetesLabel=1;prIcon=api" parent="1" vertex="1">
                    <mxGeometry x="210" y="668" width="124.99" height="120" as="geometry"/>
                </mxCell>
                <mxCell id="70" value="" style="outlineConnect=0;dashed=0;verticalLabelPosition=bottom;verticalAlign=top;align=center;html=1;shape=mxgraph.aws3.lightsail;fillColor=#F58534;gradientColor=none;" parent="1" vertex="1">
                    <mxGeometry x="500" y="690" width="96.5" height="104.07" as="geometry"/>
                </mxCell>
                <mxCell id="71" value="" style="endArrow=classic;html=1;rounded=0;" parent="1" edge="1">
                    <mxGeometry width="50" height="50" relative="1" as="geometry">
                        <mxPoint x="124" y="734.04" as="sourcePoint"/>
                        <mxPoint x="194" y="734.34" as="targetPoint"/>
                    </mxGeometry>
                </mxCell>
                <mxCell id="72" value="" style="endArrow=classic;html=1;rounded=0;" parent="1" edge="1">
                    <mxGeometry width="50" height="50" relative="1" as="geometry">
                        <mxPoint x="194" y="749.34" as="sourcePoint"/>
                        <mxPoint x="124" y="749.34" as="targetPoint"/>
                    </mxGeometry>
                </mxCell>
                <mxCell id="73" value="" style="group;rotation=-40;" parent="1" connectable="0" vertex="1">
                    <mxGeometry x="320" y="660" width="70" height="15.300000000000011" as="geometry"/>
                </mxCell>
                <mxCell id="74" value="" style="endArrow=classic;html=1;rounded=0;" parent="73" edge="1">
                    <mxGeometry width="50" height="50" relative="1" as="geometry">
                        <mxPoint x="3" y="24" as="sourcePoint"/>
                        <mxPoint x="57" y="-20" as="targetPoint"/>
                    </mxGeometry>
                </mxCell>
                <mxCell id="75" value="" style="endArrow=classic;html=1;rounded=0;" parent="73" edge="1">
                    <mxGeometry width="50" height="50" relative="1" as="geometry">
                        <mxPoint x="67" y="-9" as="sourcePoint"/>
                        <mxPoint x="13" y="36" as="targetPoint"/>
                    </mxGeometry>
                </mxCell>
                <mxCell id="76" value="" style="group;rotation=-45;" parent="1" connectable="0" vertex="1">
                    <mxGeometry x="596.5" y="674.7" width="70" height="15.300000000000011" as="geometry"/>
                </mxCell>
                <mxCell id="77" value="" style="endArrow=classic;html=1;rounded=0;" parent="76" edge="1">
                    <mxGeometry width="50" height="50" relative="1" as="geometry">
                        <mxPoint x="5" y="27" as="sourcePoint"/>
                        <mxPoint x="55" y="-23" as="targetPoint"/>
                    </mxGeometry>
                </mxCell>
                <mxCell id="78" value="" style="endArrow=classic;html=1;rounded=0;" parent="76" edge="1">
                    <mxGeometry width="50" height="50" relative="1" as="geometry">
                        <mxPoint x="65" y="-12" as="sourcePoint"/>
                        <mxPoint x="16" y="38" as="targetPoint"/>
                    </mxGeometry>
                </mxCell>
                <mxCell id="79" value="Script" style="html=1;whiteSpace=wrap;strokeColor=none;fillColor=#0079D6;labelPosition=center;verticalLabelPosition=middle;verticalAlign=top;align=center;fontSize=12;outlineConnect=0;spacingTop=-6;fontColor=#FFFFFF;sketch=0;shape=mxgraph.sitemap.script;" parent="1" vertex="1">
                    <mxGeometry x="640" y="570" width="120" height="70" as="geometry"/>
                </mxCell>
                <mxCell id="80" value="" style="group;rotation=40;" parent="1" connectable="0" vertex="1">
                    <mxGeometry x="310" y="798.7" width="70" height="15.300000000000011" as="geometry"/>
                </mxCell>
                <mxCell id="81" value="" style="endArrow=classic;html=1;rounded=0;" parent="80" edge="1">
                    <mxGeometry width="50" height="50" relative="1" as="geometry">
                        <mxPoint x="13" y="-21" as="sourcePoint"/>
                        <mxPoint x="67" y="25" as="targetPoint"/>
                    </mxGeometry>
                </mxCell>
                <mxCell id="82" value="" style="endArrow=classic;html=1;rounded=0;" parent="80" edge="1">
                    <mxGeometry width="50" height="50" relative="1" as="geometry">
                        <mxPoint x="57" y="36" as="sourcePoint"/>
                        <mxPoint x="3" y="-9" as="targetPoint"/>
                    </mxGeometry>
                </mxCell>
                <mxCell id="83" value="" style="endArrow=classic;html=1;rounded=0;" parent="1" edge="1">
                    <mxGeometry width="50" height="50" relative="1" as="geometry">
                        <mxPoint x="450" y="610" as="sourcePoint"/>
                        <mxPoint x="630" y="610" as="targetPoint"/>
                    </mxGeometry>
                </mxCell>
                <mxCell id="84" value="" style="group;rotation=-39;" parent="1" connectable="0" vertex="1">
                    <mxGeometry x="450" y="810" width="70" height="15.300000000000011" as="geometry"/>
                </mxCell>
                <mxCell id="85" value="" style="endArrow=classic;html=1;rounded=0;" parent="84" edge="1">
                    <mxGeometry width="50" height="50" relative="1" as="geometry">
                        <mxPoint x="3" y="24" as="sourcePoint"/>
                        <mxPoint x="58" y="-20" as="targetPoint"/>
                    </mxGeometry>
                </mxCell>
                <mxCell id="86" value="" style="endArrow=classic;html=1;rounded=0;" parent="84" edge="1">
                    <mxGeometry width="50" height="50" relative="1" as="geometry">
                        <mxPoint x="67" y="-9" as="sourcePoint"/>
                        <mxPoint x="13" y="36" as="targetPoint"/>
                    </mxGeometry>
                </mxCell>
                <mxCell id="87" value="" style="group;rotation=40;" parent="1" connectable="0" vertex="1">
                    <mxGeometry x="450" y="659.4" width="70" height="15.300000000000011" as="geometry"/>
                </mxCell>
                <mxCell id="88" value="" style="endArrow=classic;html=1;rounded=0;" parent="87" edge="1">
                    <mxGeometry width="50" height="50" relative="1" as="geometry">
                        <mxPoint x="13" y="-21" as="sourcePoint"/>
                        <mxPoint x="67" y="25" as="targetPoint"/>
                    </mxGeometry>
                </mxCell>
                <mxCell id="89" value="" style="endArrow=classic;html=1;rounded=0;" parent="87" edge="1">
                    <mxGeometry width="50" height="50" relative="1" as="geometry">
                        <mxPoint x="57" y="36" as="sourcePoint"/>
                        <mxPoint x="3" y="-9" as="targetPoint"/>
                    </mxGeometry>
                </mxCell>
                <mxCell id="90" value="" style="endArrow=classic;html=1;rounded=0;" parent="1" edge="1">
                    <mxGeometry width="50" height="50" relative="1" as="geometry">
                        <mxPoint x="630" y="600" as="sourcePoint"/>
                        <mxPoint x="450" y="600" as="targetPoint"/>
                    </mxGeometry>
                </mxCell>
                <mxCell id="91" value="Fetch/Post Data" style="text;html=1;align=center;verticalAlign=middle;whiteSpace=wrap;rounded=0;fontSize=9;" parent="1" vertex="1">
                    <mxGeometry x="110" y="703.7" width="100" height="30" as="geometry"/>
                </mxCell>
                <mxCell id="92" value="UI Application" style="text;html=1;align=center;verticalAlign=middle;whiteSpace=wrap;rounded=0;fontSize=9;" parent="1" vertex="1">
                    <mxGeometry x="24.5" y="650.3" width="100" height="30" as="geometry"/>
                </mxCell>
                <mxCell id="93" value="Public API" style="text;html=1;align=center;verticalAlign=middle;whiteSpace=wrap;rounded=0;fontSize=9;" parent="1" vertex="1">
                    <mxGeometry x="222.49" y="638" width="100" height="30" as="geometry"/>
                </mxCell>
                <mxCell id="94" value="Database" style="text;html=1;align=center;verticalAlign=middle;whiteSpace=wrap;rounded=0;fontSize=9;" parent="1" vertex="1">
                    <mxGeometry x="364.6" y="540" width="100" height="30" as="geometry"/>
                </mxCell>
                <mxCell id="95" value="Queue Manager" style="text;html=1;align=center;verticalAlign=middle;whiteSpace=wrap;rounded=0;fontSize=9;" parent="1" vertex="1">
                    <mxGeometry x="362.59999999999997" y="900" width="100" height="30" as="geometry"/>
                </mxCell>
                <mxCell id="96" value="Request calculation when a job is scheduled&lt;br&gt;//&lt;br&gt;Notified when Job&lt;br&gt;is done" style="text;html=1;align=center;verticalAlign=middle;whiteSpace=wrap;rounded=0;fontSize=9;" parent="1" vertex="1">
                    <mxGeometry x="490" y="860" width="90" height="30" as="geometry"/>
                </mxCell>
                <mxCell id="97" value="Call R-script&lt;br&gt;Receive success/error" style="text;html=1;align=center;verticalAlign=middle;whiteSpace=wrap;rounded=0;fontSize=9;" parent="1" vertex="1">
                    <mxGeometry x="650" y="680.7" width="100" height="30" as="geometry"/>
                </mxCell>
                <mxCell id="98" value="Access Data" style="text;html=1;align=center;verticalAlign=middle;whiteSpace=wrap;rounded=0;fontSize=9;" parent="1" vertex="1">
                    <mxGeometry x="480" y="564" width="100" height="30" as="geometry"/>
                </mxCell>
                <mxCell id="99" value="Access Data" style="text;html=1;align=center;verticalAlign=middle;whiteSpace=wrap;rounded=0;fontSize=9;" parent="1" vertex="1">
                    <mxGeometry x="365" y="660" width="100" height="30" as="geometry"/>
                </mxCell>
                <mxCell id="100" value="" style="shape=image;imageAspect=0;aspect=fixed;verticalLabelPosition=bottom;verticalAlign=top;image=data:image/png,iVBORw0KGgoAAAANSUhEUgAAAm0AAAJYCAYAAAAwvNGgAAAABGdBTUEAALGPC/xhBQAAACBjSFJNAAB6JgAAgIQAAPoAAACA6AAAdTAAAOpgAAA6mAAAF3CculE8AAAABmJLR0QA/wD/AP+gvaeTAAAAB3RJTUUH6AcIAyY11nw+7gAAbKlJREFUeNrt3XecFPX5B/DPM7tXAAUUVES4rQcYFAtYYstFI4qwe6CeKSYxJhFjjFETWxKNxFRLjJryi1ij0SReFG6XYoiF2AtgQRS4rQciIkQ6t7e78/z+AI2FgytbZmY/71d8Ge9uZ77zfL8785kOEBEREREREREREREREREREREREREREREREREREREREREREREREREREREREREREfXWktFN1YppBitBRB8QloCIqDyS3tAoGMZnRXQ0BCMBBKHYD8AeAKp2/NkmABsBbACwCoplIngNos/VxaJvCqCsJBFDGxERFdCKYU17m7WZ01QRBvB5AIN7Ocm1AsxWRSRrZGfXx+ZmWGUihjYiIuqlZCD0DYH8EUDfIkx+nQJ/NdX8YyAxq5XVJmJoIyKiXkgHGz9jqv5dgIOLNIu8Ag+riV/6k5HXWXEihjYiIuqhVUNDfTv6GA8AOrmIszEhuNdw4Zq6ZZFVrDoRQxsREfWAosmV9nfcBtHvFnlWmxV6kS8evZdVJ2JoIyKiHkoHQ79WlatKsLZ/oN2FC0Yti2xi1YkY2oiIqAeSgfAtAlxc7Pko0GqITvHEoktYdSL74YMbiYjKzBs//AcQebgEe+n1qvJcWzAcLsVypf2h47Shwc0eJirYd5iIiMpt6cjwnrV5vATFqBLMTgFc7o1HflusGSwZ3VTdrz2zBcAGQGeIGv+oSxz2hGCayd4mYmgjIrK1tsDEg0y4XkRxnuP26eQmcr031vKjYrxVYUUgHMwDrZ/Y4KwwRe8RF+71Losm2eNE3cPTo0REFlEXn/2Gilxdsr121SvTgfDtWoQd+Jxh7PGpkAgMF5WfIiexVCA8JxkMfY69TsTQRkRkS95hG34P4JUSzvK8VCD8m0JPVHOmuZttzwRRmZ8KhJ9PBkKTlWd+iBjaiIjsRObPz5mm8R2U8EXwAlyRDDZeWtBpuqVPF//0aIHMSAfCz7T5Q0dwBBAxtBER2YY/OfMlASIlDYuqv00GwqcWbHp5DOrmR44xRV5IB8L3to0MD+UoIGJoIyKyx8pZ5RoApbzTUgT4S8IX3q8QE1PRfXq02MA5Zg6JZCB8O8MbEUMbEZHlDU+0LAbwrxLPdl/DwP8VKALu3YtP1wgw1cyhNRkIX79qaKgvRwQRQxsRkWWp6O1lmO2UZCA0udeZDTq2AG3pK8AVHX1kMe80JWJoIyKyLO+wTbMBrCz1fAX4lWJaj7cPiiYXFKcUsEl+UXkiFQjftGJYUx+ODGJoIyIiS5H583NQPFSGOR+4IrhoUk8/nQ50HAVgcBG2Vz/M12QWJ+rDJ3B0EEMbERFZK7hBZ5RjvqbiO7349GlFbFrAMPFEMhC+PultqOUIIYY2IiKyhLrE2OcArCnDrE9K103cq4dR88wit80lwBXi6r8w4Zt8JEcJMbQREVHZ7XjB+jNlmHW1WWV0++L/hG/SIQBGlqiNnzEM89lksPE3rcEJNRwtxNBGRETlDW6qL5VnxsbR3d6oGMaZJW6lW1SvrNLqBalg6HCOFmJoIyKislHBy2XJbKYGutXOhgY3gK+WqUoHQeX5VCD8Q77HlBjaiIioPHEk70qUZcaCbr2RoG3FgK8A8JaxVNUAbmoLhOcW6s0ORAxtRETUZVv7Va1CaV9p9dEQ1LVgCYhCr7BEyAVOMQwsTvtDkzh6iKGNiIhKZvSS5g4A75ch/Kzq6t+2BRvPADDaQmXbR0UiKX/o5gVjp1ZxFBFDGxERlUqpj7RtcwM/7Mofxv1NA6B6swVrJhC5dPD61c+lRoZ8HELE0EZERI4LbQK5ang8EuvK37qMzM0KDLdw7cYhJy+n/I2ncRgRQxsRERWblnBGt3riLbd15W9TgdAEKM61Qf0GQXRW2h/+1Y67XIkY2oiIyNbJ8D5v/PAfdOVvk97ThgByN+zziA1RwY/SK/r/a+nI8J7sbWJoIyKiYuhf/MCmt3njh5+74y0Mu/nbaQbc7vsADLFhLU+szeHJlaOmDOKwIjvhAwiJiCwu7m8a4JLM+iLOIgeRS7yxlj929QPJYHiaKK61dWEVr2aN7Pj62Nz3OMrIDnikjYjI4lyu3NAiTn6tqEzoTmBL+cNni+Ia2xdWcGgVqp5aMWLSARxlxNBGRES9zxa5/LCiTFjxolvch3kSLY919SPpYOOZENzjmO2HYlTeNB5bNSI0mCONGNqIiKh3ucKlRxR6kiK4ZUufmhOGxR5Z2dUPJf2hL6vq3wE462G1ilEdOZm1esz4fhxtxNBGRES9iVjHFHBqG0XwRU8scumONy10SToYbhKRuwG4HFljwVHtW2oe4uNAiKGNiIh6ZMHYqVUQ/WxBconoS5o3DvHEIs1dzouYZqQCjb9UxT8A1Dq72nJa24oBdyhv0iOGNiIi6q7B768eD5W9ezkZFcEtm2tqj/elZqa6+qGU5/T92wKL5gD6Y1RIkFHoN9qCoV9x5JEV8TAwEZGVCb7ayylsAuQcT6xlRnc+lPKHzoDk/qxAxV2grypXpQON73T1rRBEpVsdEBGRJa0Mnj4sp7k4gOoeTiJmID+lLj77jS6HNc/p+8Odvx7Qr1V4+VVEz/HEovdzJJJV8PQoEZFFZTV3WS8C26OaN47oamDbfu1a+Htw55YysAEARFXuTAVCJ7IUZJlByRIQEVlP28jwUDOHVgB9exA37vEM2zRV5s/PdeXPk/WTDzU0f7uqHMnKf8q6vOrhgUS0jaWgcuORNiIiC9IcrulJYFPobZ5Y9FtdCWyrhob6JoPhaWKaLzGwdWqQ20DzktFN1SwFMbQREdHHpEdM9Cvwre7mNVFc4otHLxZAdzuPYGOoo4+8teP9oVWs+i4Kq3Jkv/aOX7ISxNBGREQfDwmm6yfdD1J6hScRuXV3f9UanNA/HWi8R1UjAOpY7S7X94fpYGOIdaBy4jVtREQWkhoZ8iEny7oT2kTlWk+i5brd/d2KQDiYh0YAOZCV7pG1hhuH1C2LrGIpqBx4pI2IyEpycgG6d5Ttt10JbOlgYygPvMTA1iuDNYe7+cYEYmgjIqpwSW9DLYBzu/r3AvzLEz/8it1O1994laq2ANiLVe4dBU5p84e/z0oQQxsRUQUTY8Dp6PobCFKuKtfZgmnmLgKGpAKNN4ror8GjQ4ULboLfpIOh0awEMbQREVVsauvyQ23bIXrGsKUz1u0qsKX94d8DehkLW3C1qvIXRZOLpSCGNiKiCpPynL4/gJO79td6jTcWXbSrv0gHwj+D4EJWtmjGpvyZ81gGYmgjIqo0VbkvA9jtkRsFFq8duP+tuw5sjV8HcA2LWlxi6C9XjpoyiJUghjYiogqiisld+TMDuGDcwunZzv4gWd94lEKns6Kl6DTZO5vN/4qFIIY2IqIKsWR0U7UA43YfEnC3Jx55trNfrxndtIeY+iCAGla1NAT4dps/PI6VIIY2IqIK0Lej4zAAfXbzZ+1GFX66qz/Y1t5+EwA/K1ra7agCv2UZiKGNiKgCiOqxXfirO3b1JP5UIHSiQqaymqWnghOSgdBkVoIY2oiIHL/V1929pUBd0Ns6++XqMeP7AXIH+Cy28gVvyE1LRjdVsxLE0EZE5OxN/v67+YN/DY9HYp39sn1z7fXgadFyC+zR3n4+y0AMbUREzjZ0l5FO5K7OfrcyePowCPi8MAtQyDWrhob6shLE0EZEVJmhbXPVVnNOZ7/Mau4yADwtZw37ZGrB6wqJoY2IyME6fUSHAnOGropu3dnvWoMT9hHwKJuViMhlrcEJfOQKMbQRETlUR+chQOd19rsquM8DwNNx1nKAW6u/wTIQQxsRkTN1+oYDzbke3+nPAYHKuSyd9Qj0Cm1ocLMSxNBGROQ02umRtrd9qZmpnf0iHQwdBiDI4lmSP922ZyPLQAxtREROy2yClZ386tXOc56EWTkLE3yPRaBC4+FbIgdbMaypj2lsrQWAqlrDlW0385/8m45qc2t9bG6G1Srn3rPEFXr8Trb8r3WaCUycykfpWjq1NbQFJh5UF5/9BmtBDG1EzgxZe2erMvu4DAw2RQfDNPY2oP1VsCeA/goMADBQ8OF/9xegH0QHQuWDTfieH3y388gAcG0PZ3kAVa5PzbNKXUgFwgCgANZj+/VVmwFsA9AOYCMgGwRYD9H1MLEewHpTsN4Q+a8J8z3TxKrqjtr3hq9s3sZe7D4Fdv7gXNX4zn68ctSUQbls/ghWzur96roQwAWsBDG0EdnIylFTBnVk8gcYguEqMgxiDjVUPAocAMgQQAcDGJxHxm3sSE+iAohCP7rv/sl9+Q+3DgU55CIA9trx//f95OZHP4h18r8/VlUIBC4B8jUZpALhzQq8I8AagbRCNWVC2tQw33bBWLnNpStGLYts4oj4ROEFy1R31iFmemd/n83mTxZe3mKHMP7V1uCEK+tjczeyGsTQRmSxYJbN5eoNoF5VRmD7ReL1AOpz2Xx/w/hgQ6yAykfCmDqpDHvIjmVW6LGQ7csrKlAoanNAKhDeCGCFqiYMQ+JQTagacVM1nndlU5V4qjarxlNu5PWTuTyHqhWdfOTz/MbZ4/vgVvfpAO5lKYihjajEkt7JA12GGcxD6w0Y9WroCIHWKxDMZfN7C8RZEaw4+gMYLSKjtx9d2n5E0RDA0CozFWhcIdClELwFxVtiyltGjfHmsKUz1jm1IMH4jDWpYPh1KA756M9VsL6TjxzIYWQTIl9haCOGNqIiWjK6qbrP1m0HulzGwabiYAHGADgYMA8wAWwPZ4rt/+PV4AVkAOpRwAPFKQCghsLM5pEKhNcC+oYCr0ONV8UwX9tSU/vG6CXNHY5YchOPQz4e2lz593d6Wk2AURwqNslsihNTntP396YfeYfVoF6PJ5aAKt2CsVOr9n1/9SGmoUeKGkeY0LE7NopVrI7lZQG8pcCrBmShivmMJ1b7mqA5b7cFSQYnN4iaT3502bzxyKfeKdoanLBPlVatYdfbh6pe6ktEb2EliKGNqJvSIyb6YRrHqhpHQPVICA7FLt79SLazEcBzgDxjGvq0ZDe+5EvNb7f8hh2QdCC8HP97YO5OQ1s6MHmswlzAbrZRaANe9sUjR7IS1Fs8PUoOX1k2uVL12YMNM388gGMVcrzmMfR/m0nWyIH6AzgV0FMNE4CrfyYVCC8Q0afVlGfyqHkmkGjeYME9aE2q3CWiv97xo53eHSqm9lXeN2orAoxLjQz5vMuiSVaDGNqI/rdHK0nfpDGGyzgJii+kkTlWTPTndWcVrQbAsapyLARwIZNPBcKvieApEzrf3V779PCVzf+1REvN7L1wua/D9lPzhgIin7i9OO9CX+HdLvbLbTk5E8CNLAX1cgeAyN7i/lCdC/IFCL4A4CR86hljRLuOSgosEch8ETyVVeOpYHxG2a4ZSwXDf4JufyBruxv9P/lcu1SgcQqgj7DbbLaxFX3JE4sexUoQQxtVnAVjp1YNev+dMyFyqQB8MjwVkkLwOlT+LabOM7I1z5TyTQ8pz+n7w52LAeibV/UEEtG2j/4+HWw8U1Wb2U32G1eaN/y+1MwUS0E9xSsjyFbSdRP3SvtDVw5evzohIg8ysFFRdmYVhwB6mRqYl6/JrEsGw/NSgdBlCd+kQ4p9JaQ3/cg7orgVAER1r09t+U3lq8JsOq4Ml4ZZBuoNXtNGthD3T6p3wXWJQs+BoB8rQiXURxQnA3KyYQjSgfC7acjcvKH3+FojT0sxXmmRy9+IKteF4nINAfCxl8aLGKsVJnvFhhTaAOA2VoJ6vkdJZGHpQPhYhVwGaBg8MkyW2wijFSp3u6r0vrplkVWFnHYy2PgbKJK+eMvtH/tOjJjo17wrzurb0jpP/PB9BdOYuqlHuBEkC24Ipxkpf+iMVKDxOQWeAXQyxypZdK+3XkR/beaQTvpDkWQw1KgNDYU5g5GT3xiqtZ/6ca7vOlbetgYlfYsOYhmoF+scImtYPWZ8v21b+0wV1QsBBFgRsutQVuA+NXG3PxlZ1psJpesm7uVpm/3+J3+eCoRXAjiApbbjRlcu9sRbeIqUGNrIvmGtfUvNBYBcDj6ug5zlGYXe1adfpnnI6/O2FGqiqUB4DoAJLK8tNXvjkbNYBuoJnnKison7mwakAqHL2rfUJgC5kYGNHOg4gdzTvqV2VTIQvj1Z31iQ53Sp6MssrU0pxrEI1FM80kYll66buJdWGT8E5PsA9mRFqMJWu2+omnfVuPHXocuja3v0HfKHJqlIlLW0Z2xzZWoGW+YtHMTQRrQzq8eM75fZXPM9FbkSwF6sCFW4DgjmCXBf3bCNM2T+/FxXPxgLTNnXjfy7LKFNN7wqJ3sSLY+xEsTQRpazamiob0cfuQDAlQD2YUWIPrUiXmGK3oOc656uPjE/FWhcDCjvRLQhVfmRL9HyG1aCuosP16Wi2X6DQe13OoArwOvViDrfiAPDReWncJlXpwLhJxS4KyfZGfWxuZlOg56iWQUMbTZkiHkoq0A93MEjKvQGqMnVFsh8U4HrAAxhRYh6snbW/6rir2rq3f7krNc++etU/ZQDYebfZKFsaYE3HuEr+IihjcorGZzcIDBv2f7uRiIq1EZeFXebqHkwkGje8GFwC4RfAzCG5bGddd54ZDDLQAxtVBaxQONwN/BLQL/GahAVTTuAqKhMr0u0PN4WDH1VVe5jWewnrzUDPxrAiRjaqOiWjG6q7teeuRLAjwHUsiJEpdtXAnAfgIsBDGI5bLf1Pdwbi7zCQlB38EYE6rFEffgEo739z4AcyGoQlVwQ268bJTtS8QJgaCOGNiquNaOb9tjSnvmtmDgPEB6tJSLqJoE5jFUghjYqqoRv8pFb2jN/FaCe1SAi6hlTjANYBWJoo6JYMHZq1eD1q38KmFdx3BAR9Y5AeaSNGNqo8OL+UJ1r/eoHARzLahARFYAqj7RRtxksAe1Kyh86wyXyGgMbEVEhyVDWgBjaqDA7gYCkAuFrINIMYCArQkRUUHuxBNRdPD1Kn7JmdNMe6UzHvVA9g9UgIiqKASwBdRcf10AfkwyGjhaV+7H9GVBERFQkmt/Yx5ea385KUFfx9Ch9KB0MN4nKkwxsRETFl3P32ZNVIIY26rakP3SJKv4BvoqKiKgk+qBPDatADG3ULalA+GoRuRk8XU5EVDJ5I1PNKlB38EaECqaApAONNwB6GatBRFTidbBW80gbMbRRF1YWDQ3u1Ir+fxToVFaDiKj08nnkWQViaKPdBrb0igF3C/RrrAYRUXnUGLKVVSCGNurUktFN1em2zAMQPZPVICIq4w50u4uhjRjaaOeS3oZaY1tHiwrGsxpERGW3jSWg7uDdoxViwdipVeLa82EVZWAjIio/c9jKZj5Ylxja6OMUTa591r9zPyCnsRpERJawQQBlGYihjT60YOzUqrQ/c69CvshqEBFZxjqWgLqL17Q5WGtwQk31+tUtKjiF1SAishJ5jzWg7uKRNodSNLmqzKq/KhjYiIist45WhjZiaCNAMc1IBzN/gYCP9SAisiARtezp0bQ/dGXS28D3UDO0USmkgq/8CoqzWQkiIqvuXRvvWLVppsgx4trz4SWjm/huVIY2KuoeUqDx+6J6JStBRGRhgqR1m6b9ATmtX3vHPxaMnVrFzmJooyJI+cPfVOgtrAQRkcUzm5lPWrh1/bf/WycP3vDu37ShgTctMrRRIaWDoa9BcAcAYTWIiCzOrRYObej/4f9TPSO1ov9dimnMCwxtVKDAdpaq3MP+JCKyhfx7ex6wwsLt2+uj/yHA19uCi37Lbis/HpWxuZQ/dAZE/g4+c4+IyC4S3ngkYMWGtQYn9K/Sqg07/61e7o1Hb2L3lQ+PzNg5sAVCEyDyAAMbEZF9qOoSq7atClW7CJNyQzIQPoc9yNBG3ZQMhE8FZAaAGlaDiMhGG14Dlg1tAtnVEUAR4I5ksJEPbWdoo65KBUITBJjJwEZEZEdi2dAG09zdadsqUW1OBcOHsR8Z2mh3gc3f+BVAGNiIiGxKYd0jbSrSlWvt9oQi2jYyPJS9ydBGnUj6Q5dA9H4AfEo1EZE9dWhu41sWbt+BXfy7A8wcWlYMa+rDLmVoo4/vlUkyGJ4mIr9jnxER2doCX2p+uwNCGwCMy9d23K98EgVDG23XGpxQkw40/kUU17IaRES23wl/xqptS/jC+wEY1L0F0jNSwdA09ixDW8VbOWrKoCqt+hegX2M1iIgcsNEVsWxoE5dxYI8+p3LN9uutiaGtQrUFJh6Uy+YXAPgcq0FE5AjqchvPWTa0QUf3+KOid7b5w+PYxQxtFSftD00y4XoOgJfVICJyjMXDls5YZ9lEqXpCLz7exxT556oRocHsZoa2ytgFa2hwJ4PhaSrSAmBPVoSIyEHreJG5lm3b9gfn9vLMjno68vIPRZOLvc3Q5mhxf6guvaL//B03HLBfiIgcx7RsaEv6wgcD2K8AkzqxzZ/5Ofuaoc2xUoHGKS6RVwEcy2oQETnSxnUD9rfu9WyiJxZqWiq4Kh1sPJNdztDmKHF/04BkIHw7oI8A2IsVISJyKMW8cQunZy3bPpHPF3Jqqnp3Otj4GXY8Q5sjpP2hSS7JvCnAVFaDiMjZRCRq3TzZ5BLghAJPdk9VbV49Znw/9n7huFmC0or7mwYYkrlBGdaIiCpFe06rW6zauBX+9sMBGViESX+mfWvN7wF8k0OgMHikrWR7MpB0oPHrLsks49E1IqKK2gDMCiSaN1h4+3Ri8SYu56aDIT4gnqHNPpLe0Kh0IDxPoX9BYe7OISIi+/ibpVtX2OvZPp3bVP6U9IZGcRgUoKtYguJJ103cy6xyXSvAheCpaCKiSrRR8xv3s+pL4pPehlox+q+FoNjXni3KSvaY+tjcDIdEzzFIFEFrcEL/arP6EhW9VICBrAgRUaXSh6wa2ABAjP6nlSCwAcDhbnXfAOBijome4+nRAlo9Zny/tD98cZVWLVfRn4GBjYiooglcf7Z2CpCvlK4WclEyEJrMUdGbGlKvJXzh/cSFC0TxXQD7sCJERARgkTceGWvVxrUGJ/Sv0qp3AdSWLnXof12Gjhm+fNbbHB7dx9OjvRD3TxlhSO5CAc6Dog8rQkREH+YTwNJH2dxm9RkQrS3pTFX2zuflXgXGC6AcJQxtRbVkdFP1HplMo6qcD+RP4sFKIiLaiU19amssfdeoCM4u06y/kA6EL0Q88gcOk27vCFBXxP2T6g3D9S1RPRfAvqwIERF1SnGzNxH5oVWblxoZ8iEnMZTv2vZ2ER3niUWXcLB0HY+07cKqEaHBmbxxhkC/DOAEqDLkEhHR7mTz0Fut3EDJynkqZb0ZsdZUuUcbGo6R+fNzHDIMbT2S9E4eCFd+skC+2JHHFwTKGhERUXci0d8DiUibVVu3YOzUKl2/+tyyVwk4IrWy/9UApnHMdLlmlW31mPH9Mpv7fNY09DhRHIvtL82t5tAgIqKeUMM4zNc681Wrti/lD50BkX9apDk5NeQ4X2vLixw5DG2f/jKhyZWq7xgH1Qli4lQIxgFwcSgQEVEBtjJzvPHoRCu3MBVofAzQkyzUpGWuTM1hw1c2b+P42bWKOPWXGhnyadZoENGT08iMFxODKjOyEhFRMRObwPVTKzewzR8eZ1orsAHAyHxNx3UALucQ2jXHxRZtaHC3rdxzJNQYq2I2QOXzALzsaiIiKu4WVR72xlrOtHITU4HwQwCaLNi0vKH62bpE9GUOJIeFtlVDQ307+hiHQswDoeIFdAgg+wPwAfCjlE93JiIiAvIiMsYTa3nTqg2M+yfVu8R4Cxa9JEiBxVtra8aNXtLcweG0c7Y4PaoNDe7Uiv5fgEiDqB7fARwBaBU+fAIHz3MSEVH5CPBXKwc2ADDEuAwWvoZbgIP32NZxFYDrOKI6rZF1rfA3HpyHfgPbn9q8H7uLiIgsaGte9cBAImrZx3wkfKd5DMO9HNZ/OkJGRMfyobs7Z7kjbYppRjrwSiOgl+Whx7CLiIjIylTwi0DcuoENAAxxXwN7PM6qRk25S9F0rKA5z9H1cZY50qYNDe62Ff3PVeAyACPYNUREZAPLttTWjLHydVg7rmV7EzZ6YoSK/MAXa/kdh9cnwrcVGpEKhg5Pr+j/kgLTGdiIiMguROV7Vr9w3mUY18Jmj/gS1V+kRoZ8HGEfV9ZO3H4XqFwHxcXgK7WIiMhGFHjIm2h5zMptXOFvPDiv+mUblrcvcvJ7AJM40v6nbEfaVgTCwY4+8jyAHzKwERGRzWxyu8wfWL2RedFbYZGzaj0wMRkITeZQK3NoSwfCx+aBlwGMYRcQEZEN/Wz48llvW7mBKX/jVwB83s5FFsitq8eM78fhVqbQ1hYMhxWYB2Agy09ERDa0ZO3AIbdZuYFLR4b3hOiNDqh13batfa7hkCtDaEsHwleYihkA+rL0RERkUxeNWzg9a+UG1uZwLYChTii2qP4gHWz8DIddCUNbKhC+ToHrYd9z60REVOEUeps3HnnSym1MBcOHAfi+g8peZar+Wfn6o9IEqGQw9DMAPLxJRER2tiAnuSus3MAlo5uqVfEXAFVOKrwAx7cFQ19laCuydCB8nqj8lN91IiKysfXiyn+xPjY3Y+VG9mvPXCPAwU7sAFW5MemdPJChrXiB7VgF/sDvOhER2Tsx4Fue5bMTVm5isn7yoQCudHAv7Ge4zWsreRgW7fxwLDBlXzfyr4MveiciIntvKm/yxlsut3ILVwxr6pOvybwMYLTDOyNrmjjYn4wsq8SRWLQjbW6YtzOwERGRreOayjxPvPoqq7czX5v5bQUENgCoEmc8ysQ6oS0ZaPwioJP5dSciIhtLVbnNswXNeUs3MtA4BYoLKiZIi4QSwdD4ityJKPQE4/6mAS7JvAmHPB+GiIgq0maXyjHDEy2LrdzIWKBxuFvMV6GydyV1jgKLvfGaw6weqAut4EfaXMj8loGNiIhsLGcIzrZ6YFswdmqVC/pApQU2ABDg4JQ/c16lLXdBQ1sqEDoRgm/y+05ERDalELmgLhaJWL2hg9a/c5MAx1dqR4nguri/aQBDW49G+TQDkBvBJxYTEZF9o8A13ljLnVZvZcofPlsg36/wztrHJZmfVNToLNSE0sHQWaryD37hiYjIllT+5E20XGj5wBYMHwbFswD6sNOQMcQYXRebGa+EhS3YkTZT5TKOHSIisiXB3Z7EYRdZvZlJ72lDoDKDge1DNaaav6icYVqI1B9oPAbQZzl2iIjIfhtCvb0uPva7gmmmldvZGpzQv0qr5gM4jL32MSYE47yxyCtOX1CjMAMe53HMEBERA1txLBg7tararG5mYOskyyh+WRnjtZdWjxnfr31z7bsQ9OO4ISIi21D9nScR/aEAaulmYpqRDix6AMCX2GmdMw18zt8aecrZ6bSXtm2pDTGwERGRrfKa4GfeRPQH1g9skLR/0W0MbF0INCZ+7fhlLMA0vsyhQkREdslrAC7zxSLT7NDYVLDx1xBcyG7rkmPSwcYQQ1snkt7JAwU4heOEiIhsIA+Rqd545Ld2aGzaH/6VqF7JbutGIlf8avtzYxnaPkUM80QANRwmRERkcZtEZIodHpz7QWBTwY/Ybd2ObQe1BRd9haFtZ6Ux5EgOECIisriVEG3wxFqilo8caHKlAuHfM7D1ooaKny8Z3VTN0PYJonoEhwcREVk3BOHprGQP98aii6ze1jWjm/ZIB9ojAL7HnusVb99tGUe+B93o+RehyQVgLMcGERFZM7HJn7bW1nyhPjb3Pas3dcWISQds3ZZ5GpDT2HG9JyJXLRg7tcppy+Xu6QeTvm0HGTAGcGgQEZHFrBeR8zzxln/aobHJ+smH5vPmLAgOYNcVLLF7Bm945+sA7nLSUvX4SJshRoCDgoiILLWpBl42xBjnidkjsKV94ZPFNP8DMLAVfjDIj7Whwe2kRerF6VGt44ggIiKLyKvI9esGDjm2LjYzbovAFgifpwbmAOjP7isKf9uKAY66k7THCdQwsJ8qRwQREZWZImmonFOXbHnaHs2dZrQFF/5SFVex84pda/2xoukBQXPeCcvT4yNtpspQDgciIirzVvmu9iocYpfAlvCF90sFFz2qKgxspTEyFcg0OWVhehzaBAhyLBARUXlIWlRD3kTk26OWRTbZocWpQOhEw8ArojiZ/VfCkQJc7ZS3JPTimjbsw6FAREQltlVUrnVlqg/0JKKz7NBgbWhwpwLh6wD5N4D92YUlNzrtXzjFCQvS42vaBOjLcUBERKXKPgD+kYNcEUy0rLBLo1f4Gw9Or9C7AYxjF5aTXK3AI7J9HFVeaAOwhYOAiIhK4AmIebU3Nut5uzR4yeim6r6ZzI/zqj8CUM0uLHdmw6Fpf+MEJFrmVGho0xggIzgSiIioSF4A9CfeePQJOzU6Wd94lLR33AngIHahpYLbDwDYOrT14sI8eYsjgIiICk2Bl0U15I1HPmunwJaum7hXOhD+PzH1OUAZ2Kw3sk5K1k8+tFJD27McAEREVEDPikjYG48cZZebDHaETEkHGr+uVa6lCnynd9tWKibJmz+0dft7+sGlI8N71mbxDgT9OAyIiKiHTFWdLWL8xhtvec5ujW/zh44wRW4GcBy70hayLpfpG7581tt2bHyP9wZGLYtsgqEPsf+JiKgH1iv0NnHl632JaNhugS3uD9UlA+HbTZEXGNhspSqXN75v18ZLbz6c9oeOU5GnOQaIiKgLVBRPKzA9a2T/WR+bm7HbArQGJ+zjVvfVAvkOeFeobXcY2t2os8tDmT+qN4/8QF1i7HNtwYUvqcqRHANERLTzqIZXRfC3nOrfA4lomx0XIekNjTJcuERVvg6gDzvV1gb2yeKbAG61W8OltxNIByaPVZgvAnBxHBAREbY/wHSRKKIwpNkTa3nTrguS9k86SUV+AMiEQmwzyTIjNOlJ1NTb7UXyBRmAqUDjbYBexFFARFSxG8EtEPk3BLORdc32ph95x66LsmR0U3Xf9syXRXApFIewc51JBGd5YpFmO7XZXYiJVG8zr+roKydDMYrDgIioImwW4FlT8B9R+c/avfZ7edzC6Vk7L9CqEaHBHXnjfLRnLgSwv71feES73c9QuRSArUJbwQ71JusnHyqm+QKAGg4FIiJHyQJ4A9CFqrLQBV04vG7TKzJ/fs7uC7ZkdFP1HpmOU1T1ywAmg9erVVZwM4zDfK0zX6240AYA6UB4qgJ/Bs/7ExHZ0buAJBTaKkCrAjEDRmuHZN6w452enW6o0eRKBzInAPgyRM+Ayt7s+sok0Ns98eh3KjK0AUDKH/4mBNPBGxOIiKwsB5EWAf7iguuV1QMGv2v305u7smJY09656vZTRCQE0VMY1GiHTVnJDquPzd1YkaENANLBcJMq/go+w4aIyOpMKF4WyByBOXd4onaR3e6o6ySk9cnVZo8yTPNzAE5UwTEo0HXc5DCiF3pj0T9VbGgDgGSw8RQx9WG+5oqIyEYUWyBYoCIvQM0XJFf1oh3uBE15Tt9fXNmxKnKUAp8T4EjwGmvqmte98Ygt7hIu6rVnbf7wOFPkn4B6OCaIiGzrHQFeN4HXRPG6C/J6ztzQ6kvNby91Q1qDE/pXoSogkABMfMYUHSvAWAAHsJuoF2HoOE888mxFhzZg+3UE+ZqOhwA9icOCiMhR1gBYqcBKgaQh5moA7yqwVtR4L6/G2uoO91qX2d4+dFV0a2cTUUDa6iYONI2qASpmf5fIvjDM/VVliAiGqmI/QLyABgDsy7JTwSn+6k1EvlbxoQ0AFoydWjV4w+o/Q/FNjgwiooq1FUBmx7/77vhZP/D6Zyq/9mqXDh+6PLq24kPbB9L+8MUquBmAwfFBRERE1qGXe+PRm6zcwpKGJ08icqsIvgRgGwcHERERWYecrxZ/zmzJj3h5YpFmET0CwEIOECIiIrKIYDoQbmBo+1Rwiy5ZO3DIZ1XlRwA2cZwQERFRuQnk69ZuX5mtHDVlUDab+6lAvgs++JCIiIjKRbGlb5+aIfsuad5sxeaV/YaAYUtnrPPFoxfDrSMUmA4gx1FDREREJSfoty2TmWzd5lnMikA4mAceBRDg6CEiIqJSUsG/fbHIeCu2zXKP3hgej8Qg+hSHDREREZWaKE5cMWKSJd+wYcnnpakpL3PYEBERURm4zLxxNkNbV6sFMLQRERFRWShwDkNbF23qU/M6tr/qhIiIiKjUPpMOTB7L0NYFo5c0dwDyDMcMERERlYMJ03IvkLfwO0B1LocMERERlYMAX1kwdmoVQ1tXGubG38BnthEREVF57DP4/XdPZmjrgrplkVUCzOaYISIiovKkJD2Doa2LTDFu4YghIiKislA0akODZV6xaenQ5ovNnK98/AcRERGVx6C2tgENDG1d5BL8gmOGiIiIykKsc4rU8qGtLhaJAHiMo4aIiIhKTYEpiiYXQ1sXmaZ5GQCTQ4eIiIhKbL9kfeZYhrYu8idnvQbRv3PcEBERUamJaY1TpIZdCpY38SMA6zl0iIiIqKShDXK6AsLQ1kWBRLRNRM7j0CEiIqISG5YKho5iaOsGT6zlnwrcx7FDREREpSRqlP0UqWG3omXc+B6ANzl8iIiIqHT0dIa2bhq1LLLJ5TLHA2jjACIiIqIS8afqpxzI0NZNw5fPeltETwPwPscQERERlYKqeSpDWw94YtElAoQY3IiIiKgkoclEWUOb2L2A6WDjZ1R1LoA6DiciIiIqokxtv/ZBQ16ft6UsodHu1fPEWt50i/tYQN7gWCIiIqIiqmnfXNtQrpkbTqjgsNgjK7PSMU6AP3M8ERERUdFI+U6RitNqmfKHz4ZgOoC+HFlERERUSAq0+uKREQxtBdIWmHiQqa47ITiKw4uIiIgKyQXUD49HYqWer+HEYtbFZ7/hSdQcq5DvAHiHw4uIiIgKJY/ynCI1nFpQQXPeF2+5vbZfe70Kfgy+bJ6IiIgKoyyhTSqlunF/0wAD7eeKyIUAghxvRERE1ENbNb9xkC81v52hrYgUkDZ/40kqehaAMID9OPaIiIioWwFK5WRPouWxUs7TqLgiA+pJtDzmjUeman6jF4pJKnI9hx8RERF1lYqeUIYMQytHTRmUy+bXshJERETURU9645ETSzlDgzUHMh25fr0J2wDeq5BSvb/jnyxHDRERVbijloxuqi7lDN2sOeByufvBzPc0sd1hiB6qKvtYfDHzANZAsAaKVQKsMUVWwzRXC4w1amCdYeZzEPf6vGlmXVX5zZqp2Saaaa/zb9kk8+fnOpvwktFN1Xts2vph8JU+rj7I5ffOGa69xdS9RWVvyP/+rSqDINgbgqFQeAHUchQSEZHN9O2X2TYWwPMMbSVk5HN7mNKjM8UrTa25QpBZaJFFeRvAcgVaBdpqiCzP5ZESza3xpo5cI5hm9miqbbv+9eglzR0AOj7yo/cBrOrq5JPe04bA7fJCxQsVryGmVyEeCLxQ+ADUcJQSEZHViBrHM7SVmCmyR48+qPhOING8IRUIDy5hc7NQLIHIYkCXi+hyhbT2ralp3XdJ8+bOPzbHsvX3peasBrAawAufLnGTK12fGyGaOximHKoGDoZiDIA6jlwiIiprflA9DsANJQuJLDmQ9ocmqUi0m4Htr95E5GsLxk6tGrx+daZItcwD8pZAFyqwQEUXILfp1VI/F8aSfVY3cS+z2hhjKMaoyiEQPQaQURzTRERUMqL/9cTG7tPjM1ndxCNtAEyBu5tb+nfd1a5LAGDv/67eG0bBgsI2CB5RUxcYwIKaPTKvDHl93hb20Kd52ma/D+A/O/4BAKwaERqcMXGsmHICgGMhOBxAFatFRERFobL3Sv8ro5HAYoa2kgVl6VbsEsFFw5bOWAcALpcMUtVCNeQX3lj0V+yRnhm6PLoWQMuOf7B6zPh+7VtqjhKV41XkeECPA6+PIyKiAsob5vEAQ1vpQpsBV1dzlwIRbyzS/GFniQ42CpPZlmypqb2JvVE4O45SPrHjH6wY1tTHrO441hQzZECmKDCcVSIiol5ROQ7AnxjaSsRUMQRdSl7v5uE672OBT3WvAlxGZQpw/o67MKlIhq9s3gbgMQCPKXBJOhg+FIqJUEyC4AjwuYVERNR9x5dqRtxIAYCaXamDQuWbwfiMNR8LbabRr9ezB+70xCPPsiNKRwD1xiKveOORX3gTkaOzkh2i0HMBPAogxwoREVEXDUt6J3tLMSMeadu+Ae/KEa4/ehMtn3puhoj26+XZ0dVGNn8Ve6G86mNz3wNwL4B7Y4Ep+7qRPwuQrwB6NHhHKhER7SpHGPmxAFLFng+PtAEQGBt28wevuTI1V+z0d4q+vZm3in5nx52QZBHB+Iw13njkD954yzHiygcBXAPoW6wMERF1khMOK8VsGNoACMxdhbYNLsWZO66H+hTT6EVoE33QF4u2sAesy7N8dsIbj/zCG49+BoLDRXALtr/xgYiI6IMN+uEMbSWShbuz0KZQfHN4PBLrPHdpT69pey+L3CWsvn14Y5FXPLHIpVnJ7i+CswA8x6oQEREAhrZSqe5wr+0kkV3tTUQe2eWHe3x6VM7fcR0V2Ux9bG7GE4s0e+ORY9WQoxW4D0A7K0NEVLH2S3lO35+hrQSGr2z+L4B3Px7G5E9dedCtSPdDmwB/8cZbZrDy9udrbXnRF4+c465yDQNwBYAEq0JEVIFc+aJf18bQ9r/09cyHeQ16mydR/f0ulrC7T9iPb3PjIhbcWYYtnbHOG4/c6IkfXr/j1OkrrAoRUSXlCC36KVI+8uPDoCZ/EKgXij/5EtG7izSbrGkaXxm1bOYmVtyh31lMMxFDswL/TAdCpwLyYwDHsTJERI5X9CNtDG07+GIz5wMYV9RgKLjWn5z5EqtdCeENinh0LoC5aX/oODXkSigmgs98IyJyJgVPjzpmI64yzxs7/HpWovJ4EtFnvLFISGAcAeARACarQkTkuL11b7pu4l4MbVYO1oqtXejJdJXbPFswjRvrSg5v8ZkLvfHIGSI6BkAzK0JE5KzYplWuQxnarBzaRDfv5k/aBXLG0OXRtawWAYAnFl3ijUfOEpWTASxiRYiIHKOoNyMwtPU2VgObdpnpBOd54jMXslL0qfCWaHnMEz/8CCi+ihK8s46IiIqeCQ5maLMyxapd/PZKTyzyVxaJOv+CTzO9icgDawcOGSHA+QDWsCpERDaNBIpRDG2W3uia6U5+c5M3HrmRFaKuGLdwetYTj0zXvDFSgVsB5FgVIiLbhYJRxZ089UprcMI+VVq1+uMBWG7yxFuuEEBZIeqJVDB8GEz8HwRHsRpERPZhuHFA3bLIqqJMm+XtnR3vD/3g6fcdUHzLG2+5nIGNesMbi7ziSRx+jCouAPA+K0JEZA9mTot2tI2hrRAdZJrfAuRqFzDam4jczYpQIQimmb5E5M85uEYBcj+4I0BEZIeV96jiTZqIbCEZnNwgmv8TIAeyGkRE1qTQ23zx6MXFmDaPtBHZhC82c/6W2tpDRfFrAHlWhIjIegQSKN60ich2kvWNR4mp9wEYwWoQEVnKm954ZHQxJswjbUQ25GttedGVqTlUobeB17oREVmJXzGtKPmKR9qIbC4RDI03VO4GcACrQURUfi6XOWz48llvF3q6PNJGZPddulh0nuaNg6Dg2zeIiCxAsy5/MabL0EbkAL7UzPXeRORrIvp1KLawIkRE5ZM3zKLcjMDQRuQgnlj0fjV1HIAlrAYRUXkYatQxtBHRbvlS0aV9a2uOFug/WA0iotIzRYtyjTFDG5ED7bukebMnHv2SAOcD6GBFiIhKR4DhDG1E1C2eeGS6oTgWQIrVICIqDQWGMbQRUbfVJSILspI9UgX/ZjWIiIpPihTa+Jw2oorZ82typQMdvwP0IlaDiKi4+tbW7LnvkubNhZwmj7QRVcyeX3PeG2/5vqpeCr67lIioqDZt27Z/oafJ0EZUYXyJ6C0KTAKwkdUgIioON2Q/hjYi6n1wi0ceNU0cD6CN1SAiKjyF7MvQRkQF4U9GXjfc+CyAhawGEVGhQxsY2oiocOqWRVb1ra1pADCb1SAiKmTA4pE2Iiqw7Q/irWkU4C+sBhFRYajoPgxtRFRwguZ8XbzmW4DeyWoQERUgtPH0KBEVM7h54tGpUNzMahAR9Xadir0Z2oiomCsZ9SYiPxTVq1gNIqKeU2AAQxsRFZ0nEb1eoN/fvt4hIqIe7AQztBFRiYJbPPp7hVwAwGQ1iIi6jaGNiErHF2+5HYrzwCNuRETdNZChjYhKypuI3C2KS1kJIqJuqWkNTqhhaCOikvIkIreq6HWsBBFRt/RnaCOikvPFotcCuJGVICLqGtHqWoY2IioLTzxypUBvZyWIiLoQskzty9BGROXZawS0Lj72uxB9kNUgItrNOtNt9GFoI6IyBrdp5toB+38DglmsBhHRLtaXmmNoI6LyGrdwetbVXnOWiL7EahARdUKFoY2Iym/4yuZtmq2aLMAKVoOIiKGNiCzMm37kHYhOALCB1SAi+gSRaoY2IrIMTyy6BNAvA8ixGkREH6FmQXMWQxsR9Zo3Hp0rkB+yEkRE/yOGMLQRkfV44i23AfgDK0FEtJ2pDG1EZNngVnMJgEdZCSIiQBQuhjYisuYKCs15yea/AkWS1SCiil8nGsojbURkXZ622e8b0C8CyLAaRFTReHqUiKyuLhF9GaI/YCWIqKIzm2qeoY2ILM8bi/5JgftYCSKqVGJolqGNiGyhT7/27wJYwkoQUSVSUwr6/EqGNiIqmiGvz9uSV9fpADayGkRUacQQHmkjIvsIJGYsV+B8VoKIKo2qySNtRGQvvnjk7wL8hZUgokoiavBIGxHZT05rLgbQxkoQUaUwDZOhjYjsJ5Bo3mCY8lUAJqtBRJXAZcoWhjYisqW6ZMvTCvyelSCiSpA3dTNDGxHZVk6yVwLyBitBRE5X5a5iaCMi+6qPzc1AzHMAZFkNInKyfEeGp0eJyN68segiFfyKlSAiJ3tvnwN4pI2IHBDchm38BYBXWAkicqiOcQun8+5RIrI/mT8/p4ZcAN5NSkTOVPA3wTC0EVHZ+FpbXhToHawEETnQOoY2InKUnNZeCeAdVoKInEX+y9BGRI4SSDRvEMhVrAQROSuzKY+0EZHz1MVb7gfwBCtBRE6hCh5pIyIH7pACmlfXBQAyrAYROWK9pjzSRkQOFUjMWC6Km1kJInJGapP3GdqIyLGq2vUXAN5mJYjI7hSyhqGNiBxr6KroVih+ykoQkd0ZglUMbUTkaJ5EzV/4Qnkisj0VhjYicjZBc17U/BErQUS2zmw5g6GNiJzPk4jOAh8BQkT2lfekXbymjYgqg2kaPwKgrAQR2dBqQXOeoY2IKoI/OfMlKB5mJYjIjqGtGBNlaCMiyxJ3/koAHawEEdlMmqGNiCqKZ/nshEDvYSWIyFYUKYY2Iqq8dZ8b1wPIsRJEZBuGJBjaiKjieJdFk1D8nZUgItswkWRoI6LK5HL9CoDJQhCRPdZZBkMbEVUmb+uMtwCJsBJEZANavSXHGxGIqHIZav6KVSAiG1gzdFV0K0MbEVWsukT0ZQCPsRJEZGWiWFa0nVeWl4jsQ3/NGhCRxVPbWwxtRFTxvPHoEwBeYCWIyKpMxVKGNiIiAKp6G6tARJZlGDzSRkQEAOv22v+fAFaxEkRkRaZpMrQREQHAuIXTs+CrrYjIihRb/InoCoY2IqId8orpAPKsBBFZimCpAMrQRkS0QyARbVNgNitBRBYLba8Vc/IMbURkV//HEhCRpTKb6qsMbUREn+CNR/4FYDkrQUSWCW2mwdBGRPSplSOggN7BShCRRWhWql9naCMi2gl3lfseAB2sBBFZQDKQaN7A0EZEtBPDls5YJ8BcVoKIyk6xqNizYGgjInsTfZBFIKLyr4uKe+coQxsR2Z6Z2xQBsJGVIKKyrotEX2JoIyLaBV9qfjsgLawEEZWRujrMl4s9EzfrTE6U9E4eCGCguPN7Q43avBpr9+zjXrXvkubNrI4D15bQBwX4GitBRGXylqdt9vsMbUS7sHrM+H7tW2qPBHQsgJFQGQfBQYC5fWyrAFC4JI+t7XmkAuGtAP4LYKVCXzIEz4pLnqlbFuELyG3MO3zjY+kV/d8FsF8Fl6EDQDVHA1EZCF4ozWyIbKY1OKF/lVkVEkGTAqcAqC3AZOMiiIqJB4YnIguL+e44Ko5UoPE2QC+q1OVX4CEBzuJIICpHZsNUTzxyRwnmQ2QPcf+UEW7JX6rA1wH0LeKsVirwoMuNW3kEzkahLTjps1DjuYotgMpEiD5coJ0YIuoGl8qY4YmWxQxtVPESvkmHuAzjZwqEUNqbZ9oB3Kj5jb/afrE7WTqzAJIONCYB9VTi8psmhhgGHgZwLEcDUUlt9MRr9hY054s9I949SpYV90+qTwXCfzMMY5ECjWUYr7UArjGM/v+K+5sGsEesTQCFYnaFLv57/mTkXQDPcSQQldyzpQhsDG1kSTuOmHzfJcbrAL5U7nGqghNcknlUGxp44471VWpoe2PHl+c1DgGiku8wzi/VvBjayFKS3tOGpAPhOQq9Fda6Nufo1Mr+V7OHrM3VUf0kgK0VuNl4AwBckNc5CohKK28aDG1UgYEtGDpaXO5XAZxqyc2i4nKeJrW24Subt0HwRKUtt8JcBAAb+1Qvw/ZHfxBRaWz0edYvKtXMGNrIEtLB0Fmi8iSs/Zytvi6j/Wz2lsUDjIk5lbbMYrhfBIDRS5o7FFjGUUBUsjXOMzJ/fo6hjSpGKhC+XFX+Dhs8qkAUJ7DHrM2EVtp1bes9rYcs+8gYZWgjKt1WYX4p58bQRmWVDoSvAHADbPL4GQXGsNesLZCItimwuFKWVwUvC6aZH25CgFaOAqIShShVhjaqkMDmD1+swPU226sayJ6zwYpUKudomyhe/Oh/mxCGNqLSWDs8UbuolDNkaKPyBLZg6Gsq+J0Nm87HftiACTxaMaFN5KVPBNblHAFEJdljmleq57MxtFHZJHyTj1SV6bDnGzk2sAetL4fcCwAylZBPXe6Pv7pL3EhyBBCVILOVYeeQoY1KKuU5fX/DMB+Bfd+P2MZetL762NwMgJcrYFFfHbZ0xrqP/mD4ssg7ADZxFBAVd4cpq+5/MbSRYykgcOfuBnCAffeslNcL2aWvFE9XwFI+sZO9fwXAU6RExbUoGJ+xhqGNHCsVaJwKiz44t8u7VpDn2ZO22Ul41vHLKHisk8TKx34QFdfccsyUF1VTSSR8p3kEeqPdl8NUky/k7oXVY8b369hc8xk1DA8UfU2oAHjXrfL2xj7Vy0YvaS7Y0/zVNJ4Vl2k6eOe0o0/fbc90kube5mgjKiYpy81ODG1UEobh/g2APW2+GPFAYhZPj/ZC+5baZggmQHX7am/Hz/Oi6Nee6UgFwotF8DTymNPhyj6149q0HvGlZq5PBcJvwKHP1lPgxSGvz9vSya83crQRFc0aT7z6xbJsS1l7KraEb/KRAL7ogEWZyd7sReL1TxmBXZ8erwYwVhWXqIF5VVr1bjIQvj0ZDB3di2Tj2OvaBNLpRdCqWMsRR1S0XaZIqR/1wdBGJeMS80bY8/EeH/uWGqr/YG/2ahx8r5vjYIAAU0Xl+WQg/FLKHz5dMa1b6ywVPOPYeioina7YDWFoIyre1mBGuWbN0EZFlQo0HqPihPd1yl/rEtGX2aM90xqc0B/Qb/S4+sAREDycDix6PRlsPKWrn6sStzNDmyI5PNHS6au6TDC0ERXJpqzR8ThDGzmT4AcO2EBuQc51pZO7acepy6Jxo/pbKMw1jaNF9dFUMBxN+E7z7O6Ph8UeWQngXcdlNun8KBsAuDTL0EZUlE2azunNtbYMbWRZqZEhH1Qn2/5LaujvvelH3nFqP60cNWWQS8xzijX91uCEGlH9YYGD9CTDcL+e8oe/2YWA87oDNxy7DG050/Ue10BkM+vt0EgT5Ts1ytBGxd2wZI2vAXDZfTlypt7t5H7K53InCXRssaZfrVXnoDgPVO4PwV2pQPih1WPG9+t0HKrjQtv7awfuv8sbLLb1rXmfayCy2Y6IHa4ZzuSkY245G8DQRkWjhn7Z/guBV53+mA81ZbwChxZl2g0NbgWKfWq5qX1z7TNxf6hu5xsDcVRoEyAybuH07K7+Zsfz7rJcC5Ft1kOif7HBd+/R+tjcsj5Oh6GNiiJZP/lQKEbZfwsp/6yAXdyTAey3akRocKEn3bay/5cA+EuwDIe6RJ7b2bV5KrrYUf1l4oEu/uU2ronIJjvHWzyxcS8KsMLaXz35W7nbwNBGxdmGmmbICcthqP7Lyf2UDjZ+BkAdAHTkjYLejLBkdFO1Kq4t4eIc4JL8/KQ39LGdhSyyb8I5R51W1yVrnuji3+ZBZIfthaFLBNNMAIss3MzNNdvMKEMbOfNLqPiCAxZj0/C6ja86egdX9Yz/7eyaBQ1t/dozUwEES7xI+4tL/p3ynL7/Bz/YcaeXI16gLoK/l+uhnkRFWw+ZsnjHSugV6zYSM4euim5laCPHWTO6aQ8VHG335RCV52X+/JyjV5ZA04crA5WChbalI8N7ArimTIs1DK7cjKS3ofYjP3PEdW1i6oPd+HNe00b2GNfA9tBmiIWPtJX/1ChDGxXF1vb2I7H9lUT2DjSGxp3cTwlfeKQAB/9veVFXqGnX5nA5gH3LuBU4Slz9b/tw2dQRNyMs7+YDntdzbUS2WNfuuO7UMPJWDW1r1+61378Z2sihu01yqCOWwxR1cjcZxv+Osu1INgV5LMeKEZMOgFriocrfTvvCJ+9Y1iW237Cp3NPNj/Cl8WQLWcktBoDhy2e9DSs+DFvQvLs7thnayMYbFxzijFSj4uh+As76+H9LQUJbPmfcAkE/K6xq1cD01WPG9xPNJW3eXR2q2t3Q1odrI7KBVfWxue/9Lx/hVQvuwd9vmc0SxwsVfqcEBzliOVQd+/1I1jce9dFTozv6rdehLRUITYDgTAstqrd9S80FtbV9UzbvshZ/MvJuN7+H/bk2IhusaV/6xMB9y2K7t295Y7OeZ2gjJ/M4YSEURl/Hribzet5Oftx3xbCmHh+d2f5Z+YMFl/ay3PvtJgDbvtpJ1Ly92+NXtB+IrL6eVbz40f82VZZa7Nt3j5Vaw9BGBbXjdUKDHLEyER3ixD5aOjK8JwRf3Okv+27bu6fTzde0/wSleJBu9+2XqZVzFEjZc+cBrXWJWU/0YAA7+vQ+OYQhL3w8I5lWCm1Zzefut1S5OGKokLZuqh3mlGURxRgn9lFNTr4CYI+dbufzuldPppkOTB4LyOWW7UvBV8SmoU2g0wXoyU0xXL+T1eX71VQt+NhPcvll1vnuYY4vNWc1Qxs5lrh6ttG3qP1S9VMOdFwfQc/v7HcK14DuTm/1mPH9FOYDsPZjXo6FPd8QsEnzrjt7+FmeHiWrW7LvkubNH/3BjpC03gqNM0XvsVrBGNqosAPKNPZw1AKZ+S87aXFSgdCJAA7rdLfXgKu702zfUnMLgJGWz6oC+wVw1Tt9qZnd3oDtuDbRzTUSWdyLnfzcCqdIV3uHbZrN0EaOZhqmw/bu5euKaY75ngjkil2H7u6FtpQ/dAYg37bFsiv2tll35UzN39qTD2arMrxzlOzwpXyxk/VU2UObiN5rxTfiMLRRoQdUjbOWSD1t/ldOdMKSJHzhMQqM3/U61OzyOiHuD9XBwHTb9KTdQpvoQ/7knHRPPupyySAQWX17oebOj7Rp2W9GyOfz+T9bdBtLVMANownHvcxaDfNcR6wgBZcD2OUdhXlDunSkbc3opj1chkSgYp8gJLa7xuu3Pf6kae4NImtbPzx+xJs7Hb6Cst6MIMCsnu4wMbSRzQIOnPeCdZUz4v5QnZ0XIT1ior/Tx3x8dGWlstt1gmKasaU98wCc8uYLK+ZLlXneWHRRz4cs9mQVydKrVeApwTRzp+NfpLyBycQfLbvzzaFDBd3YmEbWgYtV4xK53tYryJzrZwCqChHa0oFFvxEgzNFezJ2f/LRefQ/F4J2jZGmGotNnD7rdrrbybcSwtC4ZeYyhjSojtIlucOiifSnpD11ix4YnfOExEHylS/23m7tHk/7GcwFczpFeVI/29rU5ppp7sIxkZXnFk539btjSGeug2FKWbZjqn3r4XESGNrLhF9HEWucGUrmhzdd4vA2D9C+6/F3Pa3tnv0oHG88U0ds5yotLDZlWgE73spJkYe/5kpHFu0lP5TjatqlDcn+xcuEY2qigaqt0nYMXr8o09OG4f8oIuzQ4HQgfKyKhrm/r8f7OA1u4SVX/hi6cYqVemetrbXmx15nNlH1YSrKw+bs/mlWG69oU99XH5m5kaKOKsf/ysf8FkHHwIu7jQv7RlOf0/a3eUMU0Q7WbdyAaxvufDmyhs1TxIPiw1qJ3maF6bUGmJOpjOcmyA30X17P9b/2FUh9pyxuG8Tur146hjQpqx91AaYcvpA/u3PyVwdMt/Z7VdHDhuRAc1a1Fa6/6WGhLBhq/qCoPMLCVYljpQ3WJ6MsFmpyfFSWrMuF6YvffB6wo8V7ujLrYzDhDG1WiRAUs44ic5v6zIhAOWjKw1U3cCyq/7u66dNhKfHgjSdofvligDGyl0W7mXVcVcHoelpQs6u1AYsby3Yc2KemRNlONG+1QPIY2KsIeiyQqZEn9eeAFK96coG73LwB097qmjYLmvDY0uFP+8B9UcAvQ/XeRUk928nGbLzUzVYhpxf1NAwDUsqpkRQL5d5dClJQutIniKX9y5ksMbVShGyBdXEGLO8g09N+pYOOFVmlQKhg6HKLn96Dj3k95Tt+/ra3/4xBcyJFcMu+ZWvOrgq3UXR2jWFKycGrr0kvYDeia0iUhucku5WNooyKMKn21wpa4Bqp/SPnDzem6iXuVsyFLRjdVQ+Ue9OQImWAPuHOLVHACB3EpN2I6LZBoLtjzDSWPAItKFtXRgY55XfnDrBolenyUvlUXa5nF0EYVq0/fzGIAZgXuQZ6pVa4lyUBocrma0K+941oAY3r48X0ADOEILiHFq55hm6YXOAQytJFVPdXVR2oE4u51JdmOqNxk5YfpMrRR0Q15fd4WQN6s0MXfXyAz0oHwzFLfpJDwTT4S0Cs4Am3DVEMvkPnzC/q+XgGPtJFF92sVs7o+jpvzwM6fG1lAqbV7DbnfTjVkaKNifTufruTFV6AxDyxJ+UM3J72nFf3oVdLbUGsY+XvBOz3tNEbu9MWiLxR+uso7R8magaOL17N9RFFPkQrw63ELp9vqfdkMbVSkYwh4lkVANUQuFZc7kQ6Gf5caGSraA0/F1f9GQA5kyW1jjTtT86MijYaDWF6y3o48lg6PR2Ld/NR7RWxR2+bamnttF3w5kqgYciJPsQof6qOKS5CTWNIfiqSDjaEFY6cW7HVQ6WDjmQC+xzLbafsllw9f2fzfgm+FgpMDAAazwmQ5Kj242F+KdqRNFb8ZvaS5g6GNCEAw3rICkDdYiY9/30QkpKqRwetXv5MOhP6c8ocnrhoa6tubjbSq3snS2mnbhX/XxVuKch1N3swfyQqTNce92YPQZhYrtK3MGdm77VhHXv9CxfyazgXAUzU7N0gh50Nwfkcf2ZYKhJ8H8CxUXsgJFm8PvbvWGpxQY6r5EIABLKdtbMirfKtod6uJHMUSkwWt8Q7b9Cxi3R3OWKtF+KYI9Ib62FxbviOboY2KuGdlzBE1L2cldqsPgBMBnAhRuAGkAuFNAGIQvA1gjUK2X9thYr2I9lORKlE9AsDhLJ+dvhT4QTDRUrR3KoogYJ+HF1DFEDzck7ukTchGKXxrVpn5TXfYtZQMbVQ03ljV0+lAZg2AfVmNbtsTwGFQHLZjz/CDld/2fym3zDY025uIFPeUjGIcy0xWYwr+3pPPGSa2qhT6KyLX+VLz2+1aS17TRkXcuWrOC/AIK0GE9W5xf6eYM9hxdzIfjkxW846vtaZnTxMQbC1sYEPruoH73W3nYjK0UZF3/PEQq0AVvwMjev6w2CMri/pdy+JoVpqstw3Q5h0Pyu3+Z1W2FLg5P7Xbc9kY2qikPPGapwCsZCWogndcpnti0aLvvIgYn2W1yXohQ3o89tUwCxnaXvHGD3/I/vUkKuaGZPse1r2sBFXoN+ANd6bmktKEQ21gvcla63+sqItHnutxQMnL1sJ9P/BjwTTbvxOboY2Kz613oxJfIE+Vrt009ezhK5u3FXtGscCUfYWP1yGLUeChXj3exijMNW0KPO2LRx51Qk0Z2qjovMuiSVF5jJWgSiLA9/3JyOulmJcL+RPx4b3FRBYJGKr/6M3nTcMoxOlRFTGvdExNOayoRG5kCahyApvc64lH7ijd/HAiq04Ws6QuEX25V6GtAKdHFWj2xmY9z9BG1A2eRMtjABaxEuT4wCb6kpnfcEGJZ8uHLJPV3NPrgGJqb98N2o68caWTisrQRqXcmF3PKpDDvetC1RmlfHjn6jHj+4HXs5G15DSfe8AC7bjJl5qZYmgj6oG6WO3DQHffPkdkG1nTwFnFfh7bJ23bWvMFADUsP1lI1Jeas7q3E1Hp6M2rX97NStZxl+UwtFHJCJrzqriZlSAnUshF/tbIUyVfiSsmsPpkqWAhhXnMk4pLe/591KvqY3M3MrQR9YK7o+ZeAO+yEuSwXZKbfPGW28sTFo1TWX+ykNXDh22cU5jQZvQ0tC30xsfe58hAzPFFpTR8ZfM2hVzLSpCDNHvih5XlYud0IHwsoB52AVnI/TJ/fq4QE6rt2ZE2NUy51AkP0mVoI0vwxqvvhOA1VoLsTkRfqt6m3yjXBkKBRvYCWStVuO4p2Pg2enBNm+DBumTL044tL0cYlXxDh+Y8VH/ASpCdKdBaZWDi0FXRrWVsxkT2BFlm3a54yts6462Cfce6f3p0g+Zylzk6E3OYUTl449EnAMxgJcimVrnEmDB0eXRtuRrQFpwcAPAZdgVZKFH8ocwtuLoQd60ytBHtbPCJcTmADCtBNrNWRE6ui82Ml7MReTMfYleQhaysG7axoDviRt7dnYyy0BOv+T/n52KiMqmLzYyryC2sBNnIBoie4om1vFnuhojI2ewOsgzR/yvUDQgfyJgdfbr4p6ZpGt8VNOcZ2oiKKIeOaxVYzEqQDWw1DYS9sWjZX8fWFph4EIBx7BKyiExO3XcWPgcaXQttgtv9yZkvVUKhGdqorOpjczMi+g0AWVaDLGybqBkux8Nzd3pYQY1vskvIKgT4ezA+Y03Bp+uWroS2NdKR/0ml1JqhjcrOG4sugug0VoIsSbEFwERPYtbjVmjOgrFTq8BTo2StKPH74nz3uhDaFD/wtM1+n6GNqIQ8sdrrATzHSpDFbBToqd545EmrNGjQ+ncmAtiXXUMW8ZwnPnNhMSYsmt91aBPM8iYiD1RSsRnayBIEzXlDjK8D2MxqkEWsV0PGexLRZyz2bTmXXUNWoZDbijfxXR5p2+CG+4JKqzdDG1lGXWxmXAQXsBJkAWshepKvteVFKzUq4QvvJ+AL4sky4t549T+LOP0+ne/o44phsUdWMrQRlZEnFvkrVH/HSlAZpUwTx1nhLtFPrbAN/RqAKnYRWYEANxT1MRtGp0fanqyLR+6oxJoztJH1glvdpisAPMZKUBks0nzus/5kZJlFN5PfYBeRRbxj5jfeV9TRbmq/T/1QsUVc+W8LoJVYdIY2st5maf78XF5rzuTz26ik405lXrsbDVZ9DU6iPnwCgNHsKcfaaKvvC3CLLzW/vZjzMA3d+9OZTa/2LJ+dqNRBwtBGlhRING+oEvdpAqxgNagEG6C/vLfXfpNGLYtssuzK2uT1ng4fgw/aqLnrOyT756LXxJRBn/jRs97E2NsqeZwwtJFlDYs9stLM63gA77IaVCR5AFd44pFvjFs43bIPeE56TxsC4HR2l2M9C+ib9mmu/rE+Nrf4RwYFHz3Stllc+a8LppkMbUQW5UtFl4roSQDeYzWowDZAJeyNR260/IraqJoKoJpd5tAdB8FFKnKoTdq7NQd3SY52iX7kSJvIpZV8WpShjWzDE4suMZA/EcDbrAYV5DgB0ArD9VlvomWO1dua8IX3U9Efs9ecSYA7vLHIK1AcZpMW31WMV1bt9Hsq269pU9WoN9ZyJ0cLQxvZRF189hummTsWwDJWg3pprpHNH+VtnfGWLTaRLlwAoIbd5kjrXFWuq5eMbqqGPW4y2Wa49Tcl3LsaBGCNqpzHocLQRjbjT85Ju6tcxwJ4ktWgHsip4MeeeGSiXd5VuHrM+H6i+C67zplUcc2wpTPW9ctkRsMWp7/lj3XLIqtKNzvsraJT/ckIr2tmaCM7GrZ0xjpPvOZkFbme1aBuWCMqE3yxyK/t9Hyn9i213wGwD7vPkV7xJmqmbw9vcqQN2rs5B6Nk138uGDu1CtBmXyzawqHC0EY2JmjO+2ItV0FxBoB1rAjtcryozMtK9iBPosVWD2zevtHCD9iDjqSi+v0P3iYgYh5lgwbfXKpr2QBg0Lrlrna3cPx/gpslILuqdutT2bzxA4X+Gbt4Rx1VrAygV9clDr/Zjo8JGPT+6m9BMJTd6Mg9zwc98egz/0tEONriez7/Nc3am0s5yx0P7m3nYGFoIxtaGTx9WBbZsYAcBsVhBnBYRx7DK/RNJrTbwwJ41ZD81+ris98AorZr/tKR4T0lh+vYkY600XDhig/+I103cS+FjLJ0ZjNxQyDRvIFdx9BG9OntbUODu23lniOhcqxCjoPqcTnN+QTykW0y0U6ZCv1DzshdUR+bm7HrQtTmcDl4LZtD9yfkirplLR9ezK9VxtHAR1Zu1rO6Zo/MH9hzDG1EH0r4Jh0iLuM0w8Sp6RU4Ah+e7lRrr87ISpYJ8C1vPPqsvb8L4f0AXMrudKQnvfGW6R8LcSJHiYX3QgX6qyGvz9vCrmNoo0re22xocLe17XmqKRIS4DQAw6CAMqBR92VU9Poccr+y89G1DxgGrgawB7vVaSs9bDEM47yd3L18jIVbvXxzbe3t7DwrhWiiEkp6G2oNY8+LVeQiAAewItS77SCeFsN1vl0elLs76RET/Zp3vQW+ssp5Y1X1Ul8iestHf7Zg7NSqwetX/9eqId0QNNbFIhH2nnXwSBuVdi/BGPBbFeXDQqm31kHkKm+s5S5x0CWOaho/Z2BzpOe8ibG3ffKmmMEbVo0DDIseVZXH62ItDGxWC9IsAZWSN9FyoYiEAcRZDeqBnALTs5I90BtrudNJgS3hC4+BypfYxY6TEZHzdv7YGfm8RducN03lM9IY2ogAT6wlmpXsaFG9CsAmVoS66FEYrjG+eOT8+tjc95y0YAqIYeitXCc7j6pM88Ra3tzZ78Q0PmfR8XiXPxl5nb1nPbymjcoq6T1tiLjdP4Xi2wCqWBHaiTehcrk30TLHqQuYDoa+pir3sasdZ4Fn+MbPyvz5uU/9YuzUqsHvr34fgn4Wa/PGHFz1pXz7AXUd9+qorHypOau9sch386pBBaYDyLMqtGOfMi3A+Z7hGw9xcmBrDU7or8p36TpQDoKpOwtsADB4/btHWDCwQYBfMrAxtBHtUiARbfPFI+eLyBiIPAw+P7eSrVTId9YO3K/eE49M72yj5xRVqPoNgP3Z7Y5znTcWeaXzX+tJFmxzokOyt7LrLLwryxKQFa3wNx6cN/RKKL4I3uVcKd5W1ZtgbvrzjvcOOl6bP3SEKfICd6CdRYGnvfGaz3/wQvidSQXCz8Jyz2jT07zx6Fz2IEMbUY8kvZO9cOUvFci3AfRlRRwpLorfm+bG2yslrG3fsE8z2oILn1eVIzkEHOV908wd5k/OSe9ivTZQXOZ7FtshbfbGI2ex+6yNe3dkab7UzJQvHr04B5cPwM8BvMuqOCa1vAjI6Z744SM8icitlRTYACAdWPRdBjYnDmv95q4CGwAYbv2CxQLbRsONS9h71scjbWQrrcEJNdWoagL0Im7wbCkD0YdF5U+eeOTZSi1CwneaxzDcrwPozyHhpMQmf/ImWi7c3Z+lAqE7sP3sgUWCgH7fE4/+nh3I0EZUxA3f5CNdhvldBcIA9mJFLL2qSavo7Xl13VXpd6YpphnpwKInAHyO48JRXtf8xqO6csQ4HQi3KTDcIu1e6InXHLWr6++IoY2ocBvBhgZ3esWeJygkLEAjAC+rYgkZALNF9Z66RO1cbhS2SwXClwO4gZVwlK0ickRnD9H9qLbAxINMuBZbpN15gXGUJz5zIbuQoY2oLNLB0GiYmKQiIWy/O4vjvMR77qK4v8PIPui0NxcUYmyqygIAtayGk7akcp431nJnF0P71dh+fW75d3iht/ni0YvZgQxtRJawMnj6sKyZCxmQySraAL6Mu0grfyyG4BHTNB8IJGa1siKf1hqcUFOl1QsAPYjVcNTYf8gXj3yxq3+fDIRfEuAIK6wes5IdXR+bu5G9yNBGZDmrhob6ZvsaJ5mqkwSYDGBfVqVX3lRBM3L6d18qupTl2LWUP3QzRC5lJRy1AV1hZGoOHb6y+b9d+fsVIyYdkM8bKyyw7VVAJ/KZbAxtRPbYO25ocCff7n+MYcopgJ4C4HB+H3brfYg8IarzxI1Zdcsiq1iSLga2QPjzAB4DH7PkJNsMxQl1iciCrn4g6Q9fIII/WaDtd3jjkansQoY2IluKBabsWyX58QqcCsV4APuwKsgCeBHAPBX9tzdW+zJvJui+pPe0IeJyLwQwlNVw0MZT9OueWPT+7nwmHQg/qsApZW55OisdY3halKGNyBEU04wV/kWHmyKnAHoqtt/MUAlHSN5T1RcA4zl16XO1W3TB0FXRrRwRPbdg7NSqQetXPy7A8ayGk1YS+jtvIvqD7nwk7m8a4JLMGpT3uloVNU/2JGY9zk60J77TkehTezLTTCSwAMACAL9M+MIjxcBhEDnUMHGYih4CYD+bL+YqARabwGui8loexoJAYsZy9n5hDVq/+kYGNsetIR731G28AolubmyN9rCqlPdGKMGfPXEGNntvn4io21aOmjIon82PUsVIFYw0gJEq8ELhATDQIs1sBzQJkbgq4gY0DtU3q9zy2tDl0bXsxeJK+Ru/AtEHWAkHUSTd1a4jhi2dsa7b4yEQngVgYhlbn+hbW3PIvkuaN7MjGdqIaIfW4IT+tWa1Jw+tU9F9oMYQw9D9FNhHTNlHBXsC2h/Anjv+GYCunX7NAdgEYAuAjAL/FWANRNdA5W2BvAcxV0veeMdwuZIHxB55WwBlj5Rh6+gLjzEMPA+gL6vhmMC2xVQc409GXu/uR9N1E/fSKtdqlO/UqKlinOSLzZzPjrQ3nh4lKrAdF/gu3vFPtyS9kwcaZvZjO1N1bX038gYA+0h6Jw8Uw3yYgc1ZkU0M/aY/Fn29Jx823e7JAi3nqdHfMrAxtBFRgflSM9ezCjbesqPJlXa1PwBIkNVwDlH8xhOPPtTTzxuiX9SyjUm8vG7gkJ+wF52BzwwiIiqQdCBzCyCnsRJOCmwyry5Rc01PP79qRGiwAieVqfmbTXV9ddzC6Vn2JEMbERHtkAo0/gTA91gJ51BgcQ7VZ/Xm8oQOE2ehXGe1VM7nXeEMbURE9NHA5g+fDejPWQlHedtUnRRING/ozUQEOKcsrRe9x5toeZDdyNBGREQfBLZA6EQI7gbvxneSDaaJ0wKJaFtvJhL3TxmhKkeWof2xdpdczG5kaCMioh3SgcljAWlBeZ9yT4XVIWqe0ZNHe3yS28idW4b2ZyA4a9SyyCZ2JUMbEREBSI+Y6FeYswDswWo4hikiZxfiNU+KaYaqfLXkSyDyQ28s8gq70pn4yA8iom6K+0N1mpd/AxjCajiHqv7QG4/8sxDTavMtOgnAsNIGNjzgjbX8kT3J0EZERAASvtM8hsh8AF5Ww1Fu9CWitxQsALr0G9ASXuaoeNWVqTmP3ehsPD1KRNRFsUDjcMNwP8HA5jh/98QPv6pQE1s5asogqJxewva/L+78GcNXNm9jVzK0ERFVvLg/VOeGzgfgt/FiZAE8osAN4Htpd5DHt9TWnCOYZhZqirlc/hwAtSVaAFOBr3iWz06wL52Pp0eJiHYjFmgc7oI+YePAtlJFHsgr/miY2mEYeAV8RAkAeb7drVNGL2nuKOhkVb9dsvKKXuOLRR9lXzK0ERExsAUah7uhTwII2KzpHQBaxMQddcnDHxdMMxVNrnSg/TFA9mfP4oWsdJw6atncgj4aIxmc3AA1DyxJXgNa6mLRX7MrGdqIiCpeW2DiQSZ0Lkp9F2AvKNBqAHdm4bo3GJ+xZvtPIwCAdKDjOkAaKr1fFXjZ1JpT6+ORjQUPUmpOLclCCJbmzJpzhKe5KwoPjxMR7USiPnyCYaIFwEAbNHcDRB9RuO7zxmb+Z2cb8lQgNAGQWeC1zK9INn+Sp232+4WecCwwZV838m0Aaoq8DGsNMY6ui82M85taWXikjYjoE5KB0GQx8SCAPhZuZgaCf4tKc02/bQ8PeX3els7DRONwQO9jYMPr1S4dPzRe+MAGAFWav0Cl6IGtQ8VoYmBjaCMiqnjpQOgihdxi0YBjAnhagAeQzf+zK0eLkt6GWkPMf6rK4MruWXkjKx1f8C6fu7YYU18yuqla2zPnF3khFIpv+uIz5/ObytBGRFSxFJBUMHytKq61YPPeVEGzYeTv6+6jHcTo/wdVHFnh3bscOdf4+vTc94o1gz3aO76kQFFv8BDFzzyJyAP8tjK0ERFVrBXDmvqkazN3iOJs62RILARkpog50xOLLunJRNL+8MUq+BYDm7vBm37kneJ2mH6/qEsheKAuHrmO31aGNiKiihX3h+rykpkBxeFlbkqHCv4j0JluVEWGxR5Z2ZuJpf2TTlLBTRXevW+6XOb44fHiBra0P3ScAmOLOItnssh+i3eKEkMbEVWsVCD8eQD/ALBPmZqwUaBzTUWLido5gXjzhoIs18iQT3Pyj0pex4voSy63+7RhSyPrij0vNYxLoMXJUwq01rh0inf53Ay/scRHfhBRRUoGGy8V1RvKEGxiEPxbIS1ba6qfLPTT+FePGd+vfUvtcwDGVPCm7fG+tdWT913SvLnYc4r7J9W7xHgLgKsIk1+leeNYX2pmit9YAnikjYgqzKqhob4dfWU6VEt1/doaAI9D9HHNuR4v5gZYMc1Ib3nlr4BWbmATeTiLjrP3XdJSkiNTLjEuL0pgE/2voeYpdakIAxsxtBFR5UmPmOjvyMnDUBxaxNlsBvQpFeMxzevjvmRkcamuRUr7F94EyOTK7WG90xOr+Y6gJV+KuaU8p+8P5L5ehElvBXRSXXz2G/zWEkMbEVWcZCB8juZxGwT9CzzpPCAvqeg8w9TH3ttr/xfHLZyeLfXypYKNF0L10oqNa8AN3nj0qlJerK/u3CVS+LcfZBU4wxeb9Ty/tfRJvKaNiBwtXTdxL7PK9WcBzirQJN8V4FWIvqKmvCy5/JPFeCVSt5bRH5qkIjNRnOuqLJ/XBLjKE4/cUMqZxv1NA1ySaQMKuhNgqupXfYno3/jNpZ3hkTYicqxkcHID1LxPgOE9nEQHgEVQfV4MeT6r8kIw3rLCSsuYCoYPU8XfKjSw5SF6vicWvavUMzaMzHehBT9qezEDG+0Kj7QRkfPCmrehVlz9fwHgUnT9dVTtCizecRTtVUBf0dzmV3yp+e1WXc5YoHG4G/oCgKEV2M2bDcHZdbFIpNQzXjoyvGdtDgkAhXw12DXeeOQX/PbSrvBIGxE5Sps/PM4U/AXAZzr5ExNAUoA3oHjThC42DLxeN2zTMpk/P2eX5Vw5asqgXDb/aCUGNgFWmIYRrmud+Wo55l+Tx/cKGdhEMc2TYGCjLo19IiJnSHonDxSXuQpAHwDvAogJpFXFbFUTSUNcy6u25d8auiq61c7LueNZbI8BOLriNlqiL2m2anKxX0vVmR1H2ZIABhVieir4mS8WmcZvL3UFj7QRkWP4UjPXrwiEx7RLdk19bO5GJy7jktFN1ZktmYcrMrBB/2G01547fGXztnK1oTavFwEyqECT+zkDG3XvO0BERLagmGakA4seAPClSlt0FbnBGzvsx4JpZrkasWZ00x5b2zMJFOa1Zzd645ErOKqpO3ikjYjIJtL+RbdVYGBrV+BcX6zl70BLWRuytT1zSSEC245r2H7GEU3dHjssARGR9SWDoZ+Jyk8rbLFXqyGTfa0tL5a7ITtu/IgDGNCLySigV3jj0Zs4oqkneKSNiMjiUsHQj1FpgU3xah7aGGiNtFmhObmO/I8hvQpspiq+50tE/48jmnqKR9qIiCwsGWy8VFRvrrBN0/3V28zvWOUu34TvNI9huJeh56+syqvKeb5Eyz0c0dQbPNJGRMTAZg2KLSLyXU+85T4rNctlVE1TaE8DW4cIvuqNtzRzRFOvd2dYAiIi60kHwucpcHsFraeXuVSahidaFlsqOHtDo8Qli9GzgxybVeRMX6zlXxzRVAgGS0BEZC1Jf/g7FRXYRB/sW1szzmqBbcdW8oYeBrZ3Ifo5BjYq6FeFJSAislZgE8EfK2SnOiOKKz2JyK1WbFwqEDoRkMe7/UFFMg/zlEBiVitHNBV2H4KIiCwSEsKXi+D/KmPdLGk15HNWDWyKJpdCbun+57DYqMJxDGzE0EZE5FDJYHgagBsqZHEf0bwcaoXnr3UaoP2ZqQIc3M2Pze5XW3NM3bLIKo5oKsquDktARFTmgBAIXwfgmgpY1I0CXO6JR6ZbuZHpuol7aZVrOYDBXf2MAtO9wzdeKPPn5ziiqVj4yA8iojJRQFKB8O8AXFwBi/ucCzhneDwSs3xLq10/hXY5sOVF9SfeRPR6xDmmqbh4pI2IqAwWjJ1atc/61XcocI7DF7VdRX7sjR12azlf9t5V6WDjZ1T1VQBVXfjzzaL6ZU8iOosjmkqBR9qIiEps9Zjx/drXv/OQQk5z+KIuFJGve2Mtb5b7Ze9doYCk1fwjIF0IbJJWQyZ7W2e+yhFNpcIbEYiISmjFsKa927fUzoOzA1tORa7fUltzjCfW8qZdGt0WDJ8NSEMXwt3TpqlH+RjYqMR4epSIqESS3slecZmPAhjp4MVMCPB1TzzyrJ0a3Rqc0L9Kq94CMHQ3gW36uoFDvjdu4fQsRzSVGk+PEhGVIrDVTz5UTHMOgP0duog5ALe6MjXXDF/ZvM1uja/Sql/uJrBloPiuLxG5m6OZyoVH2oiIiiwRDI03VJoB9HfoIr5gmuZ3/MlZr9mx8alg6HCovATA1cmGcoUpepYvFn2Bo5nKide0EREVUToQPs9QmeXQwLZeFJd44jXH2TWwaUODGyrTOwtsAJ7MmziCgY2sgKdHiYiKEQbQ5EoFO36pqlc6dBGbTRMX+ZORd+28EKm2AZeJ6NiddaGK3OCNHfZjOzyqhCoDT48SERXYmtFNe2zZ1v6giIQcuHgxU/RCfyw6z+4LEvdPGeGS/KsA+nziV2tV5Ku+WMu/OJrJSnh6lIiogBK+0zxb2jPPOTCwtYvKtVnJHuSEwKaYZriRv2Mnge0/Lpd5KAMbWRFPjxIRFUibr/F409BmAPs5a8l0jgty8fBES8wpS5TyLzpfBCd85Ec5AD/zxGt+LWjOczSTFfH0KBFRAaQDoYsU8lt07fVHNslqeFUgl3sSLY85qa/i/lCdS2QxPrg5RJGEYZ7tjc16niOZrIxH2oiIeiHpbagVd/8/quKbDlqstwW4ri5Rc5fTjjopphlpWXTvRwLbPyWXn+ppm/0+RzMxtBEROVRqZMiHnDwMxWEOWaRNgFxfvc383dBV0a1O7LM2/6KLAHwewHoR/b4nHr2fI5nsgqdHiYh6IBmc3CBq/gPAvg5YnJwCdyOfu9aXmrPasX3mDY0SlyxSwTN5lW8F4y0rOJKJoY2IyKG2P38tc40orkbnD2S1z/KoRsXlvtLbOuMtR/dbQ4M7vaL/PFU85E1EbhdAOZqJoY2IyKHaRoaHmjl9AJAGByzOk6aBaf7WyFOV0HepQPjzhhhtdbGZcY5kYmgjInKwtH/SSSrGXwEMsfmiPAvoT73x6BPsVSKGNiIix9CGBndqZf+rRXEN7P1A8sdU9Bq+Q5OIoY2IyHG23x1qPADoZ+2aOQWIAMbPPfGZC9mjRAxtRESOkw6Gm1QxHcBAO4Y1CGYbJn5Wl4gsYG8SMbQRETlOLDBl3yrkpyvQaMPmZxT4hyF6gycWXcLeJGJoIyJypGQgfKoAdwEYarOmr1GRe9xG/vfDl896mz1J5Ex8IwIRVbxVQ0N9M33wawEustnO7CsC/NnI1Nw/fGXzNvYkkbPxSBsRVbRkMPQ5qNwhQL1NmmxCMEdMudVpL3InIoY2IqJPhzXv5IFwmdcLcJ5N1oUbFPoXNfM3+5Nz0uxBIoY2IiLHS/lDZ0DkD7D+g3JNAP8RyL1V28x/OvUl7kTE0EZE9DEJX3g/w8DvATRZvKkrVeQBF+QOvnaJiBjaiKhiKKYZKf+i80XwSwB7WbSRW0TwT1OMe72xmf/hC82JiKGNiCpKKhg6HCp/BHC0RZu4UIDp29z426hlkU3sMSJiaCOiirJy1JRB2Wz+VwJ8G9Z7Z+grAB4xxPgbT38SEUMbEVUkBaQt0Pg1hd4EYB8LNe1NFTSbpuvBQGLGcvYUETG0EVHFSgfCx5rA7wQ4wgLNyQP4D0QeMVw6o25ZZBV7iIgY2oioosUCjcPdwC8B/WqZ12t5AC+Iotk0c//wpeasZu8QEUMbEVW8NaOb9tiSyVwmiisB1JapGQkFHjMEj+XMmnmBRPMG9gwRMbQREQHQhgZ3euWA86E6DcDgEs/+HQDzoXjMbbjnDYs9spI9QkQMbUREHw1rgLQFw2eq4hcARpQwpD0jwGMQfbYuFn2Tz1AjIoY2IqJOwloqGApD5ecCHFzEWW0DsAiqL6nIS1XifoZH0oiIoY2IqAvS/sYvKPQXEBxV4ElnACyB4FU18bIYeNEzbONimT8/x6oTEUMbEVEXJerDJxgmpgH4fAEm9w6AJYC8KqKvGaa89u5e+y0dt3B6lpUmIoY2IqIeSAYbT4HqTwQ4vpsfzUCQhOItEV1mKpbBMN4y89VLeUcnETG0EREVwEeuWfvJLh6Muw3A2wq8I5CUiiagSLpMSUhVPjFs+axVvEGAiBjaiIiKJO0PHWeKnCfAvoC8BzXXwsBaNY13BHjXkFybUVX9zrClM9axWkREREREREREREREREREREREREREREREREREXfD/efZ305Is86EAAAAldEVYdGRhdGU6Y3JlYXRlADIwMjQtMDctMDhUMDM6Mzg6NTMrMDA6MDAn5780AAAAJXRFWHRkYXRlOm1vZGlmeQAyMDI0LTA3LTA4VDAzOjM4OjUzKzAwOjAwVroHiAAAAABJRU5ErkJggg==;" parent="1" vertex="1">
                    <mxGeometry x="533.43" y="796.6800000000001" width="29.64" height="28.62" as="geometry"/>
                </mxCell>
                <mxCell id="101" value="" style="shape=image;imageAspect=0;aspect=fixed;verticalLabelPosition=bottom;verticalAlign=top;image=data:image/png,iVBORw0KGgoAAAANSUhEUgAAAm0AAAJYCAYAAAAwvNGgAAAABGdBTUEAALGPC/xhBQAAACBjSFJNAAB6JgAAgIQAAPoAAACA6AAAdTAAAOpgAAA6mAAAF3CculE8AAAABmJLR0QA/wD/AP+gvaeTAAAAB3RJTUUH6AcIAyY11nw+7gAAbKlJREFUeNrt3XecFPX5B/DPM7tXAAUUVES4rQcYFAtYYstFI4qwe6CeKSYxJhFjjFETWxKNxFRLjJryi1ij0SReFG6XYoiF2AtgQRS4rQciIkQ6t7e78/z+AI2FgytbZmY/71d8Ge9uZ77zfL8785kOEBEREREREREREREREREREREREREREREREREREREREREREREREREREREREREREfXWktFN1YppBitBRB8QloCIqDyS3tAoGMZnRXQ0BCMBBKHYD8AeAKp2/NkmABsBbACwCoplIngNos/VxaJvCqCsJBFDGxERFdCKYU17m7WZ01QRBvB5AIN7Ocm1AsxWRSRrZGfXx+ZmWGUihjYiIuqlZCD0DYH8EUDfIkx+nQJ/NdX8YyAxq5XVJmJoIyKiXkgHGz9jqv5dgIOLNIu8Ag+riV/6k5HXWXEihjYiIuqhVUNDfTv6GA8AOrmIszEhuNdw4Zq6ZZFVrDoRQxsREfWAosmV9nfcBtHvFnlWmxV6kS8evZdVJ2JoIyKiHkoHQ79WlatKsLZ/oN2FC0Yti2xi1YkY2oiIqAeSgfAtAlxc7Pko0GqITvHEoktYdSL74YMbiYjKzBs//AcQebgEe+n1qvJcWzAcLsVypf2h47Shwc0eJirYd5iIiMpt6cjwnrV5vATFqBLMTgFc7o1HflusGSwZ3VTdrz2zBcAGQGeIGv+oSxz2hGCayd4mYmgjIrK1tsDEg0y4XkRxnuP26eQmcr031vKjYrxVYUUgHMwDrZ/Y4KwwRe8RF+71Losm2eNE3cPTo0REFlEXn/2Gilxdsr121SvTgfDtWoQd+Jxh7PGpkAgMF5WfIiexVCA8JxkMfY69TsTQRkRkS95hG34P4JUSzvK8VCD8m0JPVHOmuZttzwRRmZ8KhJ9PBkKTlWd+iBjaiIjsRObPz5mm8R2U8EXwAlyRDDZeWtBpuqVPF//0aIHMSAfCz7T5Q0dwBBAxtBER2YY/OfMlASIlDYuqv00GwqcWbHp5DOrmR44xRV5IB8L3to0MD+UoIGJoIyKyx8pZ5RoApbzTUgT4S8IX3q8QE1PRfXq02MA5Zg6JZCB8O8MbEUMbEZHlDU+0LAbwrxLPdl/DwP8VKALu3YtP1wgw1cyhNRkIX79qaKgvRwQRQxsRkWWp6O1lmO2UZCA0udeZDTq2AG3pK8AVHX1kMe80JWJoIyKyLO+wTbMBrCz1fAX4lWJaj7cPiiYXFKcUsEl+UXkiFQjftGJYUx+ODGJoIyIiS5H583NQPFSGOR+4IrhoUk8/nQ50HAVgcBG2Vz/M12QWJ+rDJ3B0EEMbERFZK7hBZ5RjvqbiO7349GlFbFrAMPFEMhC+PultqOUIIYY2IiKyhLrE2OcArCnDrE9K103cq4dR88wit80lwBXi6r8w4Zt8JEcJMbQREVHZ7XjB+jNlmHW1WWV0++L/hG/SIQBGlqiNnzEM89lksPE3rcEJNRwtxNBGRETlDW6qL5VnxsbR3d6oGMaZJW6lW1SvrNLqBalg6HCOFmJoIyKislHBy2XJbKYGutXOhgY3gK+WqUoHQeX5VCD8Q77HlBjaiIioPHEk70qUZcaCbr2RoG3FgK8A8JaxVNUAbmoLhOcW6s0ORAxtRETUZVv7Va1CaV9p9dEQ1LVgCYhCr7BEyAVOMQwsTvtDkzh6iKGNiIhKZvSS5g4A75ch/Kzq6t+2BRvPADDaQmXbR0UiKX/o5gVjp1ZxFBFDGxERlUqpj7RtcwM/7Mofxv1NA6B6swVrJhC5dPD61c+lRoZ8HELE0EZERI4LbQK5ang8EuvK37qMzM0KDLdw7cYhJy+n/I2ncRgRQxsRERWblnBGt3riLbd15W9TgdAEKM61Qf0GQXRW2h/+1Y67XIkY2oiIyNbJ8D5v/PAfdOVvk97ThgByN+zziA1RwY/SK/r/a+nI8J7sbWJoIyKiYuhf/MCmt3njh5+74y0Mu/nbaQbc7vsADLFhLU+szeHJlaOmDOKwIjvhAwiJiCwu7m8a4JLM+iLOIgeRS7yxlj929QPJYHiaKK61dWEVr2aN7Pj62Nz3OMrIDnikjYjI4lyu3NAiTn6tqEzoTmBL+cNni+Ia2xdWcGgVqp5aMWLSARxlxNBGRES9zxa5/LCiTFjxolvch3kSLY919SPpYOOZENzjmO2HYlTeNB5bNSI0mCONGNqIiKh3ucKlRxR6kiK4ZUufmhOGxR5Z2dUPJf2hL6vq3wE462G1ilEdOZm1esz4fhxtxNBGRES9iVjHFHBqG0XwRU8scumONy10SToYbhKRuwG4HFljwVHtW2oe4uNAiKGNiIh6ZMHYqVUQ/WxBconoS5o3DvHEIs1dzouYZqQCjb9UxT8A1Dq72nJa24oBdyhv0iOGNiIi6q7B768eD5W9ezkZFcEtm2tqj/elZqa6+qGU5/T92wKL5gD6Y1RIkFHoN9qCoV9x5JEV8TAwEZGVCb7ayylsAuQcT6xlRnc+lPKHzoDk/qxAxV2grypXpQON73T1rRBEpVsdEBGRJa0Mnj4sp7k4gOoeTiJmID+lLj77jS6HNc/p+8Odvx7Qr1V4+VVEz/HEovdzJJJV8PQoEZFFZTV3WS8C26OaN47oamDbfu1a+Htw55YysAEARFXuTAVCJ7IUZJlByRIQEVlP28jwUDOHVgB9exA37vEM2zRV5s/PdeXPk/WTDzU0f7uqHMnKf8q6vOrhgUS0jaWgcuORNiIiC9IcrulJYFPobZ5Y9FtdCWyrhob6JoPhaWKaLzGwdWqQ20DzktFN1SwFMbQREdHHpEdM9Cvwre7mNVFc4otHLxZAdzuPYGOoo4+8teP9oVWs+i4Kq3Jkv/aOX7ISxNBGREQfDwmm6yfdD1J6hScRuXV3f9UanNA/HWi8R1UjAOpY7S7X94fpYGOIdaBy4jVtREQWkhoZ8iEny7oT2kTlWk+i5brd/d2KQDiYh0YAOZCV7pG1hhuH1C2LrGIpqBx4pI2IyEpycgG6d5Ttt10JbOlgYygPvMTA1iuDNYe7+cYEYmgjIqpwSW9DLYBzu/r3AvzLEz/8it1O1994laq2ANiLVe4dBU5p84e/z0oQQxsRUQUTY8Dp6PobCFKuKtfZgmnmLgKGpAKNN4ror8GjQ4ULboLfpIOh0awEMbQREVVsauvyQ23bIXrGsKUz1u0qsKX94d8DehkLW3C1qvIXRZOLpSCGNiKiCpPynL4/gJO79td6jTcWXbSrv0gHwj+D4EJWtmjGpvyZ81gGYmgjIqo0VbkvA9jtkRsFFq8duP+tuw5sjV8HcA2LWlxi6C9XjpoyiJUghjYiogqiisld+TMDuGDcwunZzv4gWd94lEKns6Kl6DTZO5vN/4qFIIY2IqIKsWR0U7UA43YfEnC3Jx55trNfrxndtIeY+iCAGla1NAT4dps/PI6VIIY2IqIK0Lej4zAAfXbzZ+1GFX66qz/Y1t5+EwA/K1ra7agCv2UZiKGNiKgCiOqxXfirO3b1JP5UIHSiQqaymqWnghOSgdBkVoIY2oiIHL/V1929pUBd0Ns6++XqMeP7AXIH+Cy28gVvyE1LRjdVsxLE0EZE5OxN/v67+YN/DY9HYp39sn1z7fXgadFyC+zR3n4+y0AMbUREzjZ0l5FO5K7OfrcyePowCPi8MAtQyDWrhob6shLE0EZEVJmhbXPVVnNOZ7/Mau4yADwtZw37ZGrB6wqJoY2IyME6fUSHAnOGropu3dnvWoMT9hHwKJuViMhlrcEJfOQKMbQRETlUR+chQOd19rsquM8DwNNx1nKAW6u/wTIQQxsRkTN1+oYDzbke3+nPAYHKuSyd9Qj0Cm1ocLMSxNBGROQ02umRtrd9qZmpnf0iHQwdBiDI4lmSP922ZyPLQAxtREROy2yClZ386tXOc56EWTkLE3yPRaBC4+FbIgdbMaypj2lsrQWAqlrDlW0385/8m45qc2t9bG6G1Srn3rPEFXr8Trb8r3WaCUycykfpWjq1NbQFJh5UF5/9BmtBDG1EzgxZe2erMvu4DAw2RQfDNPY2oP1VsCeA/goMADBQ8OF/9xegH0QHQuWDTfieH3y388gAcG0PZ3kAVa5PzbNKXUgFwgCgANZj+/VVmwFsA9AOYCMgGwRYD9H1MLEewHpTsN4Q+a8J8z3TxKrqjtr3hq9s3sZe7D4Fdv7gXNX4zn68ctSUQbls/ghWzur96roQwAWsBDG0EdnIylFTBnVk8gcYguEqMgxiDjVUPAocAMgQQAcDGJxHxm3sSE+iAohCP7rv/sl9+Q+3DgU55CIA9trx//f95OZHP4h18r8/VlUIBC4B8jUZpALhzQq8I8AagbRCNWVC2tQw33bBWLnNpStGLYts4oj4ROEFy1R31iFmemd/n83mTxZe3mKHMP7V1uCEK+tjczeyGsTQRmSxYJbN5eoNoF5VRmD7ReL1AOpz2Xx/w/hgQ6yAykfCmDqpDHvIjmVW6LGQ7csrKlAoanNAKhDeCGCFqiYMQ+JQTagacVM1nndlU5V4qjarxlNu5PWTuTyHqhWdfOTz/MbZ4/vgVvfpAO5lKYihjajEkt7JA12GGcxD6w0Y9WroCIHWKxDMZfN7C8RZEaw4+gMYLSKjtx9d2n5E0RDA0CozFWhcIdClELwFxVtiyltGjfHmsKUz1jm1IMH4jDWpYPh1KA756M9VsL6TjxzIYWQTIl9haCOGNqIiWjK6qbrP1m0HulzGwabiYAHGADgYMA8wAWwPZ4rt/+PV4AVkAOpRwAPFKQCghsLM5pEKhNcC+oYCr0ONV8UwX9tSU/vG6CXNHY5YchOPQz4e2lz593d6Wk2AURwqNslsihNTntP396YfeYfVoF6PJ5aAKt2CsVOr9n1/9SGmoUeKGkeY0LE7NopVrI7lZQG8pcCrBmShivmMJ1b7mqA5b7cFSQYnN4iaT3502bzxyKfeKdoanLBPlVatYdfbh6pe6ktEb2EliKGNqJvSIyb6YRrHqhpHQPVICA7FLt79SLazEcBzgDxjGvq0ZDe+5EvNb7f8hh2QdCC8HP97YO5OQ1s6MHmswlzAbrZRaANe9sUjR7IS1Fs8PUoOX1k2uVL12YMNM388gGMVcrzmMfR/m0nWyIH6AzgV0FMNE4CrfyYVCC8Q0afVlGfyqHkmkGjeYME9aE2q3CWiv97xo53eHSqm9lXeN2orAoxLjQz5vMuiSVaDGNqI/rdHK0nfpDGGyzgJii+kkTlWTPTndWcVrQbAsapyLARwIZNPBcKvieApEzrf3V779PCVzf+1REvN7L1wua/D9lPzhgIin7i9OO9CX+HdLvbLbTk5E8CNLAX1cgeAyN7i/lCdC/IFCL4A4CR86hljRLuOSgosEch8ETyVVeOpYHxG2a4ZSwXDf4JufyBruxv9P/lcu1SgcQqgj7DbbLaxFX3JE4sexUoQQxtVnAVjp1YNev+dMyFyqQB8MjwVkkLwOlT+LabOM7I1z5TyTQ8pz+n7w52LAeibV/UEEtG2j/4+HWw8U1Wb2U32G1eaN/y+1MwUS0E9xSsjyFbSdRP3SvtDVw5evzohIg8ysFFRdmYVhwB6mRqYl6/JrEsGw/NSgdBlCd+kQ4p9JaQ3/cg7orgVAER1r09t+U3lq8JsOq4Ml4ZZBuoNXtNGthD3T6p3wXWJQs+BoB8rQiXURxQnA3KyYQjSgfC7acjcvKH3+FojT0sxXmmRy9+IKteF4nINAfCxl8aLGKsVJnvFhhTaAOA2VoJ6vkdJZGHpQPhYhVwGaBg8MkyW2wijFSp3u6r0vrplkVWFnHYy2PgbKJK+eMvtH/tOjJjo17wrzurb0jpP/PB9BdOYuqlHuBEkC24Ipxkpf+iMVKDxOQWeAXQyxypZdK+3XkR/beaQTvpDkWQw1KgNDYU5g5GT3xiqtZ/6ca7vOlbetgYlfYsOYhmoF+scImtYPWZ8v21b+0wV1QsBBFgRsutQVuA+NXG3PxlZ1psJpesm7uVpm/3+J3+eCoRXAjiApbbjRlcu9sRbeIqUGNrIvmGtfUvNBYBcDj6ug5zlGYXe1adfpnnI6/O2FGqiqUB4DoAJLK8tNXvjkbNYBuoJnnKison7mwakAqHL2rfUJgC5kYGNHOg4gdzTvqV2VTIQvj1Z31iQ53Sp6MssrU0pxrEI1FM80kYll66buJdWGT8E5PsA9mRFqMJWu2+omnfVuPHXocuja3v0HfKHJqlIlLW0Z2xzZWoGW+YtHMTQRrQzq8eM75fZXPM9FbkSwF6sCFW4DgjmCXBf3bCNM2T+/FxXPxgLTNnXjfy7LKFNN7wqJ3sSLY+xEsTQRpazamiob0cfuQDAlQD2YUWIPrUiXmGK3oOc656uPjE/FWhcDCjvRLQhVfmRL9HyG1aCuosP16Wi2X6DQe13OoArwOvViDrfiAPDReWncJlXpwLhJxS4KyfZGfWxuZlOg56iWQUMbTZkiHkoq0A93MEjKvQGqMnVFsh8U4HrAAxhRYh6snbW/6rir2rq3f7krNc++etU/ZQDYebfZKFsaYE3HuEr+IihjcorGZzcIDBv2f7uRiIq1EZeFXebqHkwkGje8GFwC4RfAzCG5bGddd54ZDDLQAxtVBaxQONwN/BLQL/GahAVTTuAqKhMr0u0PN4WDH1VVe5jWewnrzUDPxrAiRjaqOiWjG6q7teeuRLAjwHUsiJEpdtXAnAfgIsBDGI5bLf1Pdwbi7zCQlB38EYE6rFEffgEo739z4AcyGoQlVwQ268bJTtS8QJgaCOGNiquNaOb9tjSnvmtmDgPEB6tJSLqJoE5jFUghjYqqoRv8pFb2jN/FaCe1SAi6hlTjANYBWJoo6JYMHZq1eD1q38KmFdx3BAR9Y5AeaSNGNqo8OL+UJ1r/eoHARzLahARFYAqj7RRtxksAe1Kyh86wyXyGgMbEVEhyVDWgBjaqDA7gYCkAuFrINIMYCArQkRUUHuxBNRdPD1Kn7JmdNMe6UzHvVA9g9UgIiqKASwBdRcf10AfkwyGjhaV+7H9GVBERFQkmt/Yx5ea385KUFfx9Ch9KB0MN4nKkwxsRETFl3P32ZNVIIY26rakP3SJKv4BvoqKiKgk+qBPDatADG3ULalA+GoRuRk8XU5EVDJ5I1PNKlB38EaECqaApAONNwB6GatBRFTidbBW80gbMbRRF1YWDQ3u1Ir+fxToVFaDiKj08nnkWQViaKPdBrb0igF3C/RrrAYRUXnUGLKVVSCGNurUktFN1em2zAMQPZPVICIq4w50u4uhjRjaaOeS3oZaY1tHiwrGsxpERGW3jSWg7uDdoxViwdipVeLa82EVZWAjIio/c9jKZj5Ylxja6OMUTa591r9zPyCnsRpERJawQQBlGYihjT60YOzUqrQ/c69CvshqEBFZxjqWgLqL17Q5WGtwQk31+tUtKjiF1SAishJ5jzWg7uKRNodSNLmqzKq/KhjYiIist45WhjZiaCNAMc1IBzN/gYCP9SAisiARtezp0bQ/dGXS28D3UDO0USmkgq/8CoqzWQkiIqvuXRvvWLVppsgx4trz4SWjm/huVIY2KuoeUqDx+6J6JStBRGRhgqR1m6b9ATmtX3vHPxaMnVrFzmJooyJI+cPfVOgtrAQRkcUzm5lPWrh1/bf/WycP3vDu37ShgTctMrRRIaWDoa9BcAcAYTWIiCzOrRYObej/4f9TPSO1ov9dimnMCwxtVKDAdpaq3MP+JCKyhfx7ex6wwsLt2+uj/yHA19uCi37Lbis/HpWxuZQ/dAZE/g4+c4+IyC4S3ngkYMWGtQYn9K/Sqg07/61e7o1Hb2L3lQ+PzNg5sAVCEyDyAAMbEZF9qOoSq7atClW7CJNyQzIQPoc9yNBG3ZQMhE8FZAaAGlaDiMhGG14Dlg1tAtnVEUAR4I5ksJEPbWdoo65KBUITBJjJwEZEZEdi2dAG09zdadsqUW1OBcOHsR8Z2mh3gc3f+BVAGNiIiGxKYd0jbSrSlWvt9oQi2jYyPJS9ydBGnUj6Q5dA9H4AfEo1EZE9dWhu41sWbt+BXfy7A8wcWlYMa+rDLmVoo4/vlUkyGJ4mIr9jnxER2doCX2p+uwNCGwCMy9d23K98EgVDG23XGpxQkw40/kUU17IaRES23wl/xqptS/jC+wEY1L0F0jNSwdA09ixDW8VbOWrKoCqt+hegX2M1iIgcsNEVsWxoE5dxYI8+p3LN9uutiaGtQrUFJh6Uy+YXAPgcq0FE5AjqchvPWTa0QUf3+KOid7b5w+PYxQxtFSftD00y4XoOgJfVICJyjMXDls5YZ9lEqXpCLz7exxT556oRocHsZoa2ytgFa2hwJ4PhaSrSAmBPVoSIyEHreJG5lm3b9gfn9vLMjno68vIPRZOLvc3Q5mhxf6guvaL//B03HLBfiIgcx7RsaEv6wgcD2K8AkzqxzZ/5Ofuaoc2xUoHGKS6RVwEcy2oQETnSxnUD9rfu9WyiJxZqWiq4Kh1sPJNdztDmKHF/04BkIHw7oI8A2IsVISJyKMW8cQunZy3bPpHPF3Jqqnp3Otj4GXY8Q5sjpP2hSS7JvCnAVFaDiMjZRCRq3TzZ5BLghAJPdk9VbV49Znw/9n7huFmC0or7mwYYkrlBGdaIiCpFe06rW6zauBX+9sMBGViESX+mfWvN7wF8k0OgMHikrWR7MpB0oPHrLsks49E1IqKK2gDMCiSaN1h4+3Ri8SYu56aDIT4gnqHNPpLe0Kh0IDxPoX9BYe7OISIi+/ibpVtX2OvZPp3bVP6U9IZGcRgUoKtYguJJ103cy6xyXSvAheCpaCKiSrRR8xv3s+pL4pPehlox+q+FoNjXni3KSvaY+tjcDIdEzzFIFEFrcEL/arP6EhW9VICBrAgRUaXSh6wa2ABAjP6nlSCwAcDhbnXfAOBijome4+nRAlo9Zny/tD98cZVWLVfRn4GBjYiooglcf7Z2CpCvlK4WclEyEJrMUdGbGlKvJXzh/cSFC0TxXQD7sCJERARgkTceGWvVxrUGJ/Sv0qp3AdSWLnXof12Gjhm+fNbbHB7dx9OjvRD3TxlhSO5CAc6Dog8rQkREH+YTwNJH2dxm9RkQrS3pTFX2zuflXgXGC6AcJQxtRbVkdFP1HplMo6qcD+RP4sFKIiLaiU19amssfdeoCM4u06y/kA6EL0Q88gcOk27vCFBXxP2T6g3D9S1RPRfAvqwIERF1SnGzNxH5oVWblxoZ8iEnMZTv2vZ2ER3niUWXcLB0HY+07cKqEaHBmbxxhkC/DOAEqDLkEhHR7mTz0Fut3EDJynkqZb0ZsdZUuUcbGo6R+fNzHDIMbT2S9E4eCFd+skC+2JHHFwTKGhERUXci0d8DiUibVVu3YOzUKl2/+tyyVwk4IrWy/9UApnHMdLlmlW31mPH9Mpv7fNY09DhRHIvtL82t5tAgIqKeUMM4zNc681Wrti/lD50BkX9apDk5NeQ4X2vLixw5DG2f/jKhyZWq7xgH1Qli4lQIxgFwcSgQEVEBtjJzvPHoRCu3MBVofAzQkyzUpGWuTM1hw1c2b+P42bWKOPWXGhnyadZoENGT08iMFxODKjOyEhFRMRObwPVTKzewzR8eZ1orsAHAyHxNx3UALucQ2jXHxRZtaHC3rdxzJNQYq2I2QOXzALzsaiIiKu4WVR72xlrOtHITU4HwQwCaLNi0vKH62bpE9GUOJIeFtlVDQ307+hiHQswDoeIFdAgg+wPwAfCjlE93JiIiAvIiMsYTa3nTqg2M+yfVu8R4Cxa9JEiBxVtra8aNXtLcweG0c7Y4PaoNDe7Uiv5fgEiDqB7fARwBaBU+fAIHz3MSEVH5CPBXKwc2ADDEuAwWvoZbgIP32NZxFYDrOKI6rZF1rfA3HpyHfgPbn9q8H7uLiIgsaGte9cBAImrZx3wkfKd5DMO9HNZ/OkJGRMfyobs7Z7kjbYppRjrwSiOgl+Whx7CLiIjIylTwi0DcuoENAAxxXwN7PM6qRk25S9F0rKA5z9H1cZY50qYNDe62Ff3PVeAyACPYNUREZAPLttTWjLHydVg7rmV7EzZ6YoSK/MAXa/kdh9cnwrcVGpEKhg5Pr+j/kgLTGdiIiMguROV7Vr9w3mUY18Jmj/gS1V+kRoZ8HGEfV9ZO3H4XqFwHxcXgK7WIiMhGFHjIm2h5zMptXOFvPDiv+mUblrcvcvJ7AJM40v6nbEfaVgTCwY4+8jyAHzKwERGRzWxyu8wfWL2RedFbYZGzaj0wMRkITeZQK3NoSwfCx+aBlwGMYRcQEZEN/Wz48llvW7mBKX/jVwB83s5FFsitq8eM78fhVqbQ1hYMhxWYB2Agy09ERDa0ZO3AIbdZuYFLR4b3hOiNDqh13batfa7hkCtDaEsHwleYihkA+rL0RERkUxeNWzg9a+UG1uZwLYChTii2qP4gHWz8DIddCUNbKhC+ToHrYd9z60REVOEUeps3HnnSym1MBcOHAfi+g8peZar+Wfn6o9IEqGQw9DMAPLxJRER2tiAnuSus3MAlo5uqVfEXAFVOKrwAx7cFQ19laCuydCB8nqj8lN91IiKysfXiyn+xPjY3Y+VG9mvPXCPAwU7sAFW5MemdPJChrXiB7VgF/sDvOhER2Tsx4Fue5bMTVm5isn7yoQCudHAv7Ge4zWsreRgW7fxwLDBlXzfyr4MveiciIntvKm/yxlsut3ILVwxr6pOvybwMYLTDOyNrmjjYn4wsq8SRWLQjbW6YtzOwERGRreOayjxPvPoqq7czX5v5bQUENgCoEmc8ysQ6oS0ZaPwioJP5dSciIhtLVbnNswXNeUs3MtA4BYoLKiZIi4QSwdD4ityJKPQE4/6mAS7JvAmHPB+GiIgq0maXyjHDEy2LrdzIWKBxuFvMV6GydyV1jgKLvfGaw6weqAut4EfaXMj8loGNiIhsLGcIzrZ6YFswdmqVC/pApQU2ABDg4JQ/c16lLXdBQ1sqEDoRgm/y+05ERDalELmgLhaJWL2hg9a/c5MAx1dqR4nguri/aQBDW49G+TQDkBvBJxYTEZF9o8A13ljLnVZvZcofPlsg36/wztrHJZmfVNToLNSE0sHQWaryD37hiYjIllT+5E20XGj5wBYMHwbFswD6sNOQMcQYXRebGa+EhS3YkTZT5TKOHSIisiXB3Z7EYRdZvZlJ72lDoDKDge1DNaaav6icYVqI1B9oPAbQZzl2iIjIfhtCvb0uPva7gmmmldvZGpzQv0qr5gM4jL32MSYE47yxyCtOX1CjMAMe53HMEBERA1txLBg7tararG5mYOskyyh+WRnjtZdWjxnfr31z7bsQ9OO4ISIi21D9nScR/aEAaulmYpqRDix6AMCX2GmdMw18zt8aecrZ6bSXtm2pDTGwERGRrfKa4GfeRPQH1g9skLR/0W0MbF0INCZ+7fhlLMA0vsyhQkREdslrAC7zxSLT7NDYVLDx1xBcyG7rkmPSwcYQQ1snkt7JAwU4heOEiIhsIA+Rqd545Ld2aGzaH/6VqF7JbutGIlf8avtzYxnaPkUM80QANRwmRERkcZtEZIodHpz7QWBTwY/Ybd2ObQe1BRd9haFtZ6Ux5EgOECIisriVEG3wxFqilo8caHKlAuHfM7D1ooaKny8Z3VTN0PYJonoEhwcREVk3BOHprGQP98aii6ze1jWjm/ZIB9ojAL7HnusVb99tGUe+B93o+RehyQVgLMcGERFZM7HJn7bW1nyhPjb3Pas3dcWISQds3ZZ5GpDT2HG9JyJXLRg7tcppy+Xu6QeTvm0HGTAGcGgQEZHFrBeR8zzxln/aobHJ+smH5vPmLAgOYNcVLLF7Bm945+sA7nLSUvX4SJshRoCDgoiILLWpBl42xBjnidkjsKV94ZPFNP8DMLAVfjDIj7Whwe2kRerF6VGt44ggIiKLyKvI9esGDjm2LjYzbovAFgifpwbmAOjP7isKf9uKAY66k7THCdQwsJ8qRwQREZWZImmonFOXbHnaHs2dZrQFF/5SFVex84pda/2xoukBQXPeCcvT4yNtpspQDgciIirzVvmu9iocYpfAlvCF90sFFz2qKgxspTEyFcg0OWVhehzaBAhyLBARUXlIWlRD3kTk26OWRTbZocWpQOhEw8ArojiZ/VfCkQJc7ZS3JPTimjbsw6FAREQltlVUrnVlqg/0JKKz7NBgbWhwpwLh6wD5N4D92YUlNzrtXzjFCQvS42vaBOjLcUBERKXKPgD+kYNcEUy0rLBLo1f4Gw9Or9C7AYxjF5aTXK3AI7J9HFVeaAOwhYOAiIhK4AmIebU3Nut5uzR4yeim6r6ZzI/zqj8CUM0uLHdmw6Fpf+MEJFrmVGho0xggIzgSiIioSF4A9CfeePQJOzU6Wd94lLR33AngIHahpYLbDwDYOrT14sI8eYsjgIiICk2Bl0U15I1HPmunwJaum7hXOhD+PzH1OUAZ2Kw3sk5K1k8+tFJD27McAEREVEDPikjYG48cZZebDHaETEkHGr+uVa6lCnynd9tWKibJmz+0dft7+sGlI8N71mbxDgT9OAyIiKiHTFWdLWL8xhtvec5ujW/zh44wRW4GcBy70hayLpfpG7581tt2bHyP9wZGLYtsgqEPsf+JiKgH1iv0NnHl632JaNhugS3uD9UlA+HbTZEXGNhspSqXN75v18ZLbz6c9oeOU5GnOQaIiKgLVBRPKzA9a2T/WR+bm7HbArQGJ+zjVvfVAvkOeFeobXcY2t2os8tDmT+qN4/8QF1i7HNtwYUvqcqRHANERLTzqIZXRfC3nOrfA4lomx0XIekNjTJcuERVvg6gDzvV1gb2yeKbAG61W8OltxNIByaPVZgvAnBxHBAREbY/wHSRKKIwpNkTa3nTrguS9k86SUV+AMiEQmwzyTIjNOlJ1NTb7UXyBRmAqUDjbYBexFFARFSxG8EtEPk3BLORdc32ph95x66LsmR0U3Xf9syXRXApFIewc51JBGd5YpFmO7XZXYiJVG8zr+roKydDMYrDgIioImwW4FlT8B9R+c/avfZ7edzC6Vk7L9CqEaHBHXnjfLRnLgSwv71feES73c9QuRSArUJbwQ71JusnHyqm+QKAGg4FIiJHyQJ4A9CFqrLQBV04vG7TKzJ/fs7uC7ZkdFP1HpmOU1T1ywAmg9erVVZwM4zDfK0zX6240AYA6UB4qgJ/Bs/7ExHZ0buAJBTaKkCrAjEDRmuHZN6w452enW6o0eRKBzInAPgyRM+Ayt7s+sok0Ns98eh3KjK0AUDKH/4mBNPBGxOIiKwsB5EWAf7iguuV1QMGv2v305u7smJY09656vZTRCQE0VMY1GiHTVnJDquPzd1YkaENANLBcJMq/go+w4aIyOpMKF4WyByBOXd4onaR3e6o6ySk9cnVZo8yTPNzAE5UwTEo0HXc5DCiF3pj0T9VbGgDgGSw8RQx9WG+5oqIyEYUWyBYoCIvQM0XJFf1oh3uBE15Tt9fXNmxKnKUAp8T4EjwGmvqmte98Ygt7hIu6rVnbf7wOFPkn4B6OCaIiGzrHQFeN4HXRPG6C/J6ztzQ6kvNby91Q1qDE/pXoSogkABMfMYUHSvAWAAHsJuoF2HoOE888mxFhzZg+3UE+ZqOhwA9icOCiMhR1gBYqcBKgaQh5moA7yqwVtR4L6/G2uoO91qX2d4+dFV0a2cTUUDa6iYONI2qASpmf5fIvjDM/VVliAiGqmI/QLyABgDsy7JTwSn+6k1EvlbxoQ0AFoydWjV4w+o/Q/FNjgwiooq1FUBmx7/77vhZP/D6Zyq/9mqXDh+6PLq24kPbB9L+8MUquBmAwfFBRERE1qGXe+PRm6zcwpKGJ08icqsIvgRgGwcHERERWYecrxZ/zmzJj3h5YpFmET0CwEIOECIiIrKIYDoQbmBo+1Rwiy5ZO3DIZ1XlRwA2cZwQERFRuQnk69ZuX5mtHDVlUDab+6lAvgs++JCIiIjKRbGlb5+aIfsuad5sxeaV/YaAYUtnrPPFoxfDrSMUmA4gx1FDREREJSfoty2TmWzd5lnMikA4mAceBRDg6CEiIqJSUsG/fbHIeCu2zXKP3hgej8Qg+hSHDREREZWaKE5cMWKSJd+wYcnnpakpL3PYEBERURm4zLxxNkNbV6sFMLQRERFRWShwDkNbF23qU/M6tr/qhIiIiKjUPpMOTB7L0NYFo5c0dwDyDMcMERERlYMJ03IvkLfwO0B1LocMERERlYMAX1kwdmoVQ1tXGubG38BnthEREVF57DP4/XdPZmjrgrplkVUCzOaYISIiovKkJD2Doa2LTDFu4YghIiKislA0akODZV6xaenQ5ovNnK98/AcRERGVx6C2tgENDG1d5BL8gmOGiIiIykKsc4rU8qGtLhaJAHiMo4aIiIhKTYEpiiYXQ1sXmaZ5GQCTQ4eIiIhKbL9kfeZYhrYu8idnvQbRv3PcEBERUamJaY1TpIZdCpY38SMA6zl0iIiIqKShDXK6AsLQ1kWBRLRNRM7j0CEiIqISG5YKho5iaOsGT6zlnwrcx7FDREREpSRqlP0UqWG3omXc+B6ANzl8iIiIqHT0dIa2bhq1LLLJ5TLHA2jjACIiIqIS8afqpxzI0NZNw5fPeltETwPwPscQERERlYKqeSpDWw94YtElAoQY3IiIiKgkoclEWUOb2L2A6WDjZ1R1LoA6DiciIiIqokxtv/ZBQ16ft6UsodHu1fPEWt50i/tYQN7gWCIiIqIiqmnfXNtQrpkbTqjgsNgjK7PSMU6AP3M8ERERUdFI+U6RitNqmfKHz4ZgOoC+HFlERERUSAq0+uKREQxtBdIWmHiQqa47ITiKw4uIiIgKyQXUD49HYqWer+HEYtbFZ7/hSdQcq5DvAHiHw4uIiIgKJY/ynCI1nFpQQXPeF2+5vbZfe70Kfgy+bJ6IiIgKoyyhTSqlunF/0wAD7eeKyIUAghxvRERE1ENbNb9xkC81v52hrYgUkDZ/40kqehaAMID9OPaIiIioWwFK5WRPouWxUs7TqLgiA+pJtDzmjUeman6jF4pJKnI9hx8RERF1lYqeUIYMQytHTRmUy+bXshJERETURU9645ETSzlDgzUHMh25fr0J2wDeq5BSvb/jnyxHDRERVbijloxuqi7lDN2sOeByufvBzPc0sd1hiB6qKvtYfDHzANZAsAaKVQKsMUVWwzRXC4w1amCdYeZzEPf6vGlmXVX5zZqp2Saaaa/zb9kk8+fnOpvwktFN1Xts2vph8JU+rj7I5ffOGa69xdS9RWVvyP/+rSqDINgbgqFQeAHUchQSEZHN9O2X2TYWwPMMbSVk5HN7mNKjM8UrTa25QpBZaJFFeRvAcgVaBdpqiCzP5ZESza3xpo5cI5hm9miqbbv+9eglzR0AOj7yo/cBrOrq5JPe04bA7fJCxQsVryGmVyEeCLxQ+ADUcJQSEZHViBrHM7SVmCmyR48+qPhOING8IRUIDy5hc7NQLIHIYkCXi+hyhbT2ralp3XdJ8+bOPzbHsvX3peasBrAawAufLnGTK12fGyGaOximHKoGDoZiDIA6jlwiIiprflA9DsANJQuJLDmQ9ocmqUi0m4Htr95E5GsLxk6tGrx+daZItcwD8pZAFyqwQEUXILfp1VI/F8aSfVY3cS+z2hhjKMaoyiEQPQaQURzTRERUMqL/9cTG7tPjM1ndxCNtAEyBu5tb+nfd1a5LAGDv/67eG0bBgsI2CB5RUxcYwIKaPTKvDHl93hb20Kd52ma/D+A/O/4BAKwaERqcMXGsmHICgGMhOBxAFatFRERFobL3Sv8ro5HAYoa2kgVl6VbsEsFFw5bOWAcALpcMUtVCNeQX3lj0V+yRnhm6PLoWQMuOf7B6zPh+7VtqjhKV41XkeECPA6+PIyKiAsob5vEAQ1vpQpsBV1dzlwIRbyzS/GFniQ42CpPZlmypqb2JvVE4O45SPrHjH6wY1tTHrO441hQzZECmKDCcVSIiol5ROQ7AnxjaSsRUMQRdSl7v5uE672OBT3WvAlxGZQpw/o67MKlIhq9s3gbgMQCPKXBJOhg+FIqJUEyC4AjwuYVERNR9x5dqRtxIAYCaXamDQuWbwfiMNR8LbabRr9ezB+70xCPPsiNKRwD1xiKveOORX3gTkaOzkh2i0HMBPAogxwoREVEXDUt6J3tLMSMeadu+Ae/KEa4/ehMtn3puhoj26+XZ0dVGNn8Ve6G86mNz3wNwL4B7Y4Ep+7qRPwuQrwB6NHhHKhER7SpHGPmxAFLFng+PtAEQGBt28wevuTI1V+z0d4q+vZm3in5nx52QZBHB+Iw13njkD954yzHiygcBXAPoW6wMERF1khMOK8VsGNoACMxdhbYNLsWZO66H+hTT6EVoE33QF4u2sAesy7N8dsIbj/zCG49+BoLDRXALtr/xgYiI6IMN+uEMbSWShbuz0KZQfHN4PBLrPHdpT69pey+L3CWsvn14Y5FXPLHIpVnJ7i+CswA8x6oQEREAhrZSqe5wr+0kkV3tTUQe2eWHe3x6VM7fcR0V2Ux9bG7GE4s0e+ORY9WQoxW4D0A7K0NEVLH2S3lO35+hrQSGr2z+L4B3Px7G5E9dedCtSPdDmwB/8cZbZrDy9udrbXnRF4+c465yDQNwBYAEq0JEVIFc+aJf18bQ9r/09cyHeQ16mydR/f0ulrC7T9iPb3PjIhbcWYYtnbHOG4/c6IkfXr/j1OkrrAoRUSXlCC36KVI+8uPDoCZ/EKgXij/5EtG7izSbrGkaXxm1bOYmVtyh31lMMxFDswL/TAdCpwLyYwDHsTJERI5X9CNtDG07+GIz5wMYV9RgKLjWn5z5EqtdCeENinh0LoC5aX/oODXkSigmgs98IyJyJgVPjzpmI64yzxs7/HpWovJ4EtFnvLFISGAcAeARACarQkTkuL11b7pu4l4MbVYO1oqtXejJdJXbPFswjRvrSg5v8ZkLvfHIGSI6BkAzK0JE5KzYplWuQxnarBzaRDfv5k/aBXLG0OXRtawWAYAnFl3ijUfOEpWTASxiRYiIHKOoNyMwtPU2VgObdpnpBOd54jMXslL0qfCWaHnMEz/8CCi+ihK8s46IiIqeCQ5maLMyxapd/PZKTyzyVxaJOv+CTzO9icgDawcOGSHA+QDWsCpERDaNBIpRDG2W3uia6U5+c5M3HrmRFaKuGLdwetYTj0zXvDFSgVsB5FgVIiLbhYJRxZ089UprcMI+VVq1+uMBWG7yxFuuEEBZIeqJVDB8GEz8HwRHsRpERPZhuHFA3bLIqqJMm+XtnR3vD/3g6fcdUHzLG2+5nIGNesMbi7ziSRx+jCouAPA+K0JEZA9mTot2tI2hrRAdZJrfAuRqFzDam4jczYpQIQimmb5E5M85uEYBcj+4I0BEZIeV96jiTZqIbCEZnNwgmv8TIAeyGkRE1qTQ23zx6MXFmDaPtBHZhC82c/6W2tpDRfFrAHlWhIjIegQSKN60ich2kvWNR4mp9wEYwWoQEVnKm954ZHQxJswjbUQ25GttedGVqTlUobeB17oREVmJXzGtKPmKR9qIbC4RDI03VO4GcACrQURUfi6XOWz48llvF3q6PNJGZPddulh0nuaNg6Dg2zeIiCxAsy5/MabL0EbkAL7UzPXeRORrIvp1KLawIkRE5ZM3zKLcjMDQRuQgnlj0fjV1HIAlrAYRUXkYatQxtBHRbvlS0aV9a2uOFug/WA0iotIzRYtyjTFDG5ED7bukebMnHv2SAOcD6GBFiIhKR4DhDG1E1C2eeGS6oTgWQIrVICIqDQWGMbQRUbfVJSILspI9UgX/ZjWIiIpPihTa+Jw2oorZ82typQMdvwP0IlaDiKi4+tbW7LnvkubNhZwmj7QRVcyeX3PeG2/5vqpeCr67lIioqDZt27Z/oafJ0EZUYXyJ6C0KTAKwkdUgIioON2Q/hjYi6n1wi0ceNU0cD6CN1SAiKjyF7MvQRkQF4U9GXjfc+CyAhawGEVGhQxsY2oiocOqWRVb1ra1pADCb1SAiKmTA4pE2Iiqw7Q/irWkU4C+sBhFRYajoPgxtRFRwguZ8XbzmW4DeyWoQERUgtPH0KBEVM7h54tGpUNzMahAR9Xadir0Z2oiomCsZ9SYiPxTVq1gNIqKeU2AAQxsRFZ0nEb1eoN/fvt4hIqIe7AQztBFRiYJbPPp7hVwAwGQ1iIi6jaGNiErHF2+5HYrzwCNuRETdNZChjYhKypuI3C2KS1kJIqJuqWkNTqhhaCOikvIkIreq6HWsBBFRt/RnaCOikvPFotcCuJGVICLqGtHqWoY2IioLTzxypUBvZyWIiLoQskzty9BGROXZawS0Lj72uxB9kNUgItrNOtNt9GFoI6IyBrdp5toB+38DglmsBhHRLtaXmmNoI6LyGrdwetbVXnOWiL7EahARdUKFoY2Iym/4yuZtmq2aLMAKVoOIiKGNiCzMm37kHYhOALCB1SAi+gSRaoY2IrIMTyy6BNAvA8ixGkREH6FmQXMWQxsR9Zo3Hp0rkB+yEkRE/yOGMLQRkfV44i23AfgDK0FEtJ2pDG1EZNngVnMJgEdZCSIiQBQuhjYisuYKCs15yea/AkWS1SCiil8nGsojbURkXZ622e8b0C8CyLAaRFTReHqUiKyuLhF9GaI/YCWIqKIzm2qeoY2ILM8bi/5JgftYCSKqVGJolqGNiGyhT7/27wJYwkoQUSVSUwr6/EqGNiIqmiGvz9uSV9fpADayGkRUacQQHmkjIvsIJGYsV+B8VoKIKo2qySNtRGQvvnjk7wL8hZUgokoiavBIGxHZT05rLgbQxkoQUaUwDZOhjYjsJ5Bo3mCY8lUAJqtBRJXAZcoWhjYisqW6ZMvTCvyelSCiSpA3dTNDGxHZVk6yVwLyBitBRE5X5a5iaCMi+6qPzc1AzHMAZFkNInKyfEeGp0eJyN68segiFfyKlSAiJ3tvnwN4pI2IHBDchm38BYBXWAkicqiOcQun8+5RIrI/mT8/p4ZcAN5NSkTOVPA3wTC0EVHZ+FpbXhToHawEETnQOoY2InKUnNZeCeAdVoKInEX+y9BGRI4SSDRvEMhVrAQROSuzKY+0EZHz1MVb7gfwBCtBRE6hCh5pIyIH7pACmlfXBQAyrAYROWK9pjzSRkQOFUjMWC6Km1kJInJGapP3GdqIyLGq2vUXAN5mJYjI7hSyhqGNiBxr6KroVih+ykoQkd0ZglUMbUTkaJ5EzV/4Qnkisj0VhjYicjZBc17U/BErQUS2zmw5g6GNiJzPk4jOAh8BQkT2lfekXbymjYgqg2kaPwKgrAQR2dBqQXOeoY2IKoI/OfMlKB5mJYjIjqGtGBNlaCMiyxJ3/koAHawEEdlMmqGNiCqKZ/nshEDvYSWIyFYUKYY2Iqq8dZ8b1wPIsRJEZBuGJBjaiKjieJdFk1D8nZUgItswkWRoI6LK5HL9CoDJQhCRPdZZBkMbEVUmb+uMtwCJsBJEZANavSXHGxGIqHIZav6KVSAiG1gzdFV0K0MbEVWsukT0ZQCPsRJEZGWiWFa0nVeWl4jsQ3/NGhCRxVPbWwxtRFTxvPHoEwBeYCWIyKpMxVKGNiIiAKp6G6tARJZlGDzSRkQEAOv22v+fAFaxEkRkRaZpMrQREQHAuIXTs+CrrYjIihRb/InoCoY2IqId8orpAPKsBBFZimCpAMrQRkS0QyARbVNgNitBRBYLba8Vc/IMbURkV//HEhCRpTKb6qsMbUREn+CNR/4FYDkrQUSWCW2mwdBGRPSplSOggN7BShCRRWhWql9naCMi2gl3lfseAB2sBBFZQDKQaN7A0EZEtBPDls5YJ8BcVoKIyk6xqNizYGgjInsTfZBFIKLyr4uKe+coQxsR2Z6Z2xQBsJGVIKKyrotEX2JoIyLaBV9qfjsgLawEEZWRujrMl4s9EzfrTE6U9E4eCGCguPN7Q43avBpr9+zjXrXvkubNrI4D15bQBwX4GitBRGXylqdt9vsMbUS7sHrM+H7tW2qPBHQsgJFQGQfBQYC5fWyrAFC4JI+t7XmkAuGtAP4LYKVCXzIEz4pLnqlbFuELyG3MO3zjY+kV/d8FsF8Fl6EDQDVHA1EZCF4ozWyIbKY1OKF/lVkVEkGTAqcAqC3AZOMiiIqJB4YnIguL+e44Ko5UoPE2QC+q1OVX4CEBzuJIICpHZsNUTzxyRwnmQ2QPcf+UEW7JX6rA1wH0LeKsVirwoMuNW3kEzkahLTjps1DjuYotgMpEiD5coJ0YIuoGl8qY4YmWxQxtVPESvkmHuAzjZwqEUNqbZ9oB3Kj5jb/afrE7WTqzAJIONCYB9VTi8psmhhgGHgZwLEcDUUlt9MRr9hY054s9I949SpYV90+qTwXCfzMMY5ECjWUYr7UArjGM/v+K+5sGsEesTQCFYnaFLv57/mTkXQDPcSQQldyzpQhsDG1kSTuOmHzfJcbrAL5U7nGqghNcknlUGxp44471VWpoe2PHl+c1DgGiku8wzi/VvBjayFKS3tOGpAPhOQq9Fda6Nufo1Mr+V7OHrM3VUf0kgK0VuNl4AwBckNc5CohKK28aDG1UgYEtGDpaXO5XAZxqyc2i4nKeJrW24Subt0HwRKUtt8JcBAAb+1Qvw/ZHfxBRaWz0edYvKtXMGNrIEtLB0Fmi8iSs/Zytvi6j/Wz2lsUDjIk5lbbMYrhfBIDRS5o7FFjGUUBUsjXOMzJ/fo6hjSpGKhC+XFX+Dhs8qkAUJ7DHrM2EVtp1bes9rYcs+8gYZWgjKt1WYX4p58bQRmWVDoSvAHADbPL4GQXGsNesLZCItimwuFKWVwUvC6aZH25CgFaOAqIShShVhjaqkMDmD1+swPU226sayJ6zwYpUKudomyhe/Oh/mxCGNqLSWDs8UbuolDNkaKPyBLZg6Gsq+J0Nm87HftiACTxaMaFN5KVPBNblHAFEJdljmleq57MxtFHZJHyTj1SV6bDnGzk2sAetL4fcCwAylZBPXe6Pv7pL3EhyBBCVILOVYeeQoY1KKuU5fX/DMB+Bfd+P2MZetL762NwMgJcrYFFfHbZ0xrqP/mD4ssg7ADZxFBAVd4cpq+5/MbSRYykgcOfuBnCAffeslNcL2aWvFE9XwFI+sZO9fwXAU6RExbUoGJ+xhqGNHCsVaJwKiz44t8u7VpDn2ZO22Ul41vHLKHisk8TKx34QFdfccsyUF1VTSSR8p3kEeqPdl8NUky/k7oXVY8b369hc8xk1DA8UfU2oAHjXrfL2xj7Vy0YvaS7Y0/zVNJ4Vl2k6eOe0o0/fbc90kube5mgjKiYpy81ODG1UEobh/g2APW2+GPFAYhZPj/ZC+5baZggmQHX7am/Hz/Oi6Nee6UgFwotF8DTymNPhyj6149q0HvGlZq5PBcJvwKHP1lPgxSGvz9vSya83crQRFc0aT7z6xbJsS1l7KraEb/KRAL7ogEWZyd7sReL1TxmBXZ8erwYwVhWXqIF5VVr1bjIQvj0ZDB3di2Tj2OvaBNLpRdCqWMsRR1S0XaZIqR/1wdBGJeMS80bY8/EeH/uWGqr/YG/2ahx8r5vjYIAAU0Xl+WQg/FLKHz5dMa1b6ywVPOPYeioina7YDWFoIyre1mBGuWbN0EZFlQo0HqPihPd1yl/rEtGX2aM90xqc0B/Qb/S4+sAREDycDix6PRlsPKWrn6sStzNDmyI5PNHS6au6TDC0ERXJpqzR8ThDGzmT4AcO2EBuQc51pZO7acepy6Jxo/pbKMw1jaNF9dFUMBxN+E7z7O6Ph8UeWQngXcdlNun8KBsAuDTL0EZUlE2azunNtbYMbWRZqZEhH1Qn2/5LaujvvelH3nFqP60cNWWQS8xzijX91uCEGlH9YYGD9CTDcL+e8oe/2YWA87oDNxy7DG050/Ue10BkM+vt0EgT5Ts1ytBGxd2wZI2vAXDZfTlypt7t5H7K53InCXRssaZfrVXnoDgPVO4PwV2pQPih1WPG9+t0HKrjQtv7awfuv8sbLLb1rXmfayCy2Y6IHa4ZzuSkY245G8DQRkWjhn7Z/guBV53+mA81ZbwChxZl2g0NbgWKfWq5qX1z7TNxf6hu5xsDcVRoEyAybuH07K7+Zsfz7rJcC5Ft1kOif7HBd+/R+tjcsj5Oh6GNiiJZP/lQKEbZfwsp/6yAXdyTAey3akRocKEn3bay/5cA+EuwDIe6RJ7b2bV5KrrYUf1l4oEu/uU2ronIJjvHWzyxcS8KsMLaXz35W7nbwNBGxdmGmmbICcthqP7Lyf2UDjZ+BkAdAHTkjYLejLBkdFO1Kq4t4eIc4JL8/KQ39LGdhSyyb8I5R51W1yVrnuji3+ZBZIfthaFLBNNMAIss3MzNNdvMKEMbOfNLqPiCAxZj0/C6ja86egdX9Yz/7eyaBQ1t/dozUwEES7xI+4tL/p3ynL7/Bz/YcaeXI16gLoK/l+uhnkRFWw+ZsnjHSugV6zYSM4euim5laCPHWTO6aQ8VHG335RCV52X+/JyjV5ZA04crA5WChbalI8N7ArimTIs1DK7cjKS3ofYjP3PEdW1i6oPd+HNe00b2GNfA9tBmiIWPtJX/1ChDGxXF1vb2I7H9lUT2DjSGxp3cTwlfeKQAB/9veVFXqGnX5nA5gH3LuBU4Slz9b/tw2dQRNyMs7+YDntdzbUS2WNfuuO7UMPJWDW1r1+61378Z2sihu01yqCOWwxR1cjcZxv+Osu1INgV5LMeKEZMOgFriocrfTvvCJ+9Y1iW237Cp3NPNj/Cl8WQLWcktBoDhy2e9DSs+DFvQvLs7thnayMYbFxzijFSj4uh+As76+H9LQUJbPmfcAkE/K6xq1cD01WPG9xPNJW3eXR2q2t3Q1odrI7KBVfWxue/9Lx/hVQvuwd9vmc0SxwsVfqcEBzliOVQd+/1I1jce9dFTozv6rdehLRUITYDgTAstqrd9S80FtbV9UzbvshZ/MvJuN7+H/bk2IhusaV/6xMB9y2K7t295Y7OeZ2gjJ/M4YSEURl/Hribzet5Oftx3xbCmHh+d2f5Z+YMFl/ay3PvtJgDbvtpJ1Ly92+NXtB+IrL6eVbz40f82VZZa7Nt3j5Vaw9BGBbXjdUKDHLEyER3ixD5aOjK8JwRf3Okv+27bu6fTzde0/wSleJBu9+2XqZVzFEjZc+cBrXWJWU/0YAA7+vQ+OYQhL3w8I5lWCm1Zzefut1S5OGKokLZuqh3mlGURxRgn9lFNTr4CYI+dbufzuldPppkOTB4LyOWW7UvBV8SmoU2g0wXoyU0xXL+T1eX71VQt+NhPcvll1vnuYY4vNWc1Qxs5lrh6ttG3qP1S9VMOdFwfQc/v7HcK14DuTm/1mPH9FOYDsPZjXo6FPd8QsEnzrjt7+FmeHiWrW7LvkubNH/3BjpC03gqNM0XvsVrBGNqosAPKNPZw1AKZ+S87aXFSgdCJAA7rdLfXgKu702zfUnMLgJGWz6oC+wVw1Tt9qZnd3oDtuDbRzTUSWdyLnfzcCqdIV3uHbZrN0EaOZhqmw/bu5euKaY75ngjkil2H7u6FtpQ/dAYg37bFsiv2tll35UzN39qTD2arMrxzlOzwpXyxk/VU2UObiN5rxTfiMLRRoQdUjbOWSD1t/ldOdMKSJHzhMQqM3/U61OzyOiHuD9XBwHTb9KTdQpvoQ/7knHRPPupyySAQWX17oebOj7Rp2W9GyOfz+T9bdBtLVMANownHvcxaDfNcR6wgBZcD2OUdhXlDunSkbc3opj1chkSgYp8gJLa7xuu3Pf6kae4NImtbPzx+xJs7Hb6Cst6MIMCsnu4wMbSRzQIOnPeCdZUz4v5QnZ0XIT1ior/Tx3x8dGWlstt1gmKasaU98wCc8uYLK+ZLlXneWHRRz4cs9mQVydKrVeApwTRzp+NfpLyBycQfLbvzzaFDBd3YmEbWgYtV4xK53tYryJzrZwCqChHa0oFFvxEgzNFezJ2f/LRefQ/F4J2jZGmGotNnD7rdrrbybcSwtC4ZeYyhjSojtIlucOiifSnpD11ix4YnfOExEHylS/23m7tHk/7GcwFczpFeVI/29rU5ppp7sIxkZXnFk539btjSGeug2FKWbZjqn3r4XESGNrLhF9HEWucGUrmhzdd4vA2D9C+6/F3Pa3tnv0oHG88U0ds5yotLDZlWgE73spJkYe/5kpHFu0lP5TjatqlDcn+xcuEY2qigaqt0nYMXr8o09OG4f8oIuzQ4HQgfKyKhrm/r8f7OA1u4SVX/hi6cYqVemetrbXmx15nNlH1YSrKw+bs/mlWG69oU99XH5m5kaKOKsf/ysf8FkHHwIu7jQv7RlOf0/a3eUMU0Q7WbdyAaxvufDmyhs1TxIPiw1qJ3maF6bUGmJOpjOcmyA30X17P9b/2FUh9pyxuG8Tur146hjQpqx91AaYcvpA/u3PyVwdMt/Z7VdHDhuRAc1a1Fa6/6WGhLBhq/qCoPMLCVYljpQ3WJ6MsFmpyfFSWrMuF6YvffB6wo8V7ujLrYzDhDG1WiRAUs44ic5v6zIhAOWjKw1U3cCyq/7u66dNhKfHgjSdofvligDGyl0W7mXVcVcHoelpQs6u1AYsby3Yc2KemRNlONG+1QPIY2KsIeiyQqZEn9eeAFK96coG73LwB097qmjYLmvDY0uFP+8B9UcAvQ/XeRUk928nGbLzUzVYhpxf1NAwDUsqpkRQL5d5dClJQutIniKX9y5ksMbVShGyBdXEGLO8g09N+pYOOFVmlQKhg6HKLn96Dj3k95Tt+/ra3/4xBcyJFcMu+ZWvOrgq3UXR2jWFKycGrr0kvYDeia0iUhucku5WNooyKMKn21wpa4Bqp/SPnDzem6iXuVsyFLRjdVQ+Ue9OQImWAPuHOLVHACB3EpN2I6LZBoLtjzDSWPAItKFtXRgY55XfnDrBolenyUvlUXa5nF0EYVq0/fzGIAZgXuQZ6pVa4lyUBocrma0K+941oAY3r48X0ADOEILiHFq55hm6YXOAQytJFVPdXVR2oE4u51JdmOqNxk5YfpMrRR0Q15fd4WQN6s0MXfXyAz0oHwzFLfpJDwTT4S0Cs4Am3DVEMvkPnzC/q+XgGPtJFF92sVs7o+jpvzwM6fG1lAqbV7DbnfTjVkaKNifTufruTFV6AxDyxJ+UM3J72nFf3oVdLbUGsY+XvBOz3tNEbu9MWiLxR+uso7R8magaOL17N9RFFPkQrw63ELp9vqfdkMbVSkYwh4lkVANUQuFZc7kQ6Gf5caGSraA0/F1f9GQA5kyW1jjTtT86MijYaDWF6y3o48lg6PR2Ld/NR7RWxR2+bamnttF3w5kqgYciJPsQof6qOKS5CTWNIfiqSDjaEFY6cW7HVQ6WDjmQC+xzLbafsllw9f2fzfgm+FgpMDAAazwmQ5Kj242F+KdqRNFb8ZvaS5g6GNCEAw3rICkDdYiY9/30QkpKqRwetXv5MOhP6c8ocnrhoa6tubjbSq3snS2mnbhX/XxVuKch1N3swfyQqTNce92YPQZhYrtK3MGdm77VhHXv9CxfyazgXAUzU7N0gh50Nwfkcf2ZYKhJ8H8CxUXsgJFm8PvbvWGpxQY6r5EIABLKdtbMirfKtod6uJHMUSkwWt8Q7b9Cxi3R3OWKtF+KYI9Ib62FxbviOboY2KuGdlzBE1L2cldqsPgBMBnAhRuAGkAuFNAGIQvA1gjUK2X9thYr2I9lORKlE9AsDhLJ+dvhT4QTDRUrR3KoogYJ+HF1DFEDzck7ukTchGKXxrVpn5TXfYtZQMbVQ03ljV0+lAZg2AfVmNbtsTwGFQHLZjz/CDld/2fym3zDY025uIFPeUjGIcy0xWYwr+3pPPGSa2qhT6KyLX+VLz2+1aS17TRkXcuWrOC/AIK0GE9W5xf6eYM9hxdzIfjkxW846vtaZnTxMQbC1sYEPruoH73W3nYjK0UZF3/PEQq0AVvwMjev6w2CMri/pdy+JoVpqstw3Q5h0Pyu3+Z1W2FLg5P7Xbc9kY2qikPPGapwCsZCWogndcpnti0aLvvIgYn2W1yXohQ3o89tUwCxnaXvHGD3/I/vUkKuaGZPse1r2sBFXoN+ANd6bmktKEQ21gvcla63+sqItHnutxQMnL1sJ9P/BjwTTbvxOboY2Kz613oxJfIE+Vrt009ezhK5u3FXtGscCUfYWP1yGLUeChXj3exijMNW0KPO2LRx51Qk0Z2qjovMuiSVF5jJWgSiLA9/3JyOulmJcL+RPx4b3FRBYJGKr/6M3nTcMoxOlRFTGvdExNOayoRG5kCahyApvc64lH7ijd/HAiq04Ws6QuEX25V6GtAKdHFWj2xmY9z9BG1A2eRMtjABaxEuT4wCb6kpnfcEGJZ8uHLJPV3NPrgGJqb98N2o68caWTisrQRqXcmF3PKpDDvetC1RmlfHjn6jHj+4HXs5G15DSfe8AC7bjJl5qZYmgj6oG6WO3DQHffPkdkG1nTwFnFfh7bJ23bWvMFADUsP1lI1Jeas7q3E1Hp6M2rX97NStZxl+UwtFHJCJrzqriZlSAnUshF/tbIUyVfiSsmsPpkqWAhhXnMk4pLe/591KvqY3M3MrQR9YK7o+ZeAO+yEuSwXZKbfPGW28sTFo1TWX+ykNXDh22cU5jQZvQ0tC30xsfe58hAzPFFpTR8ZfM2hVzLSpCDNHvih5XlYud0IHwsoB52AVnI/TJ/fq4QE6rt2ZE2NUy51AkP0mVoI0vwxqvvhOA1VoLsTkRfqt6m3yjXBkKBRvYCWStVuO4p2Pg2enBNm+DBumTL044tL0cYlXxDh+Y8VH/ASpCdKdBaZWDi0FXRrWVsxkT2BFlm3a54yts6462Cfce6f3p0g+Zylzk6E3OYUTl449EnAMxgJcimVrnEmDB0eXRtuRrQFpwcAPAZdgVZKFH8ocwtuLoQd60ytBHtbPCJcTmADCtBNrNWRE6ui82Ml7MReTMfYleQhaysG7axoDviRt7dnYyy0BOv+T/n52KiMqmLzYyryC2sBNnIBoie4om1vFnuhojI2ewOsgzR/yvUDQgfyJgdfbr4p6ZpGt8VNOcZ2oiKKIeOaxVYzEqQDWw1DYS9sWjZX8fWFph4EIBx7BKyiExO3XcWPgcaXQttgtv9yZkvVUKhGdqorOpjczMi+g0AWVaDLGybqBkux8Nzd3pYQY1vskvIKgT4ezA+Y03Bp+uWroS2NdKR/0ml1JqhjcrOG4sugug0VoIsSbEFwERPYtbjVmjOgrFTq8BTo2StKPH74nz3uhDaFD/wtM1+n6GNqIQ8sdrrATzHSpDFbBToqd545EmrNGjQ+ncmAtiXXUMW8ZwnPnNhMSYsmt91aBPM8iYiD1RSsRnayBIEzXlDjK8D2MxqkEWsV0PGexLRZyz2bTmXXUNWoZDbijfxXR5p2+CG+4JKqzdDG1lGXWxmXAQXsBJkAWshepKvteVFKzUq4QvvJ+AL4sky4t549T+LOP0+ne/o44phsUdWMrQRlZEnFvkrVH/HSlAZpUwTx1nhLtFPrbAN/RqAKnYRWYEANxT1MRtGp0fanqyLR+6oxJoztJH1glvdpisAPMZKUBks0nzus/5kZJlFN5PfYBeRRbxj5jfeV9TRbmq/T/1QsUVc+W8LoJVYdIY2st5maf78XF5rzuTz26ik405lXrsbDVZ9DU6iPnwCgNHsKcfaaKvvC3CLLzW/vZjzMA3d+9OZTa/2LJ+dqNRBwtBGlhRING+oEvdpAqxgNagEG6C/vLfXfpNGLYtssuzK2uT1ng4fgw/aqLnrOyT756LXxJRBn/jRs97E2NsqeZwwtJFlDYs9stLM63gA77IaVCR5AFd44pFvjFs43bIPeE56TxsC4HR2l2M9C+ib9mmu/rE+Nrf4RwYFHz3Stllc+a8LppkMbUQW5UtFl4roSQDeYzWowDZAJeyNR260/IraqJoKoJpd5tAdB8FFKnKoTdq7NQd3SY52iX7kSJvIpZV8WpShjWzDE4suMZA/EcDbrAYV5DgB0ArD9VlvomWO1dua8IX3U9Efs9ecSYA7vLHIK1AcZpMW31WMV1bt9Hsq269pU9WoN9ZyJ0cLQxvZRF189hummTsWwDJWg3pprpHNH+VtnfGWLTaRLlwAoIbd5kjrXFWuq5eMbqqGPW4y2Wa49Tcl3LsaBGCNqpzHocLQRjbjT85Ju6tcxwJ4ktWgHsip4MeeeGSiXd5VuHrM+H6i+C67zplUcc2wpTPW9ctkRsMWp7/lj3XLIqtKNzvsraJT/ckIr2tmaCM7GrZ0xjpPvOZkFbme1aBuWCMqE3yxyK/t9Hyn9i213wGwD7vPkV7xJmqmbw9vcqQN2rs5B6Nk138uGDu1CtBmXyzawqHC0EY2JmjO+2ItV0FxBoB1rAjtcryozMtK9iBPosVWD2zevtHCD9iDjqSi+v0P3iYgYh5lgwbfXKpr2QBg0Lrlrna3cPx/gpslILuqdutT2bzxA4X+Gbt4Rx1VrAygV9clDr/Zjo8JGPT+6m9BMJTd6Mg9zwc98egz/0tEONriez7/Nc3am0s5yx0P7m3nYGFoIxtaGTx9WBbZsYAcBsVhBnBYRx7DK/RNJrTbwwJ41ZD81+ris98AorZr/tKR4T0lh+vYkY600XDhig/+I103cS+FjLJ0ZjNxQyDRvIFdx9BG9OntbUODu23lniOhcqxCjoPqcTnN+QTykW0y0U6ZCv1DzshdUR+bm7HrQtTmcDl4LZtD9yfkirplLR9ezK9VxtHAR1Zu1rO6Zo/MH9hzDG1EH0r4Jh0iLuM0w8Sp6RU4Ah+e7lRrr87ISpYJ8C1vPPqsvb8L4f0AXMrudKQnvfGW6R8LcSJHiYX3QgX6qyGvz9vCrmNoo0re22xocLe17XmqKRIS4DQAw6CAMqBR92VU9Poccr+y89G1DxgGrgawB7vVaSs9bDEM47yd3L18jIVbvXxzbe3t7DwrhWiiEkp6G2oNY8+LVeQiAAewItS77SCeFsN1vl0elLs76RET/Zp3vQW+ssp5Y1X1Ul8iestHf7Zg7NSqwetX/9eqId0QNNbFIhH2nnXwSBuVdi/BGPBbFeXDQqm31kHkKm+s5S5x0CWOaho/Z2BzpOe8ibG3ffKmmMEbVo0DDIseVZXH62ItDGxWC9IsAZWSN9FyoYiEAcRZDeqBnALTs5I90BtrudNJgS3hC4+BypfYxY6TEZHzdv7YGfm8RducN03lM9IY2ogAT6wlmpXsaFG9CsAmVoS66FEYrjG+eOT8+tjc95y0YAqIYeitXCc7j6pM88Ra3tzZ78Q0PmfR8XiXPxl5nb1nPbymjcoq6T1tiLjdP4Xi2wCqWBHaiTehcrk30TLHqQuYDoa+pir3sasdZ4Fn+MbPyvz5uU/9YuzUqsHvr34fgn4Wa/PGHFz1pXz7AXUd9+qorHypOau9sch386pBBaYDyLMqtGOfMi3A+Z7hGw9xcmBrDU7or8p36TpQDoKpOwtsADB4/btHWDCwQYBfMrAxtBHtUiARbfPFI+eLyBiIPAw+P7eSrVTId9YO3K/eE49M72yj5xRVqPoNgP3Z7Y5znTcWeaXzX+tJFmxzokOyt7LrLLwryxKQFa3wNx6cN/RKKL4I3uVcKd5W1ZtgbvrzjvcOOl6bP3SEKfICd6CdRYGnvfGaz3/wQvidSQXCz8Jyz2jT07zx6Fz2IEMbUY8kvZO9cOUvFci3AfRlRRwpLorfm+bG2yslrG3fsE8z2oILn1eVIzkEHOV908wd5k/OSe9ivTZQXOZ7FtshbfbGI2ex+6yNe3dkab7UzJQvHr04B5cPwM8BvMuqOCa1vAjI6Z744SM8icitlRTYACAdWPRdBjYnDmv95q4CGwAYbv2CxQLbRsONS9h71scjbWQrrcEJNdWoagL0Im7wbCkD0YdF5U+eeOTZSi1CwneaxzDcrwPozyHhpMQmf/ImWi7c3Z+lAqE7sP3sgUWCgH7fE4/+nh3I0EZUxA3f5CNdhvldBcIA9mJFLL2qSavo7Xl13VXpd6YpphnpwKInAHyO48JRXtf8xqO6csQ4HQi3KTDcIu1e6InXHLWr6++IoY2ocBvBhgZ3esWeJygkLEAjAC+rYgkZALNF9Z66RO1cbhS2SwXClwO4gZVwlK0ickRnD9H9qLbAxINMuBZbpN15gXGUJz5zIbuQoY2oLNLB0GiYmKQiIWy/O4vjvMR77qK4v8PIPui0NxcUYmyqygIAtayGk7akcp431nJnF0P71dh+fW75d3iht/ni0YvZgQxtRJawMnj6sKyZCxmQySraAL6Mu0grfyyG4BHTNB8IJGa1siKf1hqcUFOl1QsAPYjVcNTYf8gXj3yxq3+fDIRfEuAIK6wes5IdXR+bu5G9yNBGZDmrhob6ZvsaJ5mqkwSYDGBfVqVX3lRBM3L6d18qupTl2LWUP3QzRC5lJRy1AV1hZGoOHb6y+b9d+fsVIyYdkM8bKyyw7VVAJ/KZbAxtRPbYO25ocCff7n+MYcopgJ4C4HB+H3brfYg8IarzxI1Zdcsiq1iSLga2QPjzAB4DH7PkJNsMxQl1iciCrn4g6Q9fIII/WaDtd3jjkansQoY2IluKBabsWyX58QqcCsV4APuwKsgCeBHAPBX9tzdW+zJvJui+pPe0IeJyLwQwlNVw0MZT9OueWPT+7nwmHQg/qsApZW55OisdY3halKGNyBEU04wV/kWHmyKnAHoqtt/MUAlHSN5T1RcA4zl16XO1W3TB0FXRrRwRPbdg7NSqQetXPy7A8ayGk1YS+jtvIvqD7nwk7m8a4JLMGpT3uloVNU/2JGY9zk60J77TkehTezLTTCSwAMACAL9M+MIjxcBhEDnUMHGYih4CYD+bL+YqARabwGui8loexoJAYsZy9n5hDVq/+kYGNsetIR731G28AolubmyN9rCqlPdGKMGfPXEGNntvn4io21aOmjIon82PUsVIFYw0gJEq8ELhATDQIs1sBzQJkbgq4gY0DtU3q9zy2tDl0bXsxeJK+Ru/AtEHWAkHUSTd1a4jhi2dsa7b4yEQngVgYhlbn+hbW3PIvkuaN7MjGdqIaIfW4IT+tWa1Jw+tU9F9oMYQw9D9FNhHTNlHBXsC2h/Anjv+GYCunX7NAdgEYAuAjAL/FWANRNdA5W2BvAcxV0veeMdwuZIHxB55WwBlj5Rh6+gLjzEMPA+gL6vhmMC2xVQc409GXu/uR9N1E/fSKtdqlO/UqKlinOSLzZzPjrQ3nh4lKrAdF/gu3vFPtyS9kwcaZvZjO1N1bX038gYA+0h6Jw8Uw3yYgc1ZkU0M/aY/Fn29Jx823e7JAi3nqdHfMrAxtBFRgflSM9ezCjbesqPJlXa1PwBIkNVwDlH8xhOPPtTTzxuiX9SyjUm8vG7gkJ+wF52BzwwiIiqQdCBzCyCnsRJOCmwyry5Rc01PP79qRGiwAieVqfmbTXV9ddzC6Vn2JEMbERHtkAo0/gTA91gJ51BgcQ7VZ/Xm8oQOE2ehXGe1VM7nXeEMbURE9NHA5g+fDejPWQlHedtUnRRING/ozUQEOKcsrRe9x5toeZDdyNBGREQfBLZA6EQI7gbvxneSDaaJ0wKJaFtvJhL3TxmhKkeWof2xdpdczG5kaCMioh3SgcljAWlBeZ9yT4XVIWqe0ZNHe3yS28idW4b2ZyA4a9SyyCZ2JUMbEREBSI+Y6FeYswDswWo4hikiZxfiNU+KaYaqfLXkSyDyQ28s8gq70pn4yA8iom6K+0N1mpd/AxjCajiHqv7QG4/8sxDTavMtOgnAsNIGNjzgjbX8kT3J0EZERAASvtM8hsh8AF5Ww1Fu9CWitxQsALr0G9ASXuaoeNWVqTmP3ehsPD1KRNRFsUDjcMNwP8HA5jh/98QPv6pQE1s5asogqJxewva/L+78GcNXNm9jVzK0ERFVvLg/VOeGzgfgt/FiZAE8osAN4Htpd5DHt9TWnCOYZhZqirlc/hwAtSVaAFOBr3iWz06wL52Pp0eJiHYjFmgc7oI+YePAtlJFHsgr/miY2mEYeAV8RAkAeb7drVNGL2nuKOhkVb9dsvKKXuOLRR9lXzK0ERExsAUah7uhTwII2KzpHQBaxMQddcnDHxdMMxVNrnSg/TFA9mfP4oWsdJw6atncgj4aIxmc3AA1DyxJXgNa6mLRX7MrGdqIiCpeW2DiQSZ0Lkp9F2AvKNBqAHdm4bo3GJ+xZvtPIwCAdKDjOkAaKr1fFXjZ1JpT6+ORjQUPUmpOLclCCJbmzJpzhKe5KwoPjxMR7USiPnyCYaIFwEAbNHcDRB9RuO7zxmb+Z2cb8lQgNAGQWeC1zK9INn+Sp232+4WecCwwZV838m0Aaoq8DGsNMY6ui82M85taWXikjYjoE5KB0GQx8SCAPhZuZgaCf4tKc02/bQ8PeX3els7DRONwQO9jYMPr1S4dPzRe+MAGAFWav0Cl6IGtQ8VoYmBjaCMiqnjpQOgihdxi0YBjAnhagAeQzf+zK0eLkt6GWkPMf6rK4MruWXkjKx1f8C6fu7YYU18yuqla2zPnF3khFIpv+uIz5/ObytBGRFSxFJBUMHytKq61YPPeVEGzYeTv6+6jHcTo/wdVHFnh3bscOdf4+vTc94o1gz3aO76kQFFv8BDFzzyJyAP8tjK0ERFVrBXDmvqkazN3iOJs62RILARkpog50xOLLunJRNL+8MUq+BYDm7vBm37kneJ2mH6/qEsheKAuHrmO31aGNiKiihX3h+rykpkBxeFlbkqHCv4j0JluVEWGxR5Z2ZuJpf2TTlLBTRXevW+6XOb44fHiBra0P3ScAmOLOItnssh+i3eKEkMbEVWsVCD8eQD/ALBPmZqwUaBzTUWLido5gXjzhoIs18iQT3Pyj0pex4voSy63+7RhSyPrij0vNYxLoMXJUwq01rh0inf53Ay/scRHfhBRRUoGGy8V1RvKEGxiEPxbIS1ba6qfLPTT+FePGd+vfUvtcwDGVPCm7fG+tdWT913SvLnYc4r7J9W7xHgLgKsIk1+leeNYX2pmit9YAnikjYgqzKqhob4dfWU6VEt1/doaAI9D9HHNuR4v5gZYMc1Ib3nlr4BWbmATeTiLjrP3XdJSkiNTLjEuL0pgE/2voeYpdakIAxsxtBFR5UmPmOjvyMnDUBxaxNlsBvQpFeMxzevjvmRkcamuRUr7F94EyOTK7WG90xOr+Y6gJV+KuaU8p+8P5L5ehElvBXRSXXz2G/zWEkMbEVWcZCB8juZxGwT9CzzpPCAvqeg8w9TH3ttr/xfHLZyeLfXypYKNF0L10oqNa8AN3nj0qlJerK/u3CVS+LcfZBU4wxeb9Ty/tfRJvKaNiBwtXTdxL7PK9WcBzirQJN8V4FWIvqKmvCy5/JPFeCVSt5bRH5qkIjNRnOuqLJ/XBLjKE4/cUMqZxv1NA1ySaQMKuhNgqupXfYno3/jNpZ3hkTYicqxkcHID1LxPgOE9nEQHgEVQfV4MeT6r8kIw3rLCSsuYCoYPU8XfKjSw5SF6vicWvavUMzaMzHehBT9qezEDG+0Kj7QRkfPCmrehVlz9fwHgUnT9dVTtCizecRTtVUBf0dzmV3yp+e1WXc5YoHG4G/oCgKEV2M2bDcHZdbFIpNQzXjoyvGdtDgkAhXw12DXeeOQX/PbSrvBIGxE5Sps/PM4U/AXAZzr5ExNAUoA3oHjThC42DLxeN2zTMpk/P2eX5Vw5asqgXDb/aCUGNgFWmIYRrmud+Wo55l+Tx/cKGdhEMc2TYGCjLo19IiJnSHonDxSXuQpAHwDvAogJpFXFbFUTSUNcy6u25d8auiq61c7LueNZbI8BOLriNlqiL2m2anKxX0vVmR1H2ZIABhVieir4mS8WmcZvL3UFj7QRkWP4UjPXrwiEx7RLdk19bO5GJy7jktFN1ZktmYcrMrBB/2G01547fGXztnK1oTavFwEyqECT+zkDG3XvO0BERLagmGakA4seAPClSlt0FbnBGzvsx4JpZrkasWZ00x5b2zMJFOa1Zzd645ErOKqpO3ikjYjIJtL+RbdVYGBrV+BcX6zl70BLWRuytT1zSSEC245r2H7GEU3dHjssARGR9SWDoZ+Jyk8rbLFXqyGTfa0tL5a7ITtu/IgDGNCLySigV3jj0Zs4oqkneKSNiMjiUsHQj1FpgU3xah7aGGiNtFmhObmO/I8hvQpspiq+50tE/48jmnqKR9qIiCwsGWy8VFRvrrBN0/3V28zvWOUu34TvNI9huJeh56+syqvKeb5Eyz0c0dQbPNJGRMTAZg2KLSLyXU+85T4rNctlVE1TaE8DW4cIvuqNtzRzRFOvd2dYAiIi60kHwucpcHsFraeXuVSahidaFlsqOHtDo8Qli9GzgxybVeRMX6zlXxzRVAgGS0BEZC1Jf/g7FRXYRB/sW1szzmqBbcdW8oYeBrZ3Ifo5BjYq6FeFJSAislZgE8EfK2SnOiOKKz2JyK1WbFwqEDoRkMe7/UFFMg/zlEBiVitHNBV2H4KIiCwSEsKXi+D/KmPdLGk15HNWDWyKJpdCbun+57DYqMJxDGzE0EZE5FDJYHgagBsqZHEf0bwcaoXnr3UaoP2ZqQIc3M2Pze5XW3NM3bLIKo5oKsquDktARFTmgBAIXwfgmgpY1I0CXO6JR6ZbuZHpuol7aZVrOYDBXf2MAtO9wzdeKPPn5ziiqVj4yA8iojJRQFKB8O8AXFwBi/ucCzhneDwSs3xLq10/hXY5sOVF9SfeRPR6xDmmqbh4pI2IqAwWjJ1atc/61XcocI7DF7VdRX7sjR12azlf9t5V6WDjZ1T1VQBVXfjzzaL6ZU8iOosjmkqBR9qIiEps9Zjx/drXv/OQQk5z+KIuFJGve2Mtb5b7Ze9doYCk1fwjIF0IbJJWQyZ7W2e+yhFNpcIbEYiISmjFsKa927fUzoOzA1tORa7fUltzjCfW8qZdGt0WDJ8NSEMXwt3TpqlH+RjYqMR4epSIqESS3slecZmPAhjp4MVMCPB1TzzyrJ0a3Rqc0L9Kq94CMHQ3gW36uoFDvjdu4fQsRzSVGk+PEhGVIrDVTz5UTHMOgP0duog5ALe6MjXXDF/ZvM1uja/Sql/uJrBloPiuLxG5m6OZyoVH2oiIiiwRDI03VJoB9HfoIr5gmuZ3/MlZr9mx8alg6HCovATA1cmGcoUpepYvFn2Bo5nKide0EREVUToQPs9QmeXQwLZeFJd44jXH2TWwaUODGyrTOwtsAJ7MmziCgY2sgKdHiYiKEQbQ5EoFO36pqlc6dBGbTRMX+ZORd+28EKm2AZeJ6NiddaGK3OCNHfZjOzyqhCoDT48SERXYmtFNe2zZ1v6giIQcuHgxU/RCfyw6z+4LEvdPGeGS/KsA+nziV2tV5Ku+WMu/OJrJSnh6lIiogBK+0zxb2jPPOTCwtYvKtVnJHuSEwKaYZriRv2Mnge0/Lpd5KAMbWRFPjxIRFUibr/F409BmAPs5a8l0jgty8fBES8wpS5TyLzpfBCd85Ec5AD/zxGt+LWjOczSTFfH0KBFRAaQDoYsU8lt07fVHNslqeFUgl3sSLY85qa/i/lCdS2QxPrg5RJGEYZ7tjc16niOZrIxH2oiIeiHpbagVd/8/quKbDlqstwW4ri5Rc5fTjjopphlpWXTvRwLbPyWXn+ppm/0+RzMxtBEROVRqZMiHnDwMxWEOWaRNgFxfvc383dBV0a1O7LM2/6KLAHwewHoR/b4nHr2fI5nsgqdHiYh6IBmc3CBq/gPAvg5YnJwCdyOfu9aXmrPasX3mDY0SlyxSwTN5lW8F4y0rOJKJoY2IyKG2P38tc40orkbnD2S1z/KoRsXlvtLbOuMtR/dbQ4M7vaL/PFU85E1EbhdAOZqJoY2IyKHaRoaHmjl9AJAGByzOk6aBaf7WyFOV0HepQPjzhhhtdbGZcY5kYmgjInKwtH/SSSrGXwEMsfmiPAvoT73x6BPsVSKGNiIix9CGBndqZf+rRXEN7P1A8sdU9Bq+Q5OIoY2IyHG23x1qPADoZ+2aOQWIAMbPPfGZC9mjRAxtRESOkw6Gm1QxHcBAO4Y1CGYbJn5Wl4gsYG8SMbQRETlOLDBl3yrkpyvQaMPmZxT4hyF6gycWXcLeJGJoIyJypGQgfKoAdwEYarOmr1GRe9xG/vfDl896mz1J5Ex8IwIRVbxVQ0N9M33wawEustnO7CsC/NnI1Nw/fGXzNvYkkbPxSBsRVbRkMPQ5qNwhQL1NmmxCMEdMudVpL3InIoY2IqJPhzXv5IFwmdcLcJ5N1oUbFPoXNfM3+5Nz0uxBIoY2IiLHS/lDZ0DkD7D+g3JNAP8RyL1V28x/OvUl7kTE0EZE9DEJX3g/w8DvATRZvKkrVeQBF+QOvnaJiBjaiKhiKKYZKf+i80XwSwB7WbSRW0TwT1OMe72xmf/hC82JiKGNiCpKKhg6HCp/BHC0RZu4UIDp29z426hlkU3sMSJiaCOiirJy1JRB2Wz+VwJ8G9Z7Z+grAB4xxPgbT38SEUMbEVUkBaQt0Pg1hd4EYB8LNe1NFTSbpuvBQGLGcvYUETG0EVHFSgfCx5rA7wQ4wgLNyQP4D0QeMVw6o25ZZBV7iIgY2oioosUCjcPdwC8B/WqZ12t5AC+Iotk0c//wpeasZu8QEUMbEVW8NaOb9tiSyVwmiisB1JapGQkFHjMEj+XMmnmBRPMG9gwRMbQREQHQhgZ3euWA86E6DcDgEs/+HQDzoXjMbbjnDYs9spI9QkQMbUREHw1rgLQFw2eq4hcARpQwpD0jwGMQfbYuFn2Tz1AjIoY2IqJOwloqGApD5ecCHFzEWW0DsAiqL6nIS1XifoZH0oiIoY2IqAvS/sYvKPQXEBxV4ElnACyB4FU18bIYeNEzbONimT8/x6oTEUMbEVEXJerDJxgmpgH4fAEm9w6AJYC8KqKvGaa89u5e+y0dt3B6lpUmIoY2IqIeSAYbT4HqTwQ4vpsfzUCQhOItEV1mKpbBMN4y89VLeUcnETG0EREVwEeuWfvJLh6Muw3A2wq8I5CUiiagSLpMSUhVPjFs+axVvEGAiBjaiIiKJO0PHWeKnCfAvoC8BzXXwsBaNY13BHjXkFybUVX9zrClM9axWkREREREREREREREREREREREREREREREREREXfD/efZ305Is86EAAAAldEVYdGRhdGU6Y3JlYXRlADIwMjQtMDctMDhUMDM6Mzg6NTMrMDA6MDAn5780AAAAJXRFWHRkYXRlOm1vZGlmeQAyMDI0LTA3LTA4VDAzOjM4OjUzKzAwOjAwVroHiAAAAABJRU5ErkJggg==;" parent="1" vertex="1">
                    <mxGeometry x="222.48999999999995" y="785.38" width="29.64" height="28.62" as="geometry"/>
                </mxCell>
                <mxCell id="102" value="" style="shape=image;imageAspect=0;aspect=fixed;verticalLabelPosition=bottom;verticalAlign=top;image=data:image/svg+xml,PHN2ZyB4bWxucz0iaHR0cDovL3d3dy53My5vcmcvMjAwMC9zdmciIHByZXNlcnZlQXNwZWN0UmF0aW89InhNaW5ZTWluIG1lZXQiIHZpZXdCb3g9IjAgLTE4IDI1NiAyNTYiIGhlaWdodD0iODAwcHgiIHdpZHRoPSI4MDBweCI+PHBhdGggZmlsbD0iIzkxMjYyNiIgZD0iTTI0NS45NyAxNjguOTQzYy0xMy42NjIgNy4xMjEtODQuNDM0IDM2LjIyLTk5LjUwMSA0NC4wNzUtMTUuMDY3IDcuODU2LTIzLjQzNyA3Ljc4LTM1LjM0IDIuMDktMTEuOTAyLTUuNjktODcuMjE2LTM2LjExMi0xMDAuNzgzLTQyLjU5N0MzLjU2NiAxNjkuMjcxIDAgMTY2LjUzNSAwIDE2My45NTF2LTI1Ljg3NnM5OC4wNS0yMS4zNDUgMTEzLjg3OS0yNy4wMjRjMTUuODI4LTUuNjc5IDIxLjMyLTUuODg0IDM0Ljc5LS45NSAxMy40NzIgNC45MzYgOTQuMDE4IDE5LjQ2OCAxMDcuMzMxIDI0LjM0NGwtLjAwNiAyNS41MWMuMDAyIDIuNTU4LTMuMDcgNS4zNjQtMTAuMDI0IDguOTg4Ii8+PHBhdGggZmlsbD0iI0M2MzAyQiIgZD0iTTI0NS45NjUgMTQzLjIyYy0xMy42NjEgNy4xMTgtODQuNDMxIDM2LjIxOC05OS40OTggNDQuMDcyLTE1LjA2NiA3Ljg1Ny0yMy40MzYgNy43OC0zNS4zMzggMi4wOS0xMS45MDMtNS42ODYtODcuMjE0LTM2LjExMy0xMDAuNzgtNDIuNTk0LTEzLjU2Ni02LjQ4NS0xMy44NS0xMC45NDgtLjUyNC0xNi4xNjYgMTMuMzI2LTUuMjIgODguMjI0LTM0LjYwNSAxMDQuMDU1LTQwLjI4NCAxNS44MjgtNS42NzcgMjEuMzE5LTUuODg0IDM0Ljc4OS0uOTQ4IDEzLjQ3MSA0LjkzNCA4My44MTkgMzIuOTM1IDk3LjEzIDM3LjgxIDEzLjMxNiA0Ljg4MSAxMy44MjcgOC45LjE2NiAxNi4wMiIvPjxwYXRoIGZpbGw9IiM5MTI2MjYiIGQ9Ik0yNDUuOTcgMTI3LjA3NGMtMTMuNjYyIDcuMTIyLTg0LjQzNCAzNi4yMi05OS41MDEgNDQuMDc4LTE1LjA2NyA3Ljg1My0yMy40MzcgNy43NzctMzUuMzQgMi4wODctMTEuOTAzLTUuNjg3LTg3LjIxNi0zNi4xMTItMTAwLjc4My00Mi41OTdDMy41NjYgMTI3LjQwMiAwIDEyNC42NyAwIDEyMi4wODVWOTYuMjA2czk4LjA1LTIxLjM0NCAxMTMuODc5LTI3LjAyM2MxNS44MjgtNS42NzkgMjEuMzItNS44ODUgMzQuNzktLjk1QzE2Mi4xNDIgNzMuMTY4IDI0Mi42ODggODcuNjk3IDI1NiA5Mi41NzRsLS4wMDYgMjUuNTEzYy4wMDIgMi41NTctMy4wNyA1LjM2My0xMC4wMjQgOC45ODciLz48cGF0aCBmaWxsPSIjQzYzMDJCIiBkPSJNMjQ1Ljk2NSAxMDEuMzUxYy0xMy42NjEgNy4xMi04NC40MzEgMzYuMjE4LTk5LjQ5OCA0NC4wNzUtMTUuMDY2IDcuODU0LTIzLjQzNiA3Ljc3Ny0zNS4zMzggMi4wODctMTEuOTAzLTUuNjg2LTg3LjIxNC0zNi4xMTItMTAwLjc4LTQyLjU5NC0xMy41NjYtNi40ODMtMTMuODUtMTAuOTQ3LS41MjQtMTYuMTY3QzIzLjE1MSA4My41MzUgOTguMDUgNTQuMTQ4IDExMy44OCA0OC40N2MxNS44MjgtNS42NzggMjEuMzE5LTUuODg0IDM0Ljc4OS0uOTQ5IDEzLjQ3MSA0LjkzNCA4My44MTkgMzIuOTMzIDk3LjEzIDM3LjgxIDEzLjMxNiA0Ljg4IDEzLjgyNyA4LjkuMTY2IDE2LjAyIi8+PHBhdGggZmlsbD0iIzkxMjYyNiIgZD0iTTI0NS45NyA4My42NTNjLTEzLjY2MiA3LjEyLTg0LjQzNCAzNi4yMi05OS41MDEgNDQuMDc4LTE1LjA2NyA3Ljg1NC0yMy40MzcgNy43NzctMzUuMzQgMi4wODctMTEuOTAzLTUuNjg3LTg3LjIxNi0zNi4xMTMtMTAwLjc4My00Mi41OTVDMy41NjYgODMuOTggMCA4MS4yNDcgMCA3OC42NjV2LTI1Ljg4czk4LjA1LTIxLjM0MyAxMTMuODc5LTI3LjAyMWMxNS44MjgtNS42OCAyMS4zMi01Ljg4NCAzNC43OS0uOTVDMTYyLjE0MiAyOS43NDkgMjQyLjY4OCA0NC4yNzggMjU2IDQ5LjE1NWwtLjAwNiAyNS41MTJjLjAwMiAyLjU1NS0zLjA3IDUuMzYxLTEwLjAyNCA4Ljk4NiIvPjxwYXRoIGZpbGw9IiNDNjMwMkIiIGQ9Ik0yNDUuOTY1IDU3LjkzYy0xMy42NjEgNy4xMi04NC40MzEgMzYuMjItOTkuNDk4IDQ0LjA3NC0xNS4wNjYgNy44NTQtMjMuNDM2IDcuNzc3LTM1LjMzOCAyLjA5Qzk5LjIyNyA5OC40MDQgMjMuOTE1IDY3Ljk4IDEwLjM1IDYxLjQ5Ny0zLjIxNyA1NS4wMTUtMy41IDUwLjU1IDkuODI1IDQ1LjMzMSAyMy4xNTEgNDAuMTEzIDk4LjA1IDEwLjczIDExMy44OCA1LjA1YzE1LjgyOC01LjY3OSAyMS4zMTktNS44ODMgMzQuNzg5LS45NDggMTMuNDcxIDQuOTM1IDgzLjgxOSAzMi45MzQgOTcuMTMgMzcuODExIDEzLjMxNiA0Ljg3NiAxMy44MjcgOC44OTcuMTY2IDE2LjAxNyIvPjxwYXRoIGZpbGw9IiNGRkYiIGQ9Ik0xNTkuMjgzIDMyLjc1N2wtMjIuMDEgMi4yODUtNC45MjcgMTEuODU2LTcuOTU4LTEzLjIzLTI1LjQxNS0yLjI4NCAxOC45NjQtNi44MzktNS42OS0xMC40OTggMTcuNzU1IDYuOTQ0IDE2LjczOC01LjQ4LTQuNTI0IDEwLjg1NSAxNy4wNjcgNi4zOTFNMTMxLjAzMiA5MC4yNzVMODkuOTU1IDczLjIzOGw1OC44Ni05LjAzNS0xNy43ODMgMjYuMDcyTTc0LjA4MiAzOS4zNDdjMTcuMzc1IDAgMzEuNDYgNS40NiAzMS40NiAxMi4xOTQgMCA2LjczNi0xNC4wODUgMTIuMTk1LTMxLjQ2IDEyLjE5NXMtMzEuNDYtNS40Ni0zMS40Ni0xMi4xOTVjMC02LjczNCAxNC4wODUtMTIuMTk0IDMxLjQ2LTEyLjE5NCIvPjxwYXRoIGZpbGw9IiM2MjFCMUMiIGQ9Ik0xODUuMjk1IDM1Ljk5OGwzNC44MzYgMTMuNzY2LTM0LjgwNiAxMy43NTMtLjAzLTI3LjUyIi8+PHBhdGggZmlsbD0iIzlBMjkyOCIgZD0iTTE0Ni43NTUgNTEuMjQzbDM4LjU0LTE1LjI0NS4wMyAyNy41MTktMy43NzkgMS40NzgtMzQuNzkxLTEzLjc1MiIvPjwvc3ZnPg==;" parent="1" vertex="1">
                    <mxGeometry x="392.6" y="930" width="40" height="40" as="geometry"/>
                </mxCell>
                <mxCell id="103" value="" style="shape=image;imageAspect=0;aspect=fixed;verticalLabelPosition=bottom;verticalAlign=top;image=data:image/svg+xml,PHN2ZyB4bWxucz0iaHR0cDovL3d3dy53My5vcmcvMjAwMC9zdmciIHZpZXdCb3g9IjAgMCA3MjEuMDkzOTk0MTQwNjI1IDU1Ni4wNjIwMTE3MTg3NSIgcHJlc2VydmVBc3BlY3RSYXRpbz0ieE1pZFlNaWQiIHdpZHRoPSI5MjMuMDc2OTE1NTc2MzAwNyIgaGVpZ2h0PSI1MzMuMzMzMzQ0NTczMDg3MiI+PGRlZnM+PGxpbmVhckdyYWRpZW50IGlkPSJhIiB4MT0iLjc0MSIgeDI9IjU5MC44NjMiIHkxPSIzLjY2NiIgeTI9IjU5My43ODciIGdyYWRpZW50VW5pdHM9InVzZXJTcGFjZU9uVXNlIiBzcHJlYWRNZXRob2Q9InBhZCIgZ3JhZGllbnRUcmFuc2Zvcm09Im1hdHJpeCgxLjIyMTk0IDAgMCAuODE4MzcgLS45MDYgLTMpIj48c3RvcCBvZmZzZXQ9IjAiIHN0b3AtY29sb3I9IiNDQkNFRDAiLz48c3RvcCBvZmZzZXQ9IjEiIHN0b3AtY29sb3I9IiM4NDgzOEIiLz48L2xpbmVhckdyYWRpZW50PjxsaW5lYXJHcmFkaWVudCBpZD0iYiIgeDE9IjMwMS4wMjYiIHgyPSI3MDMuMDY4IiB5MT0iMTUxLjQwMSIgeTI9IjU1My40NDIiIGdyYWRpZW50VW5pdHM9InVzZXJTcGFjZU9uVXNlIiBzcHJlYWRNZXRob2Q9InBhZCIgZ3JhZGllbnRUcmFuc2Zvcm09Im1hdHJpeCguOTg5OTUgMCAwIDEuMDEwMTUgLS45MDYgLTMpIj48c3RvcCBvZmZzZXQ9IjAiIHN0b3AtY29sb3I9IiMyNzZEQzMiLz48c3RvcCBvZmZzZXQ9IjEiIHN0b3AtY29sb3I9IiMxNjVDQUEiLz48L2xpbmVhckdyYWRpZW50PjwvZGVmcz48cGF0aCBkPSJNMzYwLjU0NyA0ODIuOTM3QzE2MS40MjMgNDgyLjkzNyAwIDM3NC44MjggMCAyNDEuNDY5IDAgMTA4LjEwOSAxNjEuNDIzIDAgMzYwLjU0NyAwYzE5OS4xMjUgMCAzNjAuNTQ3IDEwOC4xMDkgMzYwLjU0NyAyNDEuNDY5IDAgMTMzLjM1OS0xNjEuNDIyIDI0MS40NjgtMzYwLjU0NyAyNDEuNDY4em01NS4xODgtMzg4LjUzMWMtMTUxLjM1MiAwLTI3NC4wNDcgNzMuOTA4LTI3NC4wNDcgMTY1LjA3OHMxMjIuNjk1IDE2NS4wNzggMjc0LjA0NyAxNjUuMDc4YzE1MS4zNTEgMCAyNjMuMDQ2LTUwLjUyOSAyNjMuMDQ2LTE2NS4wNzggMC0xMTQuNTEzLTExMS42OTUtMTY1LjA3OC0yNjMuMDQ2LTE2NS4wNzh6IiBmaWxsPSJ1cmwoI2EpIiBmaWxsLXJ1bGU9ImV2ZW5vZGQiLz48cGF0aCBkPSJNNTQ5LjA5NCAzNzRzMjEuODIyIDYuNTg1IDM0LjUgMTNjNC4zOTkgMi4yMjYgMTIuMDEgNi42NjggMTcuNSAxMi41IDUuMzc4IDUuNzEyIDggMTEuNSA4IDExLjVsODYgMTQ1LTEzOSAuMDYyLTY1LTEyMi4wNjJzLTEzLjMxLTIyLjg2OS0yMS41LTI5LjVjLTYuODMyLTUuNTMxLTkuNzQ1LTcuNS0xNi41LTcuNWgtMzMuMDI2bC4wMjYgMTU4Ljk3NC0xMjMgLjA1MlYxNDkuOTM4aDI0N3MxMTIuNSAyLjAyOSAxMTIuNSAxMDkuMDYyLTEwNy41IDExNS0xMDcuNSAxMTV6bS01My41LTEzNS45NzZsLTc0LjQ2My0uMDQ4LS4wMzcgNjkuMDUgNzQuNS0uMDI0czM0LjUtLjEwNyAzNC41LTM1LjEyNWMwLTM1LjcyMi0zNC41LTMzLjg1My0zNC41LTMzLjg1M3oiIGZpbGw9InVybCgjYikiIGZpbGwtcnVsZT0iZXZlbm9kZCIvPjwvc3ZnPg==;" parent="1" vertex="1">
                    <mxGeometry x="740" y="647.99" width="60" height="34.61" as="geometry"/>
                </mxCell>
                <mxCell id="104" value="" style="shape=image;imageAspect=0;aspect=fixed;verticalLabelPosition=bottom;verticalAlign=top;image=data:image/svg+xml,PHN2ZyB4bWxucz0iaHR0cDovL3d3dy53My5vcmcvMjAwMC9zdmciIHZpZXdCb3g9IjAgMCAyNjEuNzYgMjI2LjY5IiB2ZXJzaW9uPSIxLjEiPjxnIHRyYW5zZm9ybT0ibWF0cml4KDEuMzMzMyAwIDAgLTEuMzMzMyAtNzYuMzExIDMxMy4zNCkiPjxnIHRyYW5zZm9ybT0idHJhbnNsYXRlKDE3OC4wNiAyMzUuMDEpIj48cGF0aCBmaWxsPSIjNDFiODgzIiBkPSJtMCAwLTIyLjY2OS0zOS4yNjQtMjIuNjY5IDM5LjI2NGgtNzUuNDkxbDk4LjE2LTE3MC4wMiA5OC4xNiAxNzAuMDJ6Ii8+PC9nPjxnIHRyYW5zZm9ybT0idHJhbnNsYXRlKDE3OC4wNiAyMzUuMDEpIj48cGF0aCBmaWxsPSIjMzQ0OTVlIiBkPSJtMCAwLTIyLjY2OS0zOS4yNjQtMjIuNjY5IDM5LjI2NGgtMzYuMjI3bDU4Ljg5Ni0xMDIuMDEgNTguODk2IDEwMi4wMXoiLz48L2c+PC9nPjwvc3ZnPg==;" parent="1" vertex="1">
                    <mxGeometry x="-290" y="86.25" width="46" height="39.88" as="geometry"/>
                </mxCell>
                <mxCell id="105" value="&lt;br&gt;&lt;br&gt;Schedule Jobs&lt;br&gt;//&lt;br&gt;Notified when Job is done" style="text;html=1;align=center;verticalAlign=middle;whiteSpace=wrap;rounded=0;fontSize=9;" parent="1" vertex="1">
                    <mxGeometry x="270" y="814" width="67.87" height="30" as="geometry"/>
                </mxCell>
                <mxCell id="108" value="HTTP Requests" style="edgeStyle=none;html=1;entryX=0.001;entryY=0.3;entryDx=0;entryDy=0;entryPerimeter=0;" parent="1" source="106" target="7" edge="1">
                    <mxGeometry relative="1" as="geometry"/>
                </mxCell>
                <mxCell id="106" value="" style="image;aspect=fixed;html=1;points=[];align=center;fontSize=12;image=img/lib/azure2/compute/Virtual_Machines_Classic.svg;" parent="1" vertex="1">
                    <mxGeometry x="-250" y="22.25" width="69" height="64" as="geometry"/>
                </mxCell>
                <mxCell id="107" value="Web Application" style="text;html=1;strokeColor=none;fillColor=none;align=center;verticalAlign=middle;whiteSpace=wrap;rounded=0;" parent="1" vertex="1">
                    <mxGeometry x="-263.5" y="-7.75" width="96" height="30" as="geometry"/>
                </mxCell>
                <mxCell id="109" value="Docker volume" style="text;html=1;strokeColor=none;fillColor=none;align=center;verticalAlign=middle;whiteSpace=wrap;rounded=0;" parent="1" vertex="1">
                    <mxGeometry x="305" y="15" width="85" height="30" as="geometry"/>
                </mxCell>
                <mxCell id="110" value="" style="image;aspect=fixed;html=1;points=[];align=center;fontSize=12;image=img/lib/azure2/iot/Time_Series_Data_Sets.svg;" vertex="1" parent="1">
                    <mxGeometry x="180" y="330" width="75.3" height="100" as="geometry"/>
                </mxCell>
            </root>
        </mxGraphModel>
    </diagram>
</mxfile>